<?xml version="1.0" encoding="utf-8"?>
<!-- Generator: Adobe Illustrator 24.3.0, SVG Export Plug-In . SVG Version: 6.00 Build 0)  -->
<svg version="1.1" id="Layer_1" xmlns="http://www.w3.org/2000/svg" xmlns:xlink="http://www.w3.org/1999/xlink" x="0px" y="0px"
	 viewBox="0 0 952 598.9" style="enable-background:new 0 0 952 598.9;" xml:space="preserve">
<style type="text/css">
	.st0{fill:#F5F5F5;}
	.st1{fill:#E0E0E0;}
	.st2{fill:#EBEBEB;}
	.st3{fill:#263238;}
	.st4{fill:#455A64;}
	.st5{fill:#FB0707;}
	.st6{opacity:0.3;}
	.st7{opacity:0.3;enable-background:new    ;}
	.st8{fill:#FAFAFA;}
	.st9{fill:#FFBE9D;}
	.st10{fill:#EB996E;}
	.st11{opacity:0.4;}
	.st12{fill:#FFFFFF;}
	.st13{opacity:0.2;}
</style>
<g>
	<path class="st0" d="M44.3,133.2c0,0-16.7,6.3,1.6,41.9c18.3,35.6,31,53.2,31,53.2s3.2,8.3-3.7,9.6c-7,1.3-22.3-1.1-25.4,7.4
		c-3.2,8.9,3.3,17.2,16.3,24.4c13,7.2,41,24.2,43.6,25.8c2.5,1.6,5,5.4,0.4,7c-4.6,1.7-39.1,5.4-36.3,21.6
		c2.7,16.2,42.4,30.5,46.7,32.2c4.3,1.6,5.3,3.5,5,5.8c-0.3,2.4-12.1,2.5-21.8,4c-9.8,1.5-20.8,4.8-18.5,14.1
		c2.4,9.3,25.8,28.6,82.9,34l26.6,0.8l14.3-22.4c27.9-50,25.2-80.4,18.9-87.5c-6.3-7.2-15.3,0-22.1,7.2
		c-6.7,7.2-13.5,16.8-15.6,15.8c-2.1-1-3.1-2.9-2-7.4c1.1-4.5,11.8-45.3,0-56.7c-11.8-11.5-34.4,14.8-38.4,17.7
		c-4,2.9-5.7-1.4-5.6-4.3c0.2-2.9,2-35.6,3.4-50.5c1.4-14.9-1.8-24.9-10.9-27.3c-8.8-2.3-15.5,11.7-20.5,16.7c-5,5-10-2.4-10-2.4
		s-7.3-20.4-26.3-55.6c-18.9-35.2-34-24.7-34-24.7"/>
	<path class="st1" d="M193.9,421.2c-13.8-25.9-37.6-72.4-58.2-112.3c-20.6-39.8-39.4-75.9-53-101.8c-6.8-12.9-12.4-23.5-16.2-30.8
		c-1.9-3.6-3.4-6.4-4.4-8.4c-0.5-0.9-0.9-1.7-1.1-2.2c-0.1-0.2-0.3-0.5-0.4-0.7c0,0,0.2,0.2,0.4,0.7l1.2,2.1l4.5,8.3
		c3.9,7.2,9.6,17.7,16.5,30.7c13.8,25.9,32.6,61.9,53.2,101.7c20.6,39.8,44.3,86.4,58,112.4"/>
	<path class="st1" d="M69.1,249.5c0.6,0.1,1.3,0.3,1.9,0.5c1.2,0.4,2.9,1,4.9,1.7c4.1,1.5,9.8,3.7,16.1,6.3l15.9,6.6l4.8,2
		c0.6,0.2,1.2,0.5,1.8,0.8c-0.6-0.1-1.3-0.2-1.9-0.5c-1.2-0.4-2.9-1-4.9-1.7c-4.1-1.5-9.8-3.9-16-6.4l-16-6.5l-4.8-2
		C70.2,250.1,69.6,249.8,69.1,249.5z"/>
	<path class="st1" d="M116.2,265.7c-0.2-0.1,3.9-12,9.1-26.6c5.2-14.6,9.7-26.4,9.9-26.3c0.2,0.1-3.9,12-9.1,26.6
		C120.8,254,116.5,265.8,116.2,265.7z"/>
	<path class="st1" d="M145.2,328.3c0.3-0.6,0.7-1.1,1.1-1.6l3.1-4.3c2.6-3.6,6.3-8.7,10-14.4c3.8-5.7,7.1-11,9.4-14.9l2.8-4.6
		c0.3-0.6,0.7-1.1,1.1-1.6c-0.2,0.6-0.5,1.2-0.8,1.8c-0.6,1.1-1.4,2.7-2.5,4.7c-2.2,3.9-5.4,9.3-9.2,15c-3.8,5.7-7.5,10.7-10.3,14.4
		c-1.4,1.8-2.5,3.2-3.3,4.2C146.1,327.4,145.7,327.9,145.2,328.3z"/>
	<path class="st1" d="M99.2,323c0.6-0.1,1.2-0.1,1.8,0l4.9,0.4c4.1,0.4,9.9,0.9,16.2,1.5c6.3,0.6,12,1.3,16.2,1.8l4.9,0.6
		c0.6,0,1.2,0.2,1.8,0.3c-0.6,0.1-1.2,0.1-1.8,0l-4.9-0.4c-4.1-0.4-9.9-0.9-16.2-1.5c-6.3-0.6-12-1.3-16.2-1.8l-4.9-0.6
		C100.4,323.3,99.8,323.2,99.2,323z"/>
	<path class="st1" d="M117.7,381.4c0.8-0.1,1.5-0.1,2.3,0l6.3,0.5c5.3,0.4,12.7,1.1,20.8,1.8c8.1,0.7,15.4,1.4,20.7,2.1l6.3,0.7
		c0.8,0.1,1.5,0.2,2.3,0.4c-0.8,0.1-1.6,0.1-2.3,0l-6.3-0.5c-5.3-0.4-12.7-1.1-20.8-1.8c-8.1-0.8-15.4-1.4-20.7-2.1l-6.3-0.7
		C119.2,381.8,118.5,381.6,117.7,381.4z"/>
	<path class="st1" d="M175.1,386.4c0.4-0.7,0.8-1.5,1.3-2.1l3.8-5.6c3.2-4.7,7.6-11.3,12.2-18.7c4.6-7.3,8.6-14.2,11.5-19.1
		c1.4-2.4,2.5-4.3,3.4-5.9c0.4-0.7,0.8-1.4,1.3-2.1c-0.3,0.8-0.6,1.5-1,2.3c-0.7,1.4-1.8,3.5-3.2,6c-2.8,5-6.7,11.9-11.3,19.3
		c-4.6,7.4-9.1,13.9-12.4,18.7c-1.7,2.3-3,4.2-4,5.5C176.2,385.2,175.6,385.8,175.1,386.4z"/>
	<path class="st0" d="M685.7,469.8c-38.3-25-48.3-73.3-48.2-117.1c0-7.3-1-15,2.2-21.5c3.3-6.5,11.2-11.1,17.9-8.3
		c5.5,2.4,8.1,8.6,11.2,13.7c4.3,6.8,10.4,12.3,17.6,15.8c4.7,2.3,10.5,3.6,15,0.9c6.2-3.7,6.6-12.4,6.4-19.6l-1.4-40.5
		c-0.3-7.3-0.5-14.7,1.5-21.6c2.1-7,6.8-13.5,13.7-15.6c6.8-2.1,15.5,1.6,17.2,8.6c0.7,2.9,0.2,6,0.5,9c0.3,3,1.8,6.3,4.7,7
		c2.9,0.8,5.7-1.4,7.8-3.6c7.3-7.5,12-17.1,16.5-26.7c4.5-9.5,8.8-19.3,15.3-27.5c6.5-8.2,15.8-14.8,26.1-15.8
		c10.3-1,21.6,5.2,24.6,15.3c2.9,10.1-2.7,20.7-8.9,29.2c-9.2,12.6-20.3,23.7-32.7,33.2c-2.2,1.7-4.6,3.5-5.4,6.2
		c-1.4,4.9,3.3,9.5,8.1,11c5.5,1.6,11.3,0.9,17,1.4c5.7,0.5,11.9,2.9,14.2,8.1c3.2,7.3-2.8,15.3-8.7,20.5
		c-11.9,10.6-25.5,19-40.3,25c-5.3,2.1-10.8,4-15,7.9c-4.2,3.9-6.6,10.5-3.8,15.5c2.8,5,9.5,6.5,15,5.3c5.6-1.2,10.5-4.4,15.8-6.6
		c9.8-4.1,22.7-3.8,29.4,4.6c4.4,5.5,5,13.4,3.1,20.2c-1.9,6.8-6,12.8-10.4,18.3c-15.4,19.2-35.4,35-58.2,43.7
		c-22.9,8.7-44.2,11.6-67.4,3.9"/>
	<path class="st1" d="M696.2,442c5.7-22.2,14.1-46.1,23.6-70.7c2.4-6.2,4.8-12.2,7.2-18.2c2.4-6,4.7-11.9,7.3-17.6
		c5.1-10.8,10.8-21.4,17.1-31.6c5.9-9.8,11.9-18.9,17.5-27.3c5.6-8.4,11.1-16.2,16.3-23.1c8.2-10.9,17.3-21.1,27.1-30.5
		c3.5-3.3,6.3-5.8,8.2-7.5l2.2-1.9c0.2-0.2,0.5-0.4,0.8-0.6c-0.2,0.3-0.4,0.5-0.7,0.7l-2.1,2c-1.9,1.7-4.6,4.3-8,7.7
		c-9.7,9.6-18.6,19.8-26.8,30.8c-5.2,6.9-10.6,14.7-16.2,23.1c-5.6,8.5-11.5,17.6-17.4,27.4c-6.2,10.2-11.9,20.7-16.9,31.6
		c-2.6,5.6-4.9,11.5-7.3,17.5c-2.4,6-4.7,12.1-7.2,18.2c-9.5,24.6-17.9,48.4-23.7,70.6"/>
	<path class="st1" d="M734.6,335.4c-0.4-1-0.6-2-0.8-3.1c-0.4-2-1-4.9-1.6-8.5c-1.2-7.2-2.6-17.2-4.1-28.2c-1.5-11-3-20.9-4.4-28.1
		c-0.7-3.6-1.2-6.5-1.7-8.5c-0.3-1-0.5-2.1-0.5-3.1c0.4,1,0.8,2,1,3c0.6,2,1.3,4.8,2.1,8.4c1.6,7.2,3.3,17.1,4.8,28.1
		c1.5,11,2.7,20.7,3.7,28.2c0.5,3.4,0.9,6.3,1.2,8.6C734.5,333.4,734.6,334.4,734.6,335.4z"/>
	<path class="st1" d="M827.3,315.1c-1.2,0.3-2.5,0.5-3.7,0.6c-2.4,0.3-5.8,0.7-10,1.3c-8.5,1.2-20.2,3.2-33,6.1
		c-12.8,2.8-24.3,5.9-32.5,8.4c-4.1,1.2-7.4,2.3-9.7,3c-1.2,0.4-2.4,0.8-3.6,1c1.1-0.6,2.3-1.1,3.4-1.5c2.3-0.9,5.5-2.1,9.6-3.4
		c8.2-2.7,19.7-5.9,32.5-8.8c11-2.5,22-4.4,33.2-5.7c4.3-0.5,7.7-0.8,10.2-0.9C824.8,314.9,826.1,314.9,827.3,315.1z"/>
	<path class="st1" d="M697.2,440.3c-0.3-0.3-0.5-0.7-0.7-1.1l-1.7-3.3c-1.4-2.9-3.5-7.2-5.9-12.4c-4.8-10.5-11-25.3-17.7-41.6
		c-6.6-16.3-12.7-31.2-17.3-41.8l-5.5-12.6l-1.4-3.4c-0.2-0.4-0.3-0.8-0.4-1.2c0.3,0.3,0.5,0.7,0.7,1.1c0.5,0.9,1,2,1.7,3.3
		c1.4,2.9,3.5,7.2,5.9,12.4c4.8,10.5,11,25.3,17.7,41.7c6.6,16.4,12.7,31.2,17.3,41.8l5.4,12.5l1.4,3.4
		C697,439.4,697.1,439.8,697.2,440.3z"/>
	<path class="st1" d="M819.9,396.5c-0.4,0.2-0.8,0.4-1.2,0.5l-3.6,1.3l-13.1,4.7c-11.1,4-26.3,9.7-43.2,16
		c-16.8,6.3-32.2,11.8-43.3,15.6c-5.6,1.9-10,3.4-13.3,4.3l-3.6,1.1c-0.4,0.2-0.9,0.2-1.3,0.3c0.4-0.2,0.8-0.4,1.2-0.5l3.6-1.3
		l13.1-4.7c11.1-4,26.3-9.7,43.2-15.9c16.8-6.3,32.2-11.8,43.3-15.6c5.6-1.9,10-3.4,13.3-4.3l3.6-1.1
		C819,396.7,819.4,396.6,819.9,396.5z"/>
	<path class="st2" d="M151.8,73.3c1.1-8.4-10.7-15.3-19.6-16c-4.3-0.3-8.6,0.3-12.7-1.1c-8.7-3-12.2-14.3-20.7-17.9
		C92.4,35.6,85,38,78.8,41.2c-6.2,3.2-12.3,7-19.2,7.4c-6,0.4-12.5-1.8-17.8,1.1c-3.9,2.2-6,6.7-9.6,9.4c-3.6,2.7-8.1,3.1-12.5,3.4
		C15.5,62.6,11,62.7,7,64.5c-4,1.8-7.3,6-6.4,10.3L151.8,73.3z"/>
	<path class="st0" d="M744.7,150.4c1.2-8.7-11.1-15.8-20.3-16.6c-4.4-0.4-9,0.3-13.1-1.1c-9-3.2-12.6-14.8-21.4-18.5
		c-6.6-2.8-14.2-0.3-20.6,2.9s-12.7,7.3-19.8,7.7c-6.2,0.4-12.9-1.9-18.4,1.1c-4,2.3-6.2,6.9-9.9,9.7c-3.7,2.7-8.4,3.3-12.9,3.5
		c-4.5,0.2-9.2,0.3-13.3,2.2c-4.1,1.9-7.5,6.2-6.7,10.7L744.7,150.4z"/>
	<path class="st0" d="M928.9,188.5c0.7-5.4-6.8-9.8-12.5-10.2c-2.7-0.2-5.5,0.2-8.1-0.7c-5.6-1.9-7.8-9.1-13.2-11.4
		c-4-1.7-8.7-0.2-12.7,1.8c-3.9,2-7.8,4.5-12.2,4.7c-3.8,0.2-8-1.2-11.3,0.7c-2.5,1.4-3.8,4.3-6.1,5.9c-2.4,1.5-5.2,2.3-8,2.2
		c-2.8-0.1-5.6,0.4-8.2,1.3c-2.5,1.2-4.6,3.8-4.1,6.6L928.9,188.5z"/>
	<path class="st2" d="M901.2,66.2c1.3-9.7-12.4-17.8-22.7-18.7c-4.9-0.4-10,0.4-14.7-1.3c-10-3.5-14.1-16.6-24-20.7
		c-7.4-3.1-15.9-0.3-23,3.3c-7.2,3.6-14.2,8.1-22.2,8.6c-7,0.4-14.5-2.1-20.6,1.3c-4.5,2.5-6.9,7.8-11.1,10.8
		c-4.2,3.1-9.4,3.7-14.5,3.9c-5.1,0.3-10.3,0.3-14.9,2.4c-4.6,2.1-8.4,7-7.5,12L901.2,66.2z"/>
	<path class="st3" d="M335.6,101.9c3.9-1.7,8.2,1.9,10.3,5.6c2.2,3.7,3.9,8.2,7.8,9.9c3.1,1.3,6.6,0.6,9.9,0.7
		c10.3,0.4,18.2,9.3,22.8,18.4c2.9,5.7,5,12.3,3.1,18.4c-1.7,5.4-6.2,9.4-10.9,12.4c-9.5,6.3-20.7,9.5-32,9.1
		c-5.7-0.3-11.2-1.7-16.3-4.2c-5.1-2.5-9.6-6-13.3-10.3c-5.5-6.8-8.5-15.3-9.7-24c-1.3-8.6-1-17.4-0.7-26.1"/>
	<path class="st4" d="M380,147.2c-0.1,0,0-0.9-0.2-2.6c-0.2-2.3-0.9-4.5-1.9-6.6c-1.5-3.1-3.7-5.8-6.5-7.8
		c-3.4-2.5-7.3-4.1-11.5-4.8c-4.4-0.8-8.7-0.4-12.7-1.2c-3.5-0.8-6.6-2.4-9.3-4.8c-1.8-1.6-3.3-3.3-4.7-5.3
		c-0.5-0.7-0.8-1.2-1.1-1.6c-0.1-0.2-0.2-0.4-0.3-0.6c0.6,0.6,1.1,1.3,1.6,2c1.4,1.8,3,3.5,4.8,5c2.6,2.3,5.7,3.8,9.1,4.5
		c3.8,0.8,8.1,0.4,12.6,1.2c4.3,0.7,8.3,2.4,11.7,5c2.8,2.1,5.1,4.9,6.5,8.1c1,2.2,1.6,4.5,1.7,6.8c0,0.6,0,1.3,0,1.9
		C380.1,146.7,380,147,380,147.2z"/>
	<path class="st5" d="M419.9,128.4L404.8,185l-30.7-33c-14.1-9.2-30.8-13.7-47.6-12.9l-47.7-2.2l-26.3,9.5
		c-6.3,2.3-12.4,5.3-18.2,8.8l-51.3,35.4c-10.9,7.8-19.8,13.8-21.9,25.8c-2.8,15.8,5.2,33.5,21.9,36.4l72.6,0.9l2.2,45.9L371.9,289
		l-3.1-69.3c23.3,18,34.3,24.9,51.8,21.5c5.8-1.1,14.2-7.3,16.9-16.4c9.7-32.4,11.3-83.4,11.3-83.4L419.9,128.4z M240.9,209.6
		l6.6-1.9l0.4,2.4L240.9,209.6z"/>
	<path class="st3" d="M181.8,252.8h0.6h1.8h6.9l25.5-0.1h84.5l-0.4,0.4c0-0.8,0.1-1.7,0.1-2.6c0.5-11.4,1-22.4,1.5-32.7l0.3,0.4
		c-25.7-2.4-47.7-6.1-63.4-8.1c-7.9-1-14.1-1.7-18.5-2.2l-4.9-0.5l-1.3-0.2l-0.4-0.1h0.4l1.3,0.1l4.9,0.4c4.3,0.4,10.6,1,18.5,2
		c15.8,1.9,37.8,5.5,63.4,7.8h0.3v0.3c-0.5,10.2-1,21.3-1.4,32.7c0,0.9-0.1,1.8-0.1,2.6v0.4h-0.4l-84.5-0.3l-25.7-0.2l-6.9-0.1h-1.8
		C182.2,252.9,182,252.9,181.8,252.8z"/>
	<path class="st3" d="M183.3,203.8c0.4-0.2,0.7-0.4,1.2-0.6c1.1-0.4,2.2-0.8,3.4-1.1c7.6-2,15.7-1.1,22.8,2.3
		c1.1,0.5,2.1,1.1,3.1,1.8c0.4,0.2,0.7,0.5,1,0.8c-0.1,0.1-1.6-0.9-4.3-2.1c-7.1-3.1-14.9-3.9-22.5-2.3
		C185,203.2,183.3,203.9,183.3,203.8z"/>
	<path class="st3" d="M199.1,190.6c1.1,0.4,2.2,1,3.1,1.7c2.4,1.5,4.7,3.2,6.9,5.1c2.5,2.2,4.8,4.3,5.7,6.4c0.4,0.8,0.6,1.7,0.6,2.6
		c0,0.3-0.1,0.7-0.2,0.9c0-1.1-0.3-2.3-0.8-3.3c-1.6-2.3-3.5-4.3-5.7-6c-2.5-2.2-4.9-3.9-6.7-5.2
		C200.9,192.1,199.9,191.4,199.1,190.6z"/>
	<path class="st3" d="M248.5,210.4c-0.6-1.5-1-3-1.3-4.5c-0.7-2.8-1.7-6.6-2.9-10.9c-1.2-4.2-2.4-8-3.4-10.7c-1-2.7-1.7-4.3-1.5-4.4
		c0.3,0.3,0.5,0.7,0.6,1.1c0.4,0.7,0.8,1.8,1.4,3.1c1.4,3.5,2.6,7.1,3.6,10.7c1.2,4.3,2,8.1,2.6,10.9
		C248.1,207.3,248.3,208.8,248.5,210.4z"/>
	<path class="st3" d="M370.3,251.8c-0.2,0-1-17.2-1.8-38.5c-0.8-21.3-1.3-38.5-1.1-38.5c0.2,0,1,17.2,1.8,38.5
		C370,234.6,370.5,251.8,370.3,251.8z"/>
	<g class="st6">
		<path d="M368,182.7c1.2,7.4,4.3,14.3,6.9,21.4c2.6,7,4.3,14.7,2.8,22.1l-8.6-6.9"/>
	</g>
	<path class="st3" d="M412.3,215.4c-0.3-0.3-0.5-0.7-0.7-1.1c-0.4-0.7-0.9-1.8-1.4-3.1c-3-7-4.8-14.4-5.3-22
		c-0.1-1.4-0.1-2.6-0.1-3.4c0-0.4,0-0.9,0.1-1.3c0.3,1.5,0.5,3.1,0.6,4.6c0.8,7.5,2.5,14.8,5.2,21.9
		C411.7,213.7,412.4,215.3,412.3,215.4z"/>
	<path class="st7" d="M241.4,184.6l1.9,24.3l4.2-1.2L241.4,184.6z"/>
	<path class="st8" d="M365.4,184.5c-0.1,0-0.3-0.1-0.4-0.2l-1.1-0.5c-1.4-0.7-2.8-1.2-4.2-1.7c-5.3-1.7-11-2-16.5-0.8
		c-3.8,0.8-7.3,2.3-10.6,4.3c-3.6,2.1-7.2,4.8-11.1,7.4c-4,2.9-8.6,5-13.3,6.3c-5.2,1.3-10.5,1.5-15.8,0.6c-2.7-0.5-5.3-1.2-7.8-2.1
		c-2.4-1-4.8-2.2-7-3.6c-2.1-1.4-4.1-3-5.9-4.8c-1.7-1.7-3.3-3.5-4.7-5.5c-2.9-3.8-5.3-7.5-7.7-10.9c-2.2-3.2-4.8-6.1-7.7-8.6
		c-2.4-2.1-5.1-3.7-8.1-5c-2.2-0.9-4.6-1.4-7-1.6c-2,0-4.1,0.2-6,0.9l0.4-0.2l1.1-0.4c0.5-0.2,1.1-0.3,1.9-0.4
		c0.9-0.1,1.8-0.2,2.7-0.2c2.4,0,4.8,0.5,7.1,1.4c3,1.2,5.8,2.9,8.3,4.9c3,2.5,5.6,5.4,7.8,8.6c2.5,3.3,4.9,7.1,7.8,10.8
		c1.4,1.9,3,3.7,4.7,5.4c1.8,1.7,3.7,3.3,5.7,4.7c2.2,1.4,4.5,2.6,6.9,3.5c2.5,0.9,5,1.6,7.7,2.1c5.2,0.9,10.4,0.6,15.5-0.6
		c4.7-1.3,9.2-3.4,13.2-6.2c3.9-2.6,7.5-5.2,11.1-7.3c3.3-2,7-3.5,10.8-4.3c5.6-1.1,11.3-0.7,16.7,1.1c1.4,0.5,2.9,1.1,4.2,1.8
		l1,0.6L365.4,184.5z"/>
	<path class="st8" d="M393.4,172.8c0.1,0.6,0.2,1.2,0.2,1.8c0,1.6-0.1,3.3-0.4,4.8c-0.4,2.4-1.2,4.7-2.3,6.8
		c-1.3,2.6-2.9,5.1-4.7,7.4c-3.3,4.2-7.6,7.6-12.5,10c-1.5,0.7-3,1.3-4.5,1.7c-0.6,0.2-1.1,0.3-1.7,0.4c0-0.1,2.4-0.8,6-2.6
		c4.7-2.4,8.8-5.8,12.1-9.9c1.8-2.3,3.4-4.7,4.7-7.3c1.1-2.1,1.9-4.3,2.4-6.6C393,177.1,393.3,174.9,393.4,172.8z"/>
	<path class="st8" d="M410.8,241.2c0,0-0.2-0.1-0.5-0.3c-0.5-0.3-1-0.6-1.4-1c-1.8-1.4-3.3-3-4.6-4.7c-4.2-6-6.5-13.2-6.5-20.6
		c0.1-7.3,1.4-14.5,3.7-21.4c0.8-2.7,1.5-4.8,2.1-6.3c0.2-0.8,0.5-1.5,0.9-2.3c-0.1,0.8-0.3,1.6-0.6,2.3c-0.5,1.6-1.1,3.7-1.9,6.3
		c-2.1,6.9-3.3,14.1-3.5,21.3c0,7.2,2.1,14.3,6.1,20.3C406.3,237.3,408.4,239.4,410.8,241.2z"/>
	<path class="st8" d="M444.6,177c-0.4,0.3-0.9,0.6-1.4,0.8c-0.9,0.4-2.3,1-3.9,1.7c-4.4,1.7-9.2,2.5-13.9,2.4
		c-4.8-0.2-9.4-1.8-13.2-4.7c-1.1-0.9-2.1-1.9-3-3.1c-0.3-0.4-0.6-0.8-0.8-1.3c1.3,1.5,2.7,2.8,4.2,4c3.8,2.7,8.3,4.2,12.9,4.4
		c4.7,0.1,9.3-0.6,13.7-2.1C442.5,177.8,444.5,176.9,444.6,177z"/>
	<path class="st8" d="M231.1,208.7c-0.1,0-0.7-2.2-2-5.7c-3.5-9.2-9-17.5-16.2-24.3c-2.7-2.6-4.6-4-4.5-4.1c0.5,0.2,1,0.5,1.4,0.9
		c1.2,0.9,2.4,1.8,3.5,2.9c7.5,6.6,13.1,15.1,16.3,24.5c0.5,1.4,0.9,2.8,1.3,4.3C231,207.6,231.1,208.1,231.1,208.7z"/>
	<path class="st8" d="M247.9,211.1c-0.1,0.3-0.2,0.5-0.4,0.8c-0.4,0.7-0.9,1.4-1.4,2c-1.9,2.4-4.3,4.3-7,5.7
		c-4,2.1-8.3,3.5-12.7,4.1c-5,0.8-10.5,1.2-16.1,2.1c-2.8,0.4-5.5,1.1-8.1,2c-2.4,0.9-4.8,2-7,3.4c-3.7,2.4-6.9,5.5-9.5,9.1
		c-1.7,2.4-3.1,5.1-4.2,7.8c-0.8,2-1,3.1-1.1,3.1c0-0.3,0.1-0.6,0.2-0.8c0.2-0.8,0.4-1.6,0.7-2.4c1-2.9,2.3-5.6,4-8
		c2.5-3.7,5.8-6.9,9.5-9.3c2.2-1.5,4.6-2.6,7.1-3.5c2.7-0.9,5.4-1.6,8.2-2.1c5.7-0.9,11.2-1.2,16.2-2c4.4-0.6,8.6-2,12.6-3.9
		c2.7-1.3,5-3.2,7-5.4C247.2,212.1,247.8,211.1,247.9,211.1z"/>
	<path class="st8" d="M278.5,215.1c0.2,0.5,0.4,0.9,0.5,1.4c0.4,1.3,0.7,2.6,0.8,4c0.3,2,0.4,4,0.4,6.1c-0.1,5-1.2,9.9-3.2,14.4
		c-0.8,1.9-1.8,3.6-2.9,5.3c-0.7,1.1-1.6,2.2-2.4,3.3c-0.6,0.7-1,1.1-1,1.1c0,0,1.3-1.7,3-4.6c1-1.7,1.9-3.5,2.7-5.3
		c0.9-2.3,1.7-4.6,2.2-6.9c0.5-2.4,0.8-4.8,0.9-7.2c0.1-2,0-4-0.2-6C278.9,217.2,278.3,215.1,278.5,215.1z"/>
	<path class="st8" d="M367.9,236.8c-3.1-1.3-6.3-2.2-9.6-2.8c-3.4-0.3-6.7-0.1-10,0.4c0.9-0.5,1.9-0.8,2.9-0.9
		c4.8-0.9,9.8-0.3,14.2,1.7C366.3,235.6,367.2,236.2,367.9,236.8z"/>
	<path class="st9" d="M434.8,92.8l-14.4,35.8l27.2,12.2l7-30.5L434.8,92.8z"/>
	<path class="st4" d="M466,128.2l-24.4-30.3c-4.9-6.8-12.8-17.8-13.1-18.7c-0.5-1.4-0.7-11.2-0.5-13.7c0-3.2-0.2-6.4-0.6-9.5
		l-20.1,7.6L403,48.2l-2.8,0.9c0,0-7.3,12.6-5,19.7c2.3,7.2,11.8,10.4,14.1,11.9c2.4,1.4,11.3,5.3,21.4,20.5l1.6,2.4l4.1,5.9
		l18.7,26.8c0.5,0.8,1.2,1.4,1.9,1.9c0.8,0.5,1.6,0.8,2.5,1s1.8,0.1,2.7-0.1c0.9-0.2,1.7-0.6,2.5-1.2c0.7-0.5,1.4-1.2,1.8-2
		c0.5-0.8,0.8-1.7,0.9-2.6c0.1-0.9,0-1.8-0.2-2.7C467,129.7,466.6,128.9,466,128.2L466,128.2z"/>
	<path class="st4" d="M418.1,59.5l-5.3-14.8l1.9-0.6c0,0,9.3,5.7,11.3,12.4L418.1,59.5z"/>
	<path class="st3" d="M412.5,79.1l0.2-0.1l0.6-0.3l2.4-1.1l8.6-3.9l-0.2-0.1c-0.1,0.9-0.1,1.8,0,2.6c0,1,0.2,2,0.6,2.9
		c1,1.7,2.2,3.4,3.4,5.1c2.5,3.5,5.2,7.3,8.2,11.3c0.4,0.5,0.7,1,0.8,1.7c0.1,0.4,0,0.9-0.1,1.3c-0.1,0.4-0.4,0.8-0.7,1.1
		c-0.3,0.3-0.7,0.5-1.2,0.7c-0.4,0.1-0.9,0.1-1.3,0.1c-0.6-0.1-1.1-0.4-1.4-0.8c-0.4-0.4-0.7-1-1.1-1.4l-2.1-2.9l-7.3-9.8
		c-0.5-0.7-1.1-1.3-1.8-1.8c-0.6-0.5-1.2-0.9-1.8-1.3c-1.2-0.7-2.2-1.3-3-1.8c-0.8-0.5-1.5-0.8-2-1.1l-0.5-0.3h-0.2c0,0,0,0,0.2,0.1
		l0.5,0.3l1.9,1.1c0.8,0.5,1.9,1.1,3,1.9c0.6,0.4,1.2,0.8,1.8,1.3c0.7,0.5,1.3,1.1,1.7,1.7l7.2,9.9l2.1,2.9c0.4,0.5,0.7,1,1.1,1.4
		c0.5,0.5,1,0.8,1.7,1c0.5,0.1,1,0.1,1.5-0.1c0.5-0.1,0.9-0.4,1.3-0.7c0.4-0.4,0.7-0.8,0.8-1.3c0.2-0.5,0.2-1,0.1-1.5
		c-0.1-0.7-0.5-1.3-0.9-1.8c-2.9-4-5.7-7.8-8.2-11.3c-1.2-1.8-2.5-3.4-3.4-5.1c-0.4-0.8-0.6-1.7-0.6-2.7c-0.1-0.9-0.1-1.7,0-2.6
		v-0.2l-0.2,0.1l-8.6,4.1l-2.3,1.1l-0.6,0.3H412.5z"/>
	<g class="st6">
		<path d="M410.6,71.9l9-3.3l-0.1-5.1l-9.1,3.5L410.6,71.9z"/>
	</g>
	<path class="st3" d="M417.7,63.2c-0.4,1.2-0.5,2.5-0.4,3.7c-0.1,1.3,0,2.5,0.4,3.7c0.4-1.2,0.5-2.5,0.4-3.7
		C418.2,65.6,418.1,64.4,417.7,63.2z"/>
	<path class="st3" d="M414.9,64.2c-0.4,1.2-0.5,2.5-0.3,3.7c-0.1,1.3,0,2.5,0.4,3.7c0.4-1.2,0.5-2.5,0.3-3.7
		C415.5,66.6,415.3,65.4,414.9,64.2z"/>
	<path class="st3" d="M412.3,64.8c-0.4,1.2-0.5,2.5-0.4,3.7c-0.1,1.3,0,2.5,0.4,3.7c0.4-1.2,0.5-2.5,0.4-3.7
		C412.9,67.3,412.7,66,412.3,64.8z"/>
	<path class="st9" d="M421.3,126.4l1-7l0.7-18.7l-0.7-13c0,0,4.3,0.3,6.7,6c2.4,5.6,2.4,14.2,2.4,14.2s18.2,7.2,11.8,24.4"/>
	<path class="st9" d="M446,97.9c0.2-1.5-0.1-2.9-0.8-4.2c-0.5-0.7-1.1-1.2-1.8-1.7c-0.7-0.4-1.5-0.7-2.3-0.8c-1.5-0.3-3-0.3-4.4,0
		l3.4,4.8c-0.7,2.9-1.2,5.8-1.5,8.7c-0.2,1.5-0.2,3.4,1.1,4.2c0.6,0.3,1.2,0.3,1.8,0.2s1.2-0.5,1.6-0.9c0.8-1,1.3-2.1,1.5-3.4
		C445.3,102.5,445.8,100.2,446,97.9z"/>
	<path class="st9" d="M451.2,103.4c0.2-1.5-0.1-2.9-0.8-4.2c-0.5-0.7-1.1-1.2-1.8-1.7c-0.7-0.4-1.5-0.7-2.3-0.8
		c-1.5-0.3-3-0.3-4.4,0l3.4,4.8c-0.7,2.9-1.2,5.8-1.5,8.7c-0.2,1.4-0.2,3.4,1.1,4.2c0.6,0.3,1.2,0.3,1.8,0.2
		c0.6-0.1,1.2-0.5,1.6-0.9c0.8-1,1.3-2.1,1.5-3.4C450.5,108,450.9,105.7,451.2,103.4z"/>
	<path class="st9" d="M456.5,108.9c0.2-1.5-0.1-2.9-0.8-4.2c-0.5-0.7-1.1-1.2-1.8-1.7c-0.7-0.4-1.5-0.7-2.3-0.8
		c-1.5-0.3-3-0.3-4.4,0l3.4,4.8c-0.7,2.9-1.2,5.8-1.5,8.7c-0.2,1.5-0.2,3.4,1.1,4.2c0.6,0.3,1.2,0.3,1.8,0.2
		c0.6-0.1,1.1-0.5,1.5-0.9c0.8-1,1.3-2.2,1.5-3.4C455.8,113.4,456.3,111.2,456.5,108.9z"/>
	<path class="st10" d="M445.6,94.5c0.6,2.1,0.7,4.3,0.3,6.4c-0.2,2.1-0.9,4.2-2,6c-0.2-0.1,0.8-2.7,1.3-6.2
		C445.6,97.4,445.4,94.6,445.6,94.5z"/>
	<path class="st10" d="M451.1,102c0.4,1.9,0.4,3.8,0,5.6c-0.4,1.9-1.2,3.6-2.3,5.1c-0.2-0.1,1-2.3,1.6-5.3
		C451,104.5,450.9,102,451.1,102z"/>
	<path class="st10" d="M429.3,94.5c0.4,1.2,0.6,2.5,0.8,3.8c0.4,2.4,1,5.7,1.6,9.7l-0.2-0.3c2.7,0.9,5.2,2.4,7.2,4.4
		c2.1,2,3.6,4.4,4.7,7.1c0.9,2.2,1.4,4.5,1.4,6.9c0,1.6-0.1,3.2-0.4,4.7c-0.1,0.6-0.2,1.1-0.5,1.7c0.3-2.1,0.4-4.2,0.4-6.3
		c-0.1-2.3-0.7-4.5-1.5-6.6c-1.1-2.6-2.6-4.9-4.7-6.9c-1.9-1.9-4.3-3.3-6.8-4.2H431v-0.2c-0.6-4-1-7.4-1.3-9.8
		C429.4,97.1,429.3,95.8,429.3,94.5z"/>
	<path class="st3" d="M427.4,56l-0.3,0.1l-0.9,0.3l-3.4,1.3L411.6,62l-11.1,4.3l-3.4,1.3l-0.9,0.3c-0.2,0.1-0.3,0.1-0.3,0.1l0.3-0.1
		l0.9-0.4l3.3-1.4c2.9-1.1,6.8-2.7,11.1-4.3c4.3-1.6,8.3-3.1,11.2-4.2c1.4-0.5,2.6-0.9,3.4-1.2l0.9-0.3
		C427.1,56.1,427.3,56,427.4,56z"/>
	<path class="st9" d="M302.8,223c0,0,17.9-4.9,20.9-5c2.3-0.1,15.9,2.2,22.1,3.3c1.2,0.2,2.2,0.8,2.9,1.7c0.7,0.9,1,2.1,0.9,3.3
		c0,0.1-0.1,0.3-0.1,0.4c-0.3,0.7-0.7,1.3-1.3,1.8c-0.6,0.5-1.3,0.8-2.1,0.8c0.9,0.4,1.6,1.2,2.1,2.1c0.5,0.9,0.6,1.9,0.5,2.9
		c-0.5,3.5-4.9,3.6-4.9,3.6s0.2,0.2,0.5,0.6c0.4,0.6,0.7,1.3,0.8,2.1c0.1,0.8-0.1,1.5-0.4,2.2c-0.3,0.7-0.8,1.3-1.4,1.7
		c-0.6,0.4-1.3,0.7-2.1,0.8l-2,0.1c0.7,0.4,1.2,1,1.6,1.7c0.4,0.7,0.5,1.5,0.5,2.2c-0.8,4.6-11.4,3.9-11.4,3.9l-28.4-0.5L302.8,223z
		"/>
	<path class="st9" d="M344.3,215.4c-0.3,1.4-1.2,4.7-4,5.7l-14.4-2.8c0,0,11.3-2.1,13.1-3.7c0.7-0.7,1.5-1.2,2.4-1.7
		c0.4-0.2,0.8-0.3,1.2-0.2c0.4,0,0.8,0.2,1.1,0.5c0.3,0.3,0.5,0.6,0.7,1C344.4,214.6,344.4,215,344.3,215.4z"/>
	<path class="st10" d="M332.7,219.3c0,0.2,2.9,1,6.5,1.4c3.6,0.5,6.6,0.8,6.6,0.5c0-0.3-2.9-1-6.5-1.4
		C335.7,219.4,332.8,219.1,332.7,219.3z"/>
	<path class="st10" d="M334.7,227.9c0,0.2,2.4,1.1,5.6,1.4c3.2,0.4,5.7,0.1,5.7-0.1c0-0.3-2.5-0.4-5.7-0.8
		C337.3,228,334.8,227.6,334.7,227.9z"/>
	<path class="st10" d="M327.6,225.7c-0.2,0.1-0.1,0.9,0.7,1.6c0.7,0.6,1.6,0.7,1.6,0.5c0.1-0.2-0.4-0.7-1-1.2
		C328.3,226.1,327.8,225.6,327.6,225.7z"/>
	<path class="st10" d="M331.7,236.7c0,0.3,2.7,0.8,6.2,1.2c3.4,0.4,6.2,0.5,6.3,0.3c0-0.3-2.7-0.8-6.2-1.2
		C334.5,236.6,331.8,236.5,331.7,236.7z"/>
	<path class="st10" d="M324.1,231.6c-0.1,0-0.4,0.2-0.5,0.8c-0.2,0.7-0.1,1.5,0.3,2.2c0.4,0.7,1,1.2,1.7,1.4c0.5,0.1,0.9,0,0.9-0.1
		c0-0.1-1.2-0.6-1.8-1.8C324,233,324.4,231.7,324.1,231.6z"/>
	<path class="st10" d="M328.2,245.3c0,0.3,2.5,0.5,5.6,0.6c3.1,0.1,5.7,0,5.7-0.3c0-0.3-2.5-0.5-5.6-0.6
		C330.8,244.9,328.2,245.1,328.2,245.3z"/>
	<path class="st10" d="M320.9,239.6c-0.1,0-0.3,0.2-0.4,0.8c-0.1,0.7,0.1,1.5,0.5,2.1c0.9,1.4,2,2.1,2.1,1.9
		c0.2-0.2-0.6-1.2-1.3-2.4C321,240.8,321.1,239.7,320.9,239.6z"/>
	<path class="st3" d="M246.9,81.6c-0.6-4.6-5.6-7.8-10.2-7.2c-2.3,0.5-4.4,1.6-6.1,3.2c-1.7,1.6-2.9,3.6-3.5,5.9
		c-1.1,4.5-0.6,9.3,1.4,13.5c1.4,3.3,4,6.6,7.5,7.3c1.7,0.2,3.3,0,4.9-0.6c1.6-0.6,2.9-1.6,4-2.9c2.1-2.6,3.7-5.6,4.7-8.8
		L246.9,81.6z"/>
	<path class="st5" d="M252.7,80.6c-0.8-0.4-1.6-0.5-2.5-0.3c-0.8,0.2-1.6,0.7-2.1,1.4c-1,1.4-1.5,3.1-1.4,4.8
		c-0.1,2.9,0.5,5.7,1.6,8.3c0.1,0.4,0.3,0.8,0.6,1.1c0.3,0.3,0.6,0.6,1,0.8c0.4,0.1,0.8,0.1,1.2-0.1c0.4-0.1,0.7-0.4,1-0.7
		c0.5-0.7,0.8-1.4,1-2.3c1.1-4.8,0.9-9.8-0.7-14.5"/>
	<path class="st5" d="M334,58.4c8.1-3.9,12.7-8,12-11.4c-0.7-3.3-16.9-8.5-20.7-9.9c-9-3.3-17.4,4.6-31.6,7.4
		C266.2,50.1,245,60.1,246.4,67c0.7,3.3,6.5,5.3,15.4,5.9"/>
	<g class="st11">
		<path d="M329.2,59.1c7.2-3.5,11.5-7.2,10.7-10c-2.2-8.1-22-7.2-46.4-2.2c-24.4,5-43.1,13.8-41.9,19.9c0.6,3,5.7,4.7,13.6,5.2"/>
	</g>
	<path class="st9" d="M265.2,69.4c-0.8-4.5-0.7-9.2,0.3-13.7c1-4.5,2.9-8.7,5.6-12.5c2.7-3.7,6.1-6.9,10-9.3c3.9-2.4,8.3-4,12.8-4.7
		c18.2-2.7,35.2,10,38.9,28.1c3.3,15.8,6.2,31.8,6.4,37.6c0.7,17.6-9.2,25-13.3,27.3c-1.5,0.6-3,1.1-4.6,1.4c0,0,0,0,0,0
		c0,0,0,0,0,0c0,0,0,0,0,0c0,0,0,0,0,0l5,20c2.5,13.2-4.3,25.4-17.4,28c-13.1,2.6-24.1-7-26.8-20.1L265.2,69.4z"/>
	<path class="st3" d="M327.5,68.4c0.1,0.7,0,1.5-0.4,2.1c-0.4,0.6-1,1.1-1.7,1.2c-0.3,0.1-0.7,0.1-1.1,0.1s-0.7-0.2-1-0.3
		c-0.3-0.2-0.6-0.4-0.8-0.7c-0.2-0.3-0.4-0.6-0.5-1c-0.1-0.7,0-1.5,0.4-2.1c0.4-0.6,1-1.1,1.7-1.2c0.3-0.1,0.7-0.1,1.1-0.1
		s0.7,0.2,1,0.3c0.3,0.2,0.6,0.4,0.8,0.7C327.2,67.7,327.4,68,327.5,68.4z"/>
	<path class="st3" d="M329.1,62.4c-0.3,0.4-2.7-0.7-5.6-0.1c-3,0.6-4.8,2.5-5.2,2.2c-0.4-0.3,0-0.8,0.8-1.7c1.1-1.2,2.5-1.9,4.1-2.2
		c1.5-0.3,3.1-0.1,4.6,0.5C328.8,61.6,329.2,62.2,329.1,62.4z"/>
	<path class="st3" d="M298.4,74.2c0.1,0.7,0,1.5-0.4,2.1c-0.4,0.6-1,1.1-1.7,1.2c-0.3,0.1-0.7,0.1-1.1,0.1c-0.4,0-0.7-0.2-1-0.3
		c-0.3-0.2-0.6-0.4-0.8-0.7c-0.2-0.3-0.4-0.6-0.5-1c-0.1-0.7,0-1.5,0.4-2.1c0.4-0.6,1-1.1,1.7-1.2c0.3-0.1,0.7-0.1,1.1-0.1
		c0.4,0,0.7,0.2,1,0.3c0.3,0.2,0.6,0.4,0.8,0.7C298.2,73.5,298.3,73.9,298.4,74.2z"/>
	<path class="st3" d="M300.1,68.8c-0.3,0.4-2.7-0.7-5.6-0.1c-3,0.6-4.8,2.5-5.2,2.2c-0.2-0.1,0-0.8,0.8-1.7c1.1-1.1,2.5-1.9,4.1-2.2
		c1.5-0.3,3.1-0.1,4.6,0.5C299.8,68,300.2,68.6,300.1,68.8z"/>
	<path class="st3" d="M315.3,88.6c1.5-0.8,3-1.4,4.6-1.8c0.7-0.2,1.4-0.5,1.4-1.1c-0.1-0.8-0.4-1.5-0.9-2.1l-3.4-5.3
		c-4.7-7.6-8.3-13.8-8-14c0.3-0.2,4.4,5.7,9.2,13.4l3.3,5.4c0.7,0.8,1,1.8,1,2.9c-0.1,0.3-0.2,0.6-0.4,0.8c-0.2,0.2-0.4,0.4-0.7,0.6
		c-0.4,0.2-0.8,0.4-1.2,0.4C318.5,88.1,316.9,88.4,315.3,88.6z"/>
	<path class="st10" d="M321.3,123.8c0,0-11.2,3.2-27.3-2.5c0,0,7.5,14.2,28.6,7.9L321.3,123.8z"/>
	<path class="st10" d="M315.4,95.9c-0.7-0.6-1.6-1-2.5-1.2c-0.9-0.2-1.8-0.1-2.7,0.2c-0.6,0.2-1.2,0.5-1.7,0.9
		c-0.5,0.4-0.9,0.9-1.2,1.5c-0.3,0.6-0.4,1.2-0.3,1.9c0.1,0.6,0.4,1.2,0.8,1.7c0.6,0.4,1.3,0.7,2,0.7c0.7,0,1.4-0.1,2.1-0.5
		c1.3-0.8,2.4-1.8,3.3-3c0.3-0.3,0.5-0.7,0.7-1c0.1-0.2,0.1-0.4,0.1-0.6c0-0.2-0.1-0.4-0.3-0.5"/>
	<path class="st3" d="M307,92.4c0.5-0.1,1.1,3.1,4.3,4.8c3.2,1.7,6.6,0.7,6.7,1.1c0.1,0.2-0.6,0.8-2.1,1.1c-1.9,0.4-3.8,0.1-5.5-0.8
		c-1.6-0.9-2.9-2.3-3.4-4.1C306.5,93.2,306.7,92.4,307,92.4z"/>
	<path class="st3" d="M299.3,59.2c-0.1,0.9-3.2,1.1-6.5,2.2c-3.4,1.1-6,2.6-6.6,2c-0.3-0.3,0.1-1.2,1-2.2c1.3-1.3,2.9-2.2,4.7-2.8
		c1.7-0.6,3.6-0.7,5.4-0.4C298.7,58.3,299.4,58.8,299.3,59.2z"/>
	<path class="st3" d="M326.5,55c-0.4,0.8-2.6,0.5-5,0.9c-2.5,0.5-4.4,1.4-5.1,0.7c-0.3-0.3-0.1-1,0.7-1.9c1.1-1,2.4-1.7,3.8-2
		c1.4-0.3,2.9-0.1,4.3,0.5C326.2,54,326.6,54.6,326.5,55z"/>
	<path class="st3" d="M306.8,41.1c-1.1,2.6-2.8,4.9-4.9,6.8c-2.1,1.9-4.6,3.3-7.4,4.1c-3.6,1-7.8,1.2-10,4.1c-1.7,2.2-1.7,5.1-2,7.8
		c-0.6,4.1,0.4,8.8-2.7,11.5c-2.4,2.1-4.7,2.1-6.2,4.9c-1.5,2.9-1.2,6.9-0.6,10.2c0.6,3.3,1.4,8.6-1.3,10.7
		c-2.6-12.1-9.1-25.1-11.6-37.2c-0.5-1.8-0.7-3.6-0.5-5.5c0.7-4.1,4.6-6.8,8.4-8.6c10.5-5.3,22.2-8,33.6-10.7"/>
	<path class="st5" d="M338.5,45.2c0,0-13-27.9-13.9-29.2c-0.9-1.3-11.8-12.4-32.5-12.1l-16.5,3.3c0,0-21.9,12.2-25,18.8
		c-3.1,6.5,0.6,34.6,0.6,34.6l44.2-19.3l33,1.3L338.5,45.2z"/>
	<path class="st5" d="M286,1.6l4.5-0.9c0.9-0.2,1.9-0.1,2.7,0.2c0.9,0.3,1.6,0.9,2.1,1.7c0.9,1.4,1.6,2.9,2,4.4
		c1.4,5.1,9.6,40,9.6,40l-20.9,3.2l-8.1-43.6l-6.7,3l-0.1-1.3c-0.1-0.8,0.1-1.6,0.4-2.3c0.3-0.5,0.6-0.9,1.1-1.2
		c0.4-0.3,0.9-0.6,1.5-0.7L286,1.6z"/>
	<path class="st4" d="M333.3,49.3l-4.2-9.7L294.7,36l-36.5,19.2l2.3,11.5C260.5,66.7,290.5,47,333.3,49.3z"/>
	<path class="st5" d="M325.3,37.1l1.6,1l12.5,6c0,0-22.7-2.9-44.9,1.8c-22.2,4.7-46.1,17.3-46.1,17.3l12.9-11.8
		c1.8-2.9,4.2-5.5,7-7.5c2.8-2,6-3.4,9.4-4.2l27.8-6.2c3.3-0.7,6.8-0.8,10.2-0.2C319.2,34,322.4,35.3,325.3,37.1z"/>
	<path class="st3" d="M336.4,45.2c0,0-0.3-0.2-0.8-0.5c-0.8-0.4-1.7-0.7-2.5-1c-3.2-0.8-6.5-1.3-9.8-1.3
		c-10.9-0.2-21.8,1.4-32.2,4.5c-6.1,1.7-12,3.2-17.2,5c-4.6,1.7-9.1,3.6-13.5,5.7c-1.9,0.9-3.5,1.9-4.9,2.8
		c-1.3,0.7-2.4,1.7-3.2,2.9c-0.5,0.8-0.7,1.8-0.5,2.7c0.1,0.6,0.4,0.9,0.4,0.9c-0.2-0.6-0.2-1.1-0.1-1.7c0.1-0.6,0.3-1.1,0.7-1.6
		c0.9-1.1,2-1.9,3.2-2.5c1.4-0.8,3.1-1.7,5-2.6c3.7-1.7,8.3-3.7,13.5-5.5c5.1-1.8,11-3.2,17.2-4.9c10.3-3.1,21.1-4.7,31.9-4.8
		c3.3,0,6.5,0.3,9.7,0.9C335.2,44.7,336.3,45.3,336.4,45.2z"/>
	<path class="st3" d="M333.1,49c4,8.9,17.8,21.5,4.5,33.8c0,0-4.2-20.1-7.4-27.6c-0.8-2.3-2.1-4.3-3.8-6"/>
	<path class="st3" d="M265,65.6c-4.5,0.9-8.5,3.5-11.2,7.2c-2.7,3.8-3.8,8.4-3.1,13c0.4,2.4,1.4,4.7,1.1,7.2
		c-0.3,2.5-1.5,4.4-2.1,6.7c-1.2,4.5-1.4,11.9,0.2,16.3c3.6,10.5,16.9,23.4,29,21"/>
	<path class="st3" d="M273.9,128.2c1.3,0.2,2.5,0.2,3.8-0.2c1.2-0.4,2.3-1,3.2-1.9c1.8-1.8,3.1-4.1,3.7-6.6
		c1.1-3.9,1.3-8.1,0.5-12.1c-0.8-4-2.6-7.8-5.2-11c3-5.4,4.6-11.5,4.7-17.7c0.1-6.2-1.4-12.3-4.2-17.8l-16.9,5L273.9,128.2z"/>
	<path class="st4" d="M247,91.9c-0.7,1-1.6,1.8-2.7,2.4c-2.5,1.6-5.5,2.2-8.5,1.9c-3-0.3-5.7-1.7-7.8-3.8c-0.9-0.8-1.5-2-1.6-3.2
		c0.5,1,1.2,2,2,2.9c2.1,1.9,4.7,3.1,7.5,3.5c2.8,0.3,5.6-0.2,8.1-1.6C246,92.8,246.9,91.8,247,91.9z"/>
	<path class="st4" d="M245.7,89.6c-0.9,0.6-1.9,0.9-3,1.1c-2.5,0.5-5.2,0.4-7.6-0.4c-2.5-0.8-4.7-2.2-6.5-4.1
		c-0.8-0.7-1.4-1.6-1.8-2.6c0.1,0,0.8,0.9,2.2,2.2c1.8,1.7,4,3,6.3,3.7c2.4,0.8,4.9,1,7.3,0.6C244.6,89.9,245.7,89.5,245.7,89.6z"/>
	<path class="st4" d="M282.4,65.7c0,0.6,0,1.1-0.1,1.7c-0.2,1.5-0.6,3.1-1.1,4.5c-1.7,4.9-4.8,9.2-8.9,12.3c-4.2,3.1-9.2,4.8-14.3,5
		c-1.6,0.1-3.1,0-4.6-0.3c-0.6-0.1-1.1-0.2-1.6-0.4c2.1,0.2,4.2,0.3,6.3,0.2c5-0.3,9.9-2,13.9-5c4.1-3,7.1-7.1,8.9-11.8
		C281.4,69.8,281.9,67.7,282.4,65.7z"/>
	<path class="st4" d="M282.9,91c0,0-0.2,0.4-0.8,1c-0.9,0.8-1.8,1.6-2.9,2.2c-3.4,1.9-7.3,2.9-11.3,2.9c-3.9-0.1-7.7-0.7-11.5-1.8
		c-1.4-0.4-2.6-0.7-3.4-1c-0.4-0.1-0.8-0.3-1.2-0.5c1.6,0.2,3.2,0.5,4.7,1c3.7,0.9,7.5,1.4,11.4,1.5c3.8,0.1,7.6-0.8,11-2.6
		C280.4,92.9,281.7,92,282.9,91z"/>
	<path class="st3" d="M339.2,42.3c-0.3-0.1-0.7-0.2-1-0.3l-2.8-1l-10.2-3.7l-2.6-2.4c-0.9-0.9-1.9-1.7-3-2.3c-1.2-0.6-2.4-1-3.8-1.2
		c-1.4-0.1-2.9,0.1-4.3,0.4c-5.9,1-12.3,2.3-19,3.9c-6.2,1.4-12.2,2.9-17.6,4.3c-1.3,0.3-2.6,0.8-3.7,1.4c-1.1,0.6-2,1.5-2.7,2.5
		c-1.3,2.1-2.5,4.2-3.6,6l-9.9,7.3l-2.7,2c-0.3,0.2-0.6,0.5-1,0.6c0.3-0.3,0.6-0.5,0.9-0.8l2.6-2.1l9.6-7.5v0.1
		c1.1-1.9,2.2-3.9,3.6-6.1c0.8-1.1,1.7-2,2.9-2.7c1.2-0.7,2.5-1.2,3.9-1.4c5.4-1.4,11.4-2.9,17.6-4.3c6.7-1.5,13.1-2.9,19-3.9
		c1.4-0.3,2.9-0.4,4.4-0.4c1.4,0.1,2.8,0.6,4,1.3c1.1,0.7,2.1,1.5,3,2.4l2.6,2.4h-0.1l10.2,3.9l2.7,1.1
		C338.6,42,338.9,42.1,339.2,42.3z"/>
	<path class="st3" d="M283.7,37.5c-0.2-0.5-0.3-0.9-0.4-1.4c-0.2-0.9-0.5-2.3-0.8-3.9c-0.7-3.3-1.6-7.9-2.5-12.9
		c-0.4-2.5-0.9-5-1.3-7.2c-0.2-1.1-0.4-2.1-0.5-3.1c0-0.2-0.1-0.4-0.2-0.5c-0.1-0.2-0.2-0.3-0.4-0.4c-0.2-0.1-0.3-0.2-0.5-0.2
		c-0.2,0-0.4,0-0.6,0l-3.7,1.4c-0.5,0.2-0.9,0.4-1.4,0.5c0.4-0.3,0.8-0.5,1.3-0.7c0.9-0.4,2.1-1,3.6-1.7c0.3-0.1,0.5-0.1,0.8-0.1
		c0.3,0,0.5,0.1,0.8,0.2c0.2,0.1,0.4,0.3,0.6,0.5c0.2,0.2,0.3,0.5,0.3,0.7c0.2,1,0.4,2,0.6,3.1c0.4,2.2,0.9,4.6,1.3,7.2
		c0.9,5.1,1.7,9.7,2.3,13c0.3,1.7,0.5,3,0.6,4C283.7,36.4,283.8,37,283.7,37.5z"/>
	<path class="st3" d="M303.7,33c-0.7-1.3-1.2-2.7-1.5-4.1c-0.8-2.6-1.7-6.3-2.7-10.3s-1.8-7.7-2.3-10.4c-0.4-1.4-0.6-2.9-0.7-4.3
		c0.5,1.4,1,2.8,1.3,4.3c0.7,2.6,1.6,6.3,2.6,10.3c1,4,1.8,7.5,2.4,10.3C303.1,30.2,303.4,31.6,303.7,33z"/>
	<path class="st3" d="M338.9,90.7c2.9-0.1,5.8-0.8,8.5-2c2.9-1.2,5.4-3.2,7.4-5.7c1.1-1.6,1.8-3.4,2.1-5.3c0.3-1.9,0.2-3.8-0.3-5.7
		c-0.4-1.9-1.2-3.7-2.3-5.2c-1.1-1.6-2.5-2.9-4.2-3.9c-2.9-1.4-5.8-2.7-8.8-3.8c-2-0.9-3.8-2.2-5.3-3.8c-0.4-0.4-0.7-0.9-1-1.4
		c-0.2-0.4-0.3-0.6-0.2-0.6c0.4,0.7,0.9,1.3,1.4,1.9c1.5,1.5,3.3,2.7,5.3,3.5c3,1.1,6,2.3,8.9,3.7c1.7,1,3.2,2.4,4.4,4.1
		c1.2,1.6,2,3.5,2.4,5.5c0.5,2,0.6,4,0.3,6c-0.3,2-1.1,3.9-2.2,5.6c-2,2.6-4.7,4.6-7.7,5.9c-2,0.9-4.2,1.4-6.3,1.6
		c-0.6,0-1.2,0-1.8,0C339.3,90.8,339.1,90.8,338.9,90.7z"/>
	<path class="st3" d="M231.5,85c0,0-0.1,0-0.3-0.2c-0.3-0.3-0.6-0.6-0.8-0.9c-0.9-1.2-1.4-2.5-1.6-3.9c-0.4-2.1,0.1-4.4,1.1-6.2
		c0.7-1.1,1.7-2.1,2.8-2.8c1.1-0.7,2.4-1.2,3.7-1.4c1.3-0.2,2.7-0.1,3.9,0.2c1.3,0.4,2.5,1,3.5,1.8c1.6,1.5,2.6,3.5,2.9,5.6
		c0.2,1.4,0.1,2.9-0.4,4.3c-0.1,0.4-0.3,0.7-0.5,1c-0.1,0.2-0.2,0.3-0.2,0.3c0,0,0.2-0.5,0.4-1.4c0.3-1.3,0.4-2.7,0.2-4.1
		c-0.4-2-1.4-3.8-2.9-5.2c-1-0.8-2.1-1.3-3.2-1.7c-1.2-0.3-2.4-0.4-3.6-0.2c-1.2,0.2-2.4,0.6-3.4,1.3c-1,0.7-1.9,1.5-2.6,2.5
		c-1,1.7-1.4,3.7-1.2,5.7c0.2,1.4,0.6,2.7,1.3,3.8C231.1,84.5,231.5,84.9,231.5,85z"/>
	<path class="st3" d="M276.1,134.5c-0.2,0.1-0.4,0.2-0.6,0.2c-0.4,0.1-1,0.3-1.8,0.5c-2.2,0.5-4.4,0.8-6.7,1
		c-3.4,0.3-6.7-0.3-9.9-1.5c-3.8-1.7-6.9-4.7-8.9-8.4c-2-3.6-3-7.7-3-11.8c0-3.3,0.5-6.7,1.4-9.9c0.6-2.1,1.4-4.2,2.4-6.3
		c0.3-0.7,0.6-1.3,0.8-1.6c0.1-0.2,0.2-0.4,0.3-0.5c-0.2,0.8-0.5,1.5-0.9,2.3c-0.8,2.1-1.5,4.2-2.1,6.3c-0.9,3.2-1.3,6.4-1.3,9.7
		c0,4,1.1,8,3,11.5c1.9,3.5,4.9,6.4,8.5,8.1c3.1,1.3,6.4,1.8,9.7,1.7c2.2-0.1,4.4-0.3,6.6-0.7C274.5,134.8,275.3,134.6,276.1,134.5z
		"/>
	<path class="st3" d="M245.5,99.1c0,0.2-0.1,0.5-0.2,0.7c-0.2,0.6-0.5,1.3-0.9,1.8c-1.4,2.1-3.6,3.6-6,4.3c-1.7,0.5-3.5,0.6-5.2,0.2
		c-2-0.4-3.8-1.3-5.4-2.5c-1.7-1.4-3.1-3.1-4.1-5.1c-1-2.2-1.5-4.5-1.5-6.9c0-4.6,1.6-9.1,4.5-12.6c1.1-1.5,2.6-2.7,4.3-3.6
		c1.7-0.8,3.5-1.3,5.4-1.4c2.5,0,5,1,6.8,2.7c0.7,0.6,1.2,1.4,1.5,2.2c-0.5-0.7-1.1-1.4-1.7-2c-1.9-1.6-4.2-2.4-6.7-2.4
		c-1.8,0.1-3.5,0.5-5.1,1.4c-1.6,0.8-3,2-4,3.4c-2.8,3.4-4.3,7.7-4.3,12.2c0,2.3,0.5,4.5,1.4,6.6c0.9,1.9,2.2,3.6,3.9,4.9
		c1.5,1.2,3.2,2,5.1,2.5c1.6,0.3,3.3,0.3,4.9-0.1c2.4-0.6,4.4-2,5.9-3.9C244.7,100.7,245.1,99.9,245.5,99.1z"/>
	<path class="st4" d="M655.7,254.2h-467c-11.5,0-20.9,9.4-20.9,20.9v294.7c0,11.5,9.4,20.9,20.9,20.9h467c11.5,0,20.9-9.4,20.9-20.9
		V275.1C676.6,263.6,667.2,254.2,655.7,254.2z"/>
	<path class="st4" d="M147.9,569h551.3v3.9c0,6.8-2.7,13.3-7.5,18.1c-4.8,4.8-11.3,7.5-18.1,7.5H173.4c-6.8,0-13.3-2.7-18.1-7.5
		c-4.8-4.8-7.5-11.3-7.5-18.1V569z"/>
	<path class="st3" d="M661.5,267.6H181.4v284.1h480.1V267.6z"/>
	<path class="st3" d="M372,565.8l6.8,10.9h96.3l6.4-10.9H372z"/>
	<path class="st2" d="M647.9,277.2H196c-2.6,0-4.7,2.1-4.7,4.7v264.2c0,2.6,2.1,4.7,4.7,4.7h451.9c2.6,0,4.7-2.1,4.7-4.7V281.9
		C652.6,279.3,650.5,277.2,647.9,277.2z"/>
	<path class="st8" d="M652.1,551.2H190.8l0.5-253.6h460.8V551.2z"/>
	<path class="st3" d="M229.1,287.8c0,0.7-0.2,1.4-0.6,2.1c-0.4,0.6-1,1.1-1.7,1.4c-0.7,0.3-1.4,0.4-2.1,0.2c-0.7-0.1-1.4-0.5-1.9-1
		c-0.5-0.5-0.9-1.2-1-1.9c-0.1-0.7-0.1-1.5,0.2-2.1c0.3-0.7,0.8-1.2,1.4-1.7c0.6-0.4,1.3-0.6,2.1-0.6c0.5,0,1,0.1,1.4,0.3
		c0.4,0.2,0.9,0.5,1.2,0.8c0.3,0.3,0.6,0.8,0.8,1.2C229,286.8,229.1,287.3,229.1,287.8z"/>
	<path class="st3" d="M206.9,287.8c0,0.7-0.2,1.4-0.6,2.1c-0.4,0.6-1,1.1-1.7,1.4c-0.7,0.3-1.4,0.4-2.1,0.2c-0.7-0.1-1.4-0.5-1.9-1
		c-0.5-0.5-0.9-1.2-1-1.9c-0.1-0.7-0.1-1.5,0.2-2.1c0.3-0.7,0.8-1.2,1.4-1.7c0.6-0.4,1.3-0.6,2.1-0.6c0.5,0,1,0.1,1.4,0.3
		c0.4,0.2,0.9,0.5,1.2,0.8c0.3,0.3,0.6,0.8,0.8,1.2C206.8,286.8,206.9,287.3,206.9,287.8z"/>
	<path class="st3" d="M217.5,287.8c0,0.7-0.2,1.4-0.6,2.1c-0.4,0.6-1,1.1-1.7,1.4c-0.7,0.3-1.4,0.4-2.1,0.2c-0.7-0.1-1.4-0.5-1.9-1
		c-0.5-0.5-0.9-1.2-1-1.9c-0.1-0.7-0.1-1.5,0.2-2.1c0.3-0.7,0.8-1.2,1.4-1.7c0.6-0.4,1.3-0.6,2.1-0.6c1,0,1.9,0.4,2.6,1.1
		C217.1,285.9,217.5,286.8,217.5,287.8z"/>
	<path class="st3" d="M672.2,565.8c0,0.2-112.9,0.3-252.2,0.3c-139.3,0-252.2-0.1-252.2-0.3s112.9-0.3,252.2-0.3
		S672.2,565.6,672.2,565.8z"/>
	<path class="st1" d="M480.8,501.7c0,0.2-27.7,0.4-61.8,0.4s-61.8-0.2-61.8-0.4c0-0.2,27.7-0.4,61.8-0.4S480.8,501.6,480.8,501.7z"
		/>
	<path class="st0" d="M339.6,436.7H202v103.5h137.7V436.7z"/>
	<path class="st1" d="M202,540.3l48-64.4l29.8,40.2l20.2-21.5l39.6,45.5L202,540.3z"/>
	<path class="st1" d="M292.4,468c0,2.1-0.6,4.2-1.8,6c-1.2,1.8-2.9,3.2-4.9,4c-2,0.8-4.2,1-6.3,0.6c-2.1-0.4-4-1.4-5.6-3
		c-1.5-1.5-2.6-3.4-3-5.5c-0.4-2.1-0.2-4.3,0.6-6.3c0.8-2,2.2-3.7,4-4.9s3.9-1.8,6-1.8c1.4,0,2.8,0.3,4.2,0.8s2.5,1.3,3.5,2.3
		s1.8,2.2,2.4,3.5C292.2,465.2,292.4,466.6,292.4,468z"/>
	<path class="st0" d="M636.6,436.9H499v103.5h137.7V436.9z"/>
	<path class="st1" d="M499,540.4l48-64.4l29.8,40.2l20.2-21.5l39.6,45.5L499,540.4z"/>
	<path class="st1" d="M589.5,468.2c0,2.1-0.6,4.2-1.8,6c-1.2,1.8-2.9,3.2-4.9,4c-2,0.8-4.2,1-6.3,0.6c-2.1-0.4-4-1.4-5.6-3
		c-1.5-1.5-2.6-3.4-3-5.6c-0.4-2.1-0.2-4.3,0.6-6.3c0.8-2,2.2-3.7,4-4.9c1.8-1.2,3.9-1.8,6-1.8c2.9,0,5.6,1.1,7.7,3.2
		C588.3,462.5,589.5,465.3,589.5,468.2z"/>
	<path class="st1" d="M614.8,416.3c1.3-0.2,2.6-0.3,3.9-0.3c2.4,0,5.7-0.1,9.3-0.1h4l-0.4,0.4c0-2.7,0.1-4.9,0.1-6.6
		c0-0.9,0-1.7,0.2-2.6c0.2,0.8,0.3,1.7,0.2,2.6c0,1.6,0.1,3.9,0.1,6.6v0.4H628c-3.6,0-6.9,0-9.3-0.1
		C617.4,416.6,616.1,416.5,614.8,416.3z"/>
	<path class="st1" d="M580.4,416.3c5.7-0.5,11.5-0.5,17.2,0C591.9,416.8,586.1,416.8,580.4,416.3z"/>
	<path class="st1" d="M546,416.3c5.7-0.5,11.5-0.5,17.2,0C557.5,416.8,551.7,416.8,546,416.3z"/>
	<path class="st1" d="M511.5,416.3c5.7-0.5,11.5-0.5,17.2,0C523,416.8,517.3,416.8,511.5,416.3z"/>
	<path class="st1" d="M477.1,416.3c5.7-0.5,11.5-0.5,17.2,0C488.6,416.8,482.8,416.8,477.1,416.3z"/>
	<path class="st1" d="M442.7,416.3c5.7-0.5,11.5-0.5,17.2,0C454.1,416.8,448.4,416.8,442.7,416.3z"/>
	<path class="st1" d="M408.2,416.3c5.7-0.5,11.5-0.5,17.2,0C419.7,416.8,413.9,416.8,408.2,416.3z"/>
	<path class="st1" d="M373.8,416.3c5.7-0.5,11.5-0.5,17.2,0C385.3,416.8,379.5,416.8,373.8,416.3z"/>
	<path class="st1" d="M339.3,416.3c2.9-0.4,5.7-0.5,8.6-0.4c2.9-0.1,5.8,0,8.6,0.4c-2.9,0.4-5.7,0.5-8.6,0.4
		C345.1,416.8,342.2,416.7,339.3,416.3z"/>
	<path class="st1" d="M304.9,416.3c2.9-0.4,5.7-0.5,8.6-0.4c2.9-0.1,5.8,0,8.6,0.4c-2.9,0.4-5.7,0.5-8.6,0.4
		C310.6,416.8,307.8,416.7,304.9,416.3z"/>
	<path class="st1" d="M270.5,416.3c2.9-0.4,5.7-0.5,8.6-0.4c2.9-0.1,5.8,0,8.6,0.4c-2.9,0.4-5.7,0.5-8.6,0.4
		C276.2,416.8,273.3,416.7,270.5,416.3z"/>
	<path class="st1" d="M236,416.3c2.9-0.4,5.7-0.5,8.6-0.4c2.9-0.1,5.8,0,8.6,0.4c-2.9,0.4-5.7,0.5-8.6,0.4
		C241.8,416.8,238.9,416.7,236,416.3z"/>
	<path class="st1" d="M201.6,416.3c2.9-0.4,5.7-0.5,8.6-0.4c2.9-0.1,5.8,0,8.6,0.4c-2.9,0.4-5.7,0.5-8.6,0.4
		C207.3,416.8,204.5,416.7,201.6,416.3L201.6,416.3z"/>
	<path class="st1" d="M201.6,381.9c0.5,5.7,0.5,11.5,0,17.2C201.1,393.4,201.1,387.6,201.6,381.9z"/>
	<path class="st1" d="M201.6,347.4c0.4,2.9,0.5,5.7,0.4,8.6c0.1,2.9,0,5.8-0.4,8.6c-0.4-2.9-0.5-5.7-0.4-8.6
		C201.1,353.2,201.2,350.3,201.6,347.4z"/>
	<path class="st1" d="M201.6,313c0.4,2.9,0.5,5.7,0.4,8.6c0.1,2.9,0,5.8-0.4,8.6c-0.4-2.9-0.5-5.7-0.4-8.6
		C201.1,318.7,201.2,315.9,201.6,313z"/>
	<path class="st1" d="M231.5,308.4c-2.9,0.4-5.7,0.5-8.6,0.4c-2.9,0.1-5.8,0-8.6-0.4c2.9-0.4,5.7-0.5,8.6-0.4
		C225.7,307.9,228.6,308.1,231.5,308.4z"/>
	<path class="st1" d="M265.9,308.4c-2.9,0.4-5.7,0.5-8.6,0.4c-2.9,0.1-5.8,0-8.6-0.4c2.9-0.4,5.7-0.5,8.6-0.4
		C260.2,307.9,263.1,308.1,265.9,308.4z"/>
	<path class="st1" d="M300.4,308.4c-2.9,0.4-5.7,0.5-8.6,0.4c-2.9,0.1-5.8,0-8.6-0.4c2.9-0.4,5.7-0.5,8.6-0.4
		C294.6,307.9,297.5,308.1,300.4,308.4z"/>
	<path class="st1" d="M334.8,308.4c-2.9,0.4-5.7,0.5-8.6,0.4c-2.9,0.1-5.8,0-8.6-0.4c2.9-0.4,5.7-0.5,8.6-0.4
		C329.1,307.9,331.9,308.1,334.8,308.4z"/>
	<path class="st1" d="M369.2,308.4c-5.7,0.5-11.5,0.5-17.2,0c2.9-0.4,5.7-0.5,8.6-0.4C363.5,307.9,366.4,308.1,369.2,308.4z"/>
	<path class="st1" d="M403.7,308.4c-5.7,0.5-11.5,0.5-17.2,0C392.2,307.9,397.9,307.9,403.7,308.4z"/>
	<path class="st1" d="M438.1,308.4c-5.7,0.5-11.5,0.5-17.2,0C426.6,307.9,432.4,307.9,438.1,308.4z"/>
	<path class="st1" d="M472.6,308.4c-5.7,0.5-11.5,0.5-17.2,0C461.1,307.9,466.8,307.9,472.6,308.4z"/>
	<path class="st1" d="M507,308.4c-5.7,0.5-11.5,0.5-17.2,0C495.5,307.9,501.3,307.9,507,308.4z"/>
	<path class="st1" d="M541.4,308.4c-5.7,0.5-11.5,0.5-17.2,0C529.9,307.9,535.7,307.9,541.4,308.4z"/>
	<path class="st1" d="M575.9,308.4c-5.7,0.5-11.5,0.5-17.2,0C564.4,307.9,570.1,307.9,575.9,308.4z"/>
	<path class="st1" d="M610.3,308.4c-5.7,0.5-11.5,0.5-17.2,0C598.8,307.9,604.6,307.9,610.3,308.4z"/>
	<path class="st1" d="M632.1,321.1c-0.4-2.9-0.5-5.7-0.4-8.6c0-1.4,0-2.8,0-4.1l0.3,0.3c-1.5,0.1-3-0.1-4.5-0.3
		c1.5-0.3,3-0.4,4.5-0.3h0.3v0.3c0,1.3,0,2.6,0,4.1C632.5,315.4,632.4,318.3,632.1,321.1z"/>
	<path class="st1" d="M632.1,355.6c-0.4-2.9-0.5-5.7-0.4-8.6c-0.1-2.9,0-5.8,0.4-8.6c0.4,2.9,0.5,5.7,0.4,8.6
		C632.6,349.8,632.4,352.7,632.1,355.6z"/>
	<path class="st1" d="M632.1,390c-0.5-5.7-0.5-11.5,0-17.2C632.6,378.5,632.6,384.3,632.1,390z"/>
	<path class="st1" d="M480.8,536.6c0,0.2-27.7,0.4-61.8,0.4s-61.8-0.2-61.8-0.4c0-0.2,27.7-0.4,61.8-0.4S480.8,536.4,480.8,536.6z"
		/>
	<path class="st1" d="M480.8,520.7c0,0.2-27.7,0.4-61.8,0.4s-61.8-0.2-61.8-0.4c0-0.2,27.7-0.4,61.8-0.4S480.8,520.5,480.8,520.7z"
		/>
	<path class="st3" d="M102.3,397.6h-7.4v200.5h7.4V397.6z"/>
	<path class="st5" d="M98.6,404.8c23.9,0,43.2-19.4,43.2-43.2c0-23.9-19.4-43.2-43.2-43.2c-23.9,0-43.2,19.4-43.2,43.2
		C55.4,385.4,74.8,404.8,98.6,404.8z"/>
	<path class="st12" d="M137.5,361c0-0.2-0.1-0.4-0.1-0.6c0-0.4,0-1.1-0.1-1.8c0-0.4,0-0.9-0.1-1.4c-0.1-0.5-0.2-1-0.3-1.6
		c-0.2-1.4-0.4-2.7-0.8-4c-0.9-3.6-2.4-7.1-4.3-10.3c-2.6-4.2-5.9-8-9.8-10.9c-5.1-3.9-11.2-6.5-17.6-7.4c-6.4-1-12.9-0.3-19,1.9
		c-1.7,0.6-3.4,1.4-5,2.2c-0.8,0.4-1.6,1-2.4,1.4c-0.8,0.5-1.6,1-2.3,1.6c-1.5,1.1-3,2.4-4.3,3.7c-1.4,1.4-2.6,2.9-3.8,4.5
		c-2.4,3.2-4.2,6.8-5.5,10.6c-1.3,3.9-2,8-2.1,12.2c0.1,4.1,0.7,8.2,2,12.2c1.3,3.8,3.1,7.4,5.5,10.6c1.2,1.6,2.4,3.1,3.8,4.5
		c1.4,1.3,2.8,2.6,4.4,3.7c0.7,0.6,1.5,1.1,2.3,1.6c0.8,0.5,1.6,1,2.4,1.4c1.6,0.9,3.3,1.6,5,2.2c8.4,3.1,17.7,3.1,26.1,0.1
		c8.5-3,15.6-8.9,20.2-16.6c1.9-3.2,3.4-6.7,4.3-10.3c0.4-1.3,0.6-2.7,0.8-4c0.1-0.6,0.2-1.1,0.3-1.6c0.1-0.5,0-0.9,0.1-1.3
		c0.1-0.8,0.1-1.4,0.1-1.8C137.5,361.4,137.5,361.2,137.5,361c0,0.2,0,0.4,0,0.6c0,0.5,0,1.1,0,1.8c0,0.4,0,0.9,0,1.4
		c0,0.5-0.1,1-0.2,1.6c-0.2,1.4-0.4,2.7-0.8,4c-0.9,3.7-2.3,7.2-4.3,10.4c-2.8,4.8-6.6,8.9-11.2,12.1c-4.5,3.2-9.7,5.4-15.2,6.4
		c-6.9,1.3-14,0.7-20.6-1.7c-1.8-0.6-3.5-1.4-5.1-2.2c-0.8-0.4-1.6-1-2.4-1.4c-0.8-0.5-1.6-1.1-2.4-1.7c-1.6-1.2-3.1-2.4-4.5-3.8
		c-1.4-1.4-2.7-2.9-3.9-4.5c-2.4-3.3-4.3-6.9-5.6-10.8c-2.7-8-2.7-16.8,0-24.8c1.3-3.9,3.2-7.5,5.6-10.8c1.2-1.6,2.5-3.1,3.9-4.5
		c1.4-1.4,2.9-2.7,4.5-3.8c0.7-0.6,1.5-1.1,2.4-1.6c0.8-0.5,1.6-1,2.4-1.4c1.7-0.9,3.4-1.6,5.1-2.2c6.6-2.4,13.7-3,20.6-1.7
		c5.5,1,10.6,3.2,15.2,6.4c4.5,3.2,8.4,7.3,11.2,12.1c2,3.2,3.4,6.8,4.3,10.4c0.4,1.3,0.6,2.7,0.8,4c0.1,0.6,0.2,1.1,0.2,1.6
		c0,0.5,0,0.9,0,1.4c0,0.8,0,1.4,0,1.9C137.5,360.6,137.5,360.8,137.5,361z"/>
	<path class="st8" d="M121.1,356.1h-45v9.4h45V356.1z"/>
	<path class="st12" d="M678.1,306.1l-421,33.8l9.8,122.2l421-33.8L678.1,306.1z"/>
	<path class="st3" d="M687.9,428.3c-0.1-1.8-3.7-45.2-10-122.2l0.2,0.2l-421,34l0.3-0.4c3.4,42.2,6.7,83.2,9.8,122.2l-0.4-0.3
		l300.9-24L687.9,428.3l-2.1,0.2l-6.1,0.5l-23.6,1.9l-88.1,7.2L267,462.5h-0.4v-0.4c-3.1-39-6.4-80-9.8-122.2v-0.4h0.4l420.9-33.7
		h0.2v0.2C684.4,383.1,687.8,426.5,687.9,428.3z"/>
	<path class="st5" d="M401.6,343.1l-132.9,9.3l7,99.9l132.9-9.3L401.6,343.1z"/>
	<path class="st1" d="M566.8,428.2c-2.8,0.6-5.7,1-8.6,1.1l-0.4-0.3v-0.4v-0.4c0-0.3,0-0.6,0-0.9c0-0.5-0.1-1.1-0.1-1.6
		c0-0.9-0.1-1.9-0.2-2.7c-0.1-0.8-0.1-1.7,0-2.5c0.3,0.8,0.4,1.6,0.5,2.5c0.1,0.9,0.2,1.8,0.3,2.7c0,0.5,0.1,1.1,0.1,1.6l0.1,0.8
		v0.4v0.4l-0.4-0.3C561,428.2,563.9,428.1,566.8,428.2z"/>
	<path class="st1" d="M605.8,425c-3.2,0.6-6.4,1-9.7,1.2c-3.2,0.4-6.5,0.6-9.8,0.4c3.2-0.6,6.4-1,9.7-1.2
		C599.2,425,602.5,424.9,605.8,425z"/>
	<path class="st1" d="M644.7,421.7c-3.2,0.6-6.4,1-9.7,1.2c-3.2,0.4-6.5,0.5-9.8,0.4c3.2-0.6,6.4-1,9.7-1.2
		C638.1,421.7,641.4,421.6,644.7,421.7z"/>
	<path class="st1" d="M672,410.7c0.6,2.8,1,5.7,1.1,8.5c-0.7,0.8-0.2,0.2-0.3,0.4h-0.4h-0.4H671l-1.6,0.1l-2.7,0.2
		c-0.8,0.1-1.7,0.1-2.5,0c0.8-0.3,1.6-0.4,2.5-0.5l2.7-0.3l1.6-0.2l0.9-0.1h0.4h0.4c-0.1,0.2,0.3-0.4-0.3,0.4
		C672,416.5,671.9,413.6,672,410.7z"/>
	<path class="st1" d="M669.3,378.6c1,5.3,1.5,10.7,1.4,16.1c-0.6-2.6-0.9-5.3-1-8C669.3,384,669.2,381.3,669.3,378.6z"/>
	<path class="st1" d="M666.6,346.5c0.6,2.6,1,5.3,1.1,8c0.3,2.7,0.4,5.4,0.3,8.1c-0.6-2.6-1-5.3-1-8
		C666.5,351.9,666.4,349.2,666.6,346.5z"/>
	<path class="st1" d="M655.9,322.6c2.8-0.6,5.7-1,8.6-1.1l0.4,0.3v0.4v0.4c0,0.3,0,0.6,0,0.9c0,0.5,0.1,1.1,0.1,1.6
		c0,0.9,0.1,1.9,0.1,2.7c0.1,0.8,0.1,1.7,0,2.5c-0.3-0.8-0.4-1.6-0.5-2.5c-0.1-0.9-0.2-1.8-0.3-2.7c0-0.5-0.1-1.1-0.2-1.6l-0.1-0.8
		v-0.4v-0.4l0.4,0.3C661.7,322.6,658.8,322.7,655.9,322.6z"/>
	<path class="st1" d="M617,325.9c3.2-0.6,6.4-1,9.7-1.2c3.2-0.4,6.5-0.6,9.8-0.4c-3.2,0.6-6.4,1-9.7,1.2
		C623.5,325.8,620.2,326,617,325.9z"/>
	<path class="st1" d="M578,329.1c3.2-0.6,6.4-1,9.7-1.2c3.2-0.4,6.5-0.5,9.8-0.4c-3.2,0.6-6.5,1-9.7,1.2
		C584.5,329.1,581.3,329.2,578,329.1z"/>
	<path class="st1" d="M550.7,340.1c-0.6-2.8-1-5.7-1.1-8.5c0.7-0.8,0.2-0.2,0.3-0.4h0.4h0.4l0.8-0.1l1.6-0.1l2.7-0.2
		c0.8-0.1,1.7-0.1,2.5,0c-0.8,0.3-1.6,0.4-2.5,0.5l-2.7,0.3l-1.6,0.2l-0.8,0.1h-0.4H550l0.3-0.4
		C550.7,334.3,550.8,337.2,550.7,340.1z"/>
	<path class="st1" d="M553.4,372.2c-0.6-2.6-0.9-5.3-1-8c-0.4-2.7-0.5-5.4-0.3-8.1c0.6,2.6,0.9,5.3,1,8
		C553.5,366.8,553.6,369.5,553.4,372.2z"/>
	<path class="st1" d="M556.1,404.3c-0.6-2.6-0.9-5.3-1-8c-0.4-2.7-0.5-5.4-0.3-8.1c0.6,2.6,0.9,5.3,1,8
		C556.2,398.9,556.3,401.6,556.1,404.3z"/>
	<path class="st5" d="M275.3,450.7l41.9-65.2l31.5,36.7l18-22.1l41.3,41.2L275.3,450.7z"/>
	<path class="st5" d="M357.5,374.9c0.1,2.1-0.3,4.1-1.3,5.9c-1,1.8-2.6,3.3-4.4,4.2c-1.9,0.9-3.9,1.3-6,1c-2.1-0.3-4-1.1-5.6-2.5
		c-1.6-1.4-2.7-3.1-3.2-5.1c-0.5-2-0.5-4.1,0.2-6.1c0.7-2,1.9-3.7,3.5-5c1.6-1.3,3.6-2,5.7-2.2c2.8-0.2,5.5,0.7,7.6,2.5
		C356,369.6,357.3,372.2,357.5,374.9z"/>
	<g class="st13">
		<path d="M275.3,450.7l41.9-65.2l31.5,36.7l18-22.1l41.3,41.2L275.3,450.7z"/>
	</g>
	<g class="st13">
		<path d="M357.5,374.9c0.1,2.1-0.3,4.1-1.3,5.9c-1,1.8-2.6,3.3-4.4,4.2c-1.9,0.9-3.9,1.3-6,1c-2.1-0.3-4-1.1-5.6-2.5
			c-1.6-1.4-2.7-3.1-3.2-5.1c-0.5-2-0.5-4.1,0.2-6.1c0.7-2,1.9-3.7,3.5-5c1.6-1.3,3.6-2,5.7-2.2c2.8-0.2,5.5,0.7,7.6,2.5
			C356,369.6,357.3,372.2,357.5,374.9z"/>
	</g>
	<path class="st3" d="M539.1,358.7c0,0.2-25.8,2.8-57.6,5.7c-31.8,3-57.6,5.2-57.7,4.9c0-0.2,25.8-2.7,57.6-5.7
		C513.2,360.7,539.1,358.5,539.1,358.7z"/>
	<path class="st3" d="M542.4,377.9c0,0.2-26.1,2.8-58.2,5.7c-32.2,3-58.3,5.2-58.3,5c0-0.2,26-2.8,58.2-5.7S542.4,377.7,542.4,377.9
		z"/>
	<path class="st3" d="M545.7,397.1c0,0.2-26.3,2.8-58.8,5.7c-32.5,2.9-58.8,5.3-58.8,5.1c0-0.2,26.3-2.8,58.8-5.8
		C519.4,399.1,545.7,396.9,545.7,397.1z"/>
	<path class="st3" d="M546.4,416.1c0,0.2-26.4,2.9-58.9,5.8c-32.5,3-59,5.3-59,5.1c0-0.2,26.4-2.9,58.9-5.8
		C520,418.2,546.4,415.9,546.4,416.1z"/>
	<path class="st5" d="M481.9,346.1l-60.7,4.9l0.4,4.8l60.7-4.9L481.9,346.1z"/>
	<path class="st1" d="M612.7,390.4c-0.2,0-1-7.1-1.8-15.8c-0.8-8.7-1.2-15.9-1-15.9c0.2,0,1,7.1,1.7,15.8
		C612.4,383.3,612.9,390.4,612.7,390.4z"/>
	<path class="st1" d="M625.9,373.8c0,0.2-6.8,0.8-15.2,1.3c-8.4,0.5-15.3,0.8-15.3,0.6c5-0.7,10.1-1.2,15.2-1.3
		C619.1,373.9,625.9,373.6,625.9,373.8z"/>
	<path class="st3" d="M678.1,306.1c0,0-0.3-0.1-1-0.4l-2.9-1.1l-11.3-4.4l-41.8-16.4l-139.6-55h0.3l-17.7,8.8l-146.4,72.5L273.4,332
		l-12.1,5.9l-3.2,1.5c-0.7,0.3-1.1,0.5-1.1,0.5l1-0.6l3.1-1.6l12-6l44.3-22.1l146.2-72.7l17.7-8.8h0.1h0.2l139.5,55.2l41.6,16.6
		l11.2,4.5l2.9,1.2L678.1,306.1z"/>
	<path class="st3" d="M592.4,105.6c-0.8-1.7-2-3.1-3.5-4.1c-1.5-1-3.3-1.5-5.2-1.5c-1.8,0-3.6,0.5-5.2,1.5c-1.6,1-2.8,2.4-3.6,4
		l-15,1.2l15.2,29.9l9.5-17.5c1-0.1,2.1-0.4,3-0.8c1.1-0.5,2.2-1.3,3-2.2c0.9-0.9,1.5-2,2-3.2c0.4-1.2,0.6-2.4,0.6-3.7
		C593.2,107.9,592.9,106.7,592.4,105.6z"/>
	<path class="st3" d="M505.8,62.3l9.8-4.2L492,52.2c-1-1.6-2.6-2.9-4.3-3.7c-1.8-0.8-3.7-1-5.6-0.6c-1.9,0.4-3.6,1.3-5,2.7
		s-2.2,3.1-2.6,5.1c-0.3,1.9-0.1,3.9,0.7,5.6c0.8,1.8,2.1,3.2,3.8,4.2c1.7,1,3.6,1.5,5.5,1.4c1.9-0.1,3.8-0.8,5.3-2l22.4,13.7
		L505.8,62.3z"/>
	<path class="st3" d="M694.7,355.7v-0.2l-162-302l-0.9-1.7l-25.5,11.6l122.2,321.9l0.1,0.2l72.8,115.6l1.4-0.2l1.7-0.2l1.3-0.2
		l-15.1-23.9l8.8-22.7l23.3,8.6l10.3,33.9l1.2-0.2l1.5-0.2l1.4-0.2L694.7,355.7z M705.2,404.6l-29.1-7.5l16.9-32.9L705.2,404.6z
		 M673.6,396.5l-35.8-9.2l52.8-24L673.6,396.5z M687.1,350l-37.2-10.3l15.2-30.6L687.1,350z M647.4,339.1l-32.7-9l48.1-21.9
		L647.4,339.1z M660.6,300.7l-34.2-11.9l12.2-29.1L660.6,300.7z M624,287.9l-30.1-10.5l42.6-19.4L624,287.9z M633.8,250.6
		l-31.2-13.5l9.2-27.4L633.8,250.6z M600.2,236.1l-26.7-11.5l36.1-16.4L600.2,236.1z M607.4,201.4l-0.2,0.1l-28-15.2l6.2-25.9
		L607.4,201.4z M579.8,149.9l-24.4-16.4l3.2-23.1L579.8,149.9z M552.9,131.9l-19.6-13.2l23-10.5L552.9,131.9z M532.1,61.1l20.8,38.7
		l-21.3-18L532.1,61.1z M528.1,109.3l-15.1-39.6L528.9,83L528.1,109.3z M529,79.7L512,65.4l17.6-8L529,79.7z M531.4,85.1l20.5,17.2
		l-21.3,9.7L531.4,85.1z M532.8,121.5l19.8,13.3l-4,28.4L532.8,121.5z M554.9,136.4l23.8,16L550.9,165L554.9,136.4z M583.3,158
		l-6.5,27L552.7,172L583.3,158z M553.2,175.2l23,12.5l-7.1,29.6L553.2,175.2z M578.6,188.9l25.7,13.9l-32.6,14.8L578.6,188.9z
		 M572.8,227.1l26.6,11.5l-10.4,31L572.8,227.1z M601.8,239.6l29.8,12.9l-40.3,18.3L601.8,239.6z M592.8,279.8l30.1,10.5L609.2,323
		L592.8,279.8z M625.4,291.1l32.6,11.4l-46.2,21L625.4,291.1z M612.7,332.2l33.5,9.3l-17,34.2L612.7,332.2z M648.8,342.1l36.5,10
		l-53.7,24.4L648.8,342.1z M635.9,389.5l36.6,9.4l-13.8,26.9L635.9,389.5z M675,399.5l29.7,7.6l-44.1,20.1L675,399.5z M689.1,474
		l-19.5-31.1l27.6,10.2L689.1,474z M698.1,450.8l-30.8-11.5l-0.8-1.2l43-19.6l0.4,1.4L698.1,450.8z M700.5,451.7l10.6-27.5
		l10.7,35.5L700.5,451.7z"/>
	<path class="st3" d="M481.4,196.4c0,0,0-0.9,0-2.6c0-1.7,0-4.2,0-7.5c0-6.6,0-16.2-0.1-28.6c0-24.7-0.1-60.3-0.1-103.7v-0.3h0.3
		l45.4-4.8h0.2l0.1,0.1l118.3,132.2l172.2,192.7l52.2,58.4l14.1,15.9l3.7,4.1c0.8,0.9,1.2,1.4,1.2,1.4s-0.4-0.5-1.3-1.4
		c-0.8-1-2.1-2.3-3.7-4.1c-3.3-3.6-8.1-9-14.2-15.8l-52.3-58.3L644.9,181.8L526.7,49.6l0.3,0.1l-45.5,4.7l0.3-0.3
		c0,43.5-0.1,79-0.1,103.7c0,12.4,0,22,0,28.6c0,3.3,0,5.7,0,7.5C481.6,195.6,481.4,196.4,481.4,196.4z"/>
	<path class="st3" d="M484,155.8h-6.2c-0.3,0-0.5,0.2-0.5,0.5v14.5c0,0.3,0.2,0.5,0.5,0.5h6.2c0.3,0,0.5-0.2,0.5-0.5v-14.5
		C484.6,156.1,484.3,155.8,484,155.8z"/>
	<path class="st3" d="M493.3,173.8h-23.8c-0.7,0-1.4-0.3-1.9-0.8c-0.5-0.5-0.8-1.2-0.8-1.9c0-0.7,0.3-1.4,0.8-1.9
		c0.5-0.5,1.2-0.8,1.9-0.8h23.8c0.7,0,1.4,0.3,1.9,0.8c0.5,0.5,0.8,1.2,0.8,1.9c0,0.3-0.1,0.7-0.2,1c-0.1,0.3-0.3,0.6-0.6,0.9
		c-0.2,0.2-0.5,0.4-0.9,0.6C494,173.8,493.6,173.8,493.3,173.8z"/>
	<path class="st3" d="M483.1,216.5l-0.1-3.4l-3.5,1.5c-0.1,1.3-0.1,2.5,0,3.8c0,0.2,0,0.4,0.1,0.6c0.2,0.3,0.5,0.5,0.9,0.6
		c1.5,0.6,2.8,1.7,3.6,3.2c0.3,0.5,0.4,1.1,0.4,1.7c0,0.6-0.1,1.2-0.3,1.7c-0.2,0.5-0.6,1-1,1.4c-0.4,0.4-0.9,0.7-1.5,0.9
		c-1.1,0.3-2.3,0.2-3.3-0.3c-1-0.5-1.8-1.5-2.1-2.5c0-0.6,0-1.4-0.8-1.4c-1.2-0.1-1.7,1.6-1.6,2.5c0.2,5.2,5,6.8,7.1,6.9
		c1.4,0.1,2.8-0.2,4-0.9c1-0.6,1.8-1.3,2.5-2.2c0.6-0.9,1.1-2,1.3-3.1C489.9,220.5,482.7,216.9,483.1,216.5z"/>
	<path class="st1" d="M486.1,214.8l15.2-36.7c0.3-0.8,0.4-1.6,0.4-2.4c-0.1-0.8-0.4-1.6-0.8-2.3c-0.5-0.7-1.1-1.3-1.8-1.6
		c-0.7-0.4-1.5-0.6-2.4-0.6h-30.5c-0.8,0-1.6,0.2-2.4,0.6c-0.7,0.4-1.4,1-1.8,1.6c-0.5,0.7-0.7,1.5-0.8,2.3c-0.1,0.8,0,1.7,0.4,2.4
		l15.2,36.7c0.4,0.9,1,1.7,1.9,2.3c0.8,0.6,1.8,0.8,2.8,0.8c1,0,2-0.3,2.8-0.8C485.1,216.5,485.7,215.7,486.1,214.8z"/>
	<path class="st5" d="M467.8,173.7l-3.9,3.9c0,0.1,0,0.3,0.1,0.4l1.3,3.1l7.5-7.5H467.8z"/>
	<path class="st5" d="M482.5,173.7h-4.9l-10.9,10.9l1.4,3.5L482.5,173.7z"/>
	<path class="st5" d="M493,192.7l3.5-8.4l-21.2,21.2l1.4,3.5L493,192.7z"/>
	<path class="st5" d="M489.5,201.1l-11.3,11.3l0.4,0.9c0.2,0.4,0.4,0.8,0.7,1.1c0.3,0.3,0.7,0.5,1.1,0.7l5.6-5.6L489.5,201.1z"/>
	<path class="st5" d="M492.3,173.7h-4.9l-17.9,17.9l1.4,3.5L492.3,173.7z"/>
	<path class="st5" d="M499.2,176.6c0-0.6-0.3-1.2-0.7-1.7c-0.4-0.5-0.9-0.8-1.6-1l-24.7,24.6l1.4,3.5L499.2,176.6z"/>
	<path class="st3" d="M873.8,446.1h25.6c1,0,2,0.4,2.7,1.1c0.7,0.7,1.1,1.7,1.1,2.7v11.7H870v-11.7c0-0.5,0.1-1,0.3-1.5
		c0.2-0.5,0.5-0.9,0.8-1.2c0.4-0.4,0.8-0.6,1.2-0.8C872.8,446.2,873.3,446.1,873.8,446.1z"/>
	<path class="st3" d="M812,457.8h-5.4v-32.3c0-1.4,0.2-2.9,0.7-4.2l2.7-8.5c0,0,0-0.1,0.1-0.1c0,0,0.1,0,0.1,0c0,0,0.1,0,0.1,0
		c0,0,0.1,0,0.1,0.1l3.2,5.7l-0.8,2.6c-0.4,1.4-0.7,2.8-0.7,4.3V457.8z"/>
	<path class="st5" d="M946.1,463.6c-0.8-1.8-2-3.5-3.5-4.7c-1.6-1.3-3.4-2.1-5.4-2.4l-136-0.1v-22.6c0-0.7-0.1-1.4-0.4-2.1
		c-0.3-0.7-0.7-1.3-1.2-1.8c-0.5-0.5-1.1-0.9-1.8-1.2c-0.7-0.3-1.4-0.4-2.1-0.4h-65.7c-1.2,0-2.3,0.4-3.2,1.1
		c-0.9,0.7-1.6,1.7-2,2.8l-2,6.2h7.3c0.8,0,1.7,0.2,2.4,0.5c0.8,0.4,1.4,0.9,2,1.5c0.5,0.6,0.9,1.4,1.1,2.2c0.2,0.8,0.2,1.6,0,2.4
		l-7,33.4c-0.3,1.2-1,2.4-2,3.2c-1,0.8-2.3,1.2-3.5,1.2h-14c-0.2,2.1-0.1,4.3,0.4,6.4l0.8,3.3l-36,7.1c-0.3,0.1-0.5,0.2-0.8,0.4
		c-0.2,0.2-0.4,0.5-0.4,0.7l-3.4,9.1c-0.2,0.4-0.4,0.9-0.5,1.3c-0.7,3-0.2,8,1.6,8h38.6l-1.6,2l-2.2,6.8h244.9
		C950.5,505.9,949.9,472.9,946.1,463.6z M776.3,442.9l-3.6,32.8c0,0.4-0.1,0.8-0.2,1.2c-0.7,3.2-2.6,6.1-5.2,8.2
		c-2.6,2.1-5.9,3.1-9.2,3.1H742c-0.7,0-1.5-0.2-2.1-0.5c-0.7-0.3-1.3-0.8-1.7-1.4c-0.5-0.6-0.8-1.3-1-2c-0.2-0.7-0.2-1.5,0-2.2
		l7.6-39.4c0.3-1.2,0.9-2.4,1.9-3.2c1-0.8,2.2-1.2,3.5-1.2h22.1c0.6,0,1.2,0.1,1.7,0.4c0.5,0.2,1,0.6,1.4,1s0.7,0.9,0.9,1.5
		C776.4,441.9,776.4,442.5,776.3,442.9L776.3,442.9z"/>
	<path class="st4" d="M836.5,544.1l-104.2,1.4c-0.7,0-1.9-2-1.9-2.7v-11.6c0-0.3,0.1-0.6,0.4-0.9c0.2-0.2,0.5-0.4,0.9-0.4h104.9
		c0.2,0,0.3,0,0.5,0.1c0.1,0.1,0.3,0.2,0.4,0.3c0.1,0.1,0.2,0.3,0.3,0.4c0.1,0.2,0.1,0.3,0.1,0.5v11.6c0,0.2,0,0.3-0.1,0.5
		c-0.1,0.2-0.1,0.3-0.3,0.4c-0.1,0.1-0.2,0.2-0.4,0.3C836.8,544.1,836.7,544.1,836.5,544.1z"/>
	<path class="st5" d="M776.3,442.9l-3.6,32.8c0,0.4-0.1,0.8-0.2,1.2c-0.7,3.2-2.5,6.2-5.2,8.2c-2.6,2.1-5.9,3.1-9.2,3.1H742
		c-0.7,0-1.5-0.2-2.1-0.5c-0.7-0.3-1.3-0.8-1.7-1.4c-0.5-0.6-0.8-1.3-1-2c-0.2-0.7-0.2-1.5,0-2.2l7.6-39.4c0.3-1.2,0.9-2.4,1.9-3.2
		c1-0.8,2.2-1.2,3.5-1.3h22.1c0.6,0,1.2,0.1,1.7,0.4c0.5,0.2,1,0.6,1.4,1c0.4,0.4,0.7,0.9,0.9,1.5
		C776.4,441.9,776.4,442.4,776.3,442.9L776.3,442.9z"/>
	<g>
		<path class="st5" d="M950.5,530.6c0.1-0.9,0-1.8-0.3-2.6H705.8c-0.3,0.8-0.4,1.7-0.3,2.6H950.5z"/>
	</g>
	<path class="st5" d="M724.7,432.1L710,477.8c-1.2,3.6-1.4,7.5-0.6,11.3l6.3,29.2h85.5v-84.5c0-1.5-0.6-2.9-1.6-3.9
		c-1-1-2.4-1.6-3.9-1.6h-65.7c-1.2,0-2.3,0.4-3.2,1.1C725.7,430,725,431,724.7,432.1z"/>
	<path class="st4" d="M742,488.2c-0.7,0-1.5-0.2-2.1-0.5c-0.7-0.3-1.3-0.8-1.7-1.4c-0.5-0.6-0.8-1.3-1-2c-0.2-0.7-0.2-1.5,0-2.2
		l7.6-39.4c0.3-1.2,0.9-2.4,1.9-3.2c1-0.8,2.2-1.2,3.5-1.2h22.1c0.6,0,1.2,0.1,1.7,0.4c0.5,0.2,1,0.6,1.4,1.1
		c0.4,0.4,0.7,0.9,0.9,1.5c0.2,0.6,0.2,1.1,0.2,1.7l-3.7,32.8c0,0.4-0.1,0.8-0.2,1.2c-0.7,3.2-2.6,6.1-5.2,8.2
		c-2.6,2.1-5.9,3.1-9.2,3.1L742,488.2z"/>
	<path class="st4" d="M709,482.8c0.1-1.6,0.5-3.2,1-4.7l12.8-39.7h7.3c0.8,0,1.7,0.2,2.4,0.5c0.8,0.3,1.4,0.9,2,1.5
		c0.5,0.6,0.9,1.4,1.1,2.2c0.2,0.8,0.2,1.6,0.1,2.4l-7,33.3c-0.3,1.2-1,2.4-2,3.2c-1,0.8-2.2,1.2-3.5,1.3H709z"/>
	<path class="st3" d="M950.6,534.3H705.7c-1.9,0-1.9-6.8,0-6.8h244.9C952.5,527.5,952.5,534.3,950.6,534.3z"/>
	<path class="st3" d="M801.4,458.2c0,0,0,0.1,0,0.4v1.1c0,1,0,2.4-0.1,4.1c-0.1,3.6-0.3,8.7-0.5,15c-0.2,6.3-0.5,13.9-0.8,22.2
		c-0.1,2.1-0.2,4.3-0.2,6.4c0,2.3-0.5,4.6-1.4,6.7c-0.6,1.1-1.4,2-2.4,2.7c-1,0.7-2.1,1.3-3.3,1.6c-2.3,0.6-4.8,0.9-7.2,0.9
		l-49.5-0.9l-15-0.4l-4.1-0.1h-1.1c-0.1,0-0.2,0-0.4,0c0.1,0,0.2,0,0.4,0h5.1l15,0.1l49.5,0.7c2.4,0.1,4.7-0.2,7-0.8
		c1.1-0.3,2.1-0.7,3-1.4c0.9-0.7,1.6-1.5,2.2-2.5c1-2,1.4-4.1,1.4-6.3c0.1-2.2,0.2-4.3,0.3-6.4c0.3-8.4,0.7-15.9,0.9-22.2
		c0.3-6.3,0.5-11.4,0.7-15c0.1-1.7,0.2-3.1,0.2-4.1c0-0.4,0-0.8,0.1-1C801.3,458.6,801.3,458.4,801.4,458.2z"/>
	<path class="st3" d="M731.6,518.7c-0.2,0-0.4-7.2-0.4-16c0-8.9,0.2-16,0.4-16s0.4,7.2,0.4,16S731.8,518.7,731.6,518.7z"/>
	<path class="st3" d="M744.4,428.6c0,0.8-0.1,1.5-0.3,2.3c-0.2,1.4-0.6,3.6-1,6.3c-0.9,5.3-2.4,12.6-4.1,20.5
		c-1.8,8-3.6,15.2-5,20.3c-0.7,2.6-1.3,4.7-1.7,6.1c-0.2,0.8-0.4,1.5-0.7,2.2c0.1-0.8,0.3-1.5,0.5-2.3c0.4-1.6,0.9-3.7,1.5-6.2
		c1.3-5.2,3-12.4,4.8-20.4c1.8-8,3.3-15.2,4.3-20.5l1.3-6.2C743.9,430,744.1,429.3,744.4,428.6z"/>
	<path class="st5" d="M772.7,501.2c0.5-0.1,0.9-0.3,1.3-0.5c0.4-0.3,0.8-0.8,0.9-1.3c0.2-0.7,0.1-1.4-0.3-2.1
		c-0.2-0.4-0.5-0.7-0.9-0.9c-0.4-0.2-0.8-0.3-1.2-0.3h-3.3h-7.4c-0.6,0-1.1,0.2-1.5,0.6c-0.4,0.4-0.7,0.9-0.7,1.4
		c-0.1,0.5,0,1,0.3,1.5c0.3,0.5,0.7,0.8,1.2,1c0.2,0.1,0.5,0.1,0.7,0.1h2.4h2.9c1.7,0,3.1,0.1,4.1,0.1c0.5,0,1,0,1.5,0.1
		c-0.5,0.1-1,0.2-1.5,0.1c-1,0-2.4,0.1-4.1,0.1h-2.9h-2.4c-0.3,0-0.6,0-0.9-0.1c-0.6-0.2-1.2-0.7-1.5-1.3c-0.4-0.6-0.5-1.3-0.4-1.9
		c0-0.7,0.4-1.4,0.9-1.9c0.5-0.5,1.2-0.8,2-0.8h7.4h3.3c0.5,0,1,0.1,1.5,0.4c0.5,0.3,0.8,0.6,1.1,1.1c0.2,0.4,0.3,0.8,0.3,1.3
		c0,0.4,0,0.8-0.1,1.2c-0.2,0.6-0.6,1.1-1.2,1.4c-0.3,0.2-0.7,0.3-1.1,0.4C772.9,501.3,772.7,501.2,772.7,501.2z"/>
	<path class="st3" d="M934.5,466c0,0.2-10,0.4-22.4,0.4c-12.3,0-22.4-0.2-22.4-0.4c0-0.2,10-0.4,22.4-0.4
		C924.5,465.6,934.5,465.8,934.5,466z"/>
	<path class="st3" d="M934.5,470.5c0,0.2-10,0.4-22.4,0.4c-12.3,0-22.4-0.2-22.4-0.4c0-0.2,10-0.4,22.4-0.4
		C924.5,470.1,934.5,470.3,934.5,470.5z"/>
	<path class="st3" d="M934.5,474.9c0,0.2-10,0.4-22.4,0.4c-12.3,0-22.4-0.2-22.4-0.4c0-0.2,10-0.4,22.4-0.4
		C924.5,474.6,934.5,474.7,934.5,474.9z"/>
	<path class="st3" d="M934.5,479.4c0,0.2-10,0.4-22.4,0.4c-12.3,0-22.4-0.2-22.4-0.4c0-0.2,10-0.4,22.4-0.4
		C924.5,479,934.5,479.2,934.5,479.4z"/>
	<path class="st3" d="M934.5,483.8c0,0.2-10,0.4-22.4,0.4c-12.3,0-22.4-0.2-22.4-0.4c0-0.2,10-0.4,22.4-0.4
		C924.5,483.5,934.5,483.6,934.5,483.8z"/>
	<path class="st3" d="M934.5,488.3c0,0.2-10,0.4-22.4,0.4c-12.3,0-22.4-0.2-22.4-0.4c0-0.2,10-0.4,22.4-0.4
		C924.5,487.9,934.5,488.1,934.5,488.3z"/>
	<path class="st3" d="M934.5,492.7c0,0.2-10,0.4-22.4,0.4c-12.3,0-22.4-0.2-22.4-0.4c0-0.2,10-0.4,22.4-0.4
		C924.5,492.3,934.5,492.5,934.5,492.7z"/>
	<path class="st3" d="M680.7,598.4c-13.4,0-24.7-12.9-24.7-26.4c0-13.5,11.8-24.7,25.2-24.7l216.1-9.8c5.5-0.3,10.9,1,15.7,3.6
		c4.8,2.7,8.7,6.7,11.4,11.5c3.2,6.2,4.1,13.3,2.4,20c-5.7,26.1-27.4,25.8-35.9,25.2C882.5,597.3,680.7,598.4,680.7,598.4z"/>
	<path class="st4" d="M680.7,592.1c11.2,0,20.2-9,20.2-20.2c0-11.1-9-20.2-20.2-20.2c-11.2,0-20.2,9-20.2,20.2
		C660.5,583,669.5,592.1,680.7,592.1z"/>
	<path class="st4" d="M896,593.9c14.4,0,26.1-11.7,26.1-26.1c0-14.4-11.7-26.1-26.1-26.1s-26.1,11.7-26.1,26.1
		C869.9,582.2,881.6,593.9,896,593.9z"/>
	<path class="st4" d="M898.9,542.5l-0.6,0.1l-1.7,0.2l-6.3,0.6c-5.5,0.5-13.5,1.3-23.4,2.1c-19.7,1.6-47.1,3.5-77.3,4.8
		c-30.2,1.3-57.6,1.9-77.5,2c-9.9,0-17.9,0-23.5,0l-6.4-0.1h-1.7c-0.2,0-0.4,0-0.6,0h0.6h1.7h6.4l23.5-0.2
		c19.8-0.3,47.2-0.9,77.4-2.2c30.2-1.3,57.5-3.1,77.3-4.6l23.4-1.8l6.4-0.5l1.7-0.1C898.5,542.6,898.7,542.5,898.9,542.5z"/>
	<path class="st4" d="M890.6,591.4c0,0.2-47,0.4-105,0.4c-58,0-105-0.2-105-0.4s47-0.4,105-0.4C843.6,591,890.6,591.2,890.6,591.4z"
		/>
	<path class="st5" d="M716.7,517.9c-0.6-1.7-1-3.4-1.4-5.1c-0.9-3.1-2.2-7.5-3.4-12.3c-1.2-4.1-2.1-8.3-2.7-12.5
		c-0.2-1.3-0.2-2.6-0.2-3.9c0-0.5,0.1-1,0.2-1.4c0.1,0,0,2,0.6,5.2c0.6,3.2,1.6,7.6,2.9,12.4c1.3,4.8,2.5,9.2,3.2,12.4
		c0.4,1.6,0.7,2.9,0.8,3.8C716.7,517,716.7,517.5,716.7,517.9z"/>
	<path class="st8" d="M881.6,583.9c-0.5-0.3-1.1-0.6-1.5-1c-1.3-1-2.4-2.2-3.4-3.5c-1.4-2-2.5-4.2-3.1-6.6c-0.8-2.9-1-5.9-0.4-8.9
		c0.6-3,1.8-5.7,3.7-8.1c1.5-1.9,3.3-3.6,5.4-4.9c1.4-0.9,2.9-1.6,4.5-2c0.6-0.2,1.2-0.3,1.8-0.4c-2.1,0.7-4.1,1.7-5.9,2.9
		c-2,1.3-3.7,3-5.1,4.9c-1.8,2.3-3,5-3.5,7.8c-0.6,2.8-0.4,5.8,0.3,8.6c0.6,2.3,1.5,4.5,2.9,6.4
		C878.4,580.9,879.9,582.5,881.6,583.9z"/>
	<path class="st12" d="M768.2,461.2c-3.6,3.1-7.3,5.9-11.2,8.6c-3.7,2.9-7.6,5.5-11.7,8c3.6-3.1,7.3-5.9,11.2-8.6
		C760.2,466.3,764.1,463.6,768.2,461.2z"/>
	<path class="st12" d="M769.9,455.1c-3.1,2.6-6.4,5.1-9.8,7.3c-3.3,2.4-6.7,4.7-10.2,6.7c3.1-2.6,6.4-5.1,9.8-7.3
		C762.9,459.3,766.3,457.1,769.9,455.1z"/>
	<path class="st12" d="M727.7,464.5c-1.5,1.5-3.1,2.8-5,3.9c-1.7,1.3-3.5,2.4-5.4,3.3c1.5-1.5,3.2-2.8,5-3.9
		C724,466.5,725.8,465.4,727.7,464.5z"/>
	<path class="st12" d="M730.7,458.8c-3.6,3.4-7.6,6.5-11.8,9.1C722.5,464.5,726.5,461.4,730.7,458.8z"/>
	<path class="st5" d="M775.7,493.7c-5.3,0.5-10.7,0.5-16,0C765,493.2,770.4,493.2,775.7,493.7z"/>
	<path class="st8" d="M676.7,589c-0.6,0-1.2-0.2-1.8-0.4c-1.6-0.5-3.1-1.2-4.4-2.2c-2-1.4-3.7-3.2-5.1-5.2c-1.7-2.5-2.7-5.4-2.9-8.4
		c-0.2-3,0.4-6.1,1.7-8.8c1-2.2,2.5-4.2,4.3-5.9c1.2-1.1,2.6-2.1,4.1-2.8c0.5-0.3,1.1-0.5,1.7-0.6c-1.9,1-3.8,2.3-5.4,3.8
		c-1.7,1.6-3.1,3.6-4.1,5.7c-1.2,2.6-1.8,5.5-1.6,8.4c0.2,2.9,1.2,5.7,2.8,8.1c1.3,2,2.9,3.8,4.8,5.2
		C672.6,587.3,674.6,588.3,676.7,589z"/>
	<path class="st12" d="M707.3,509.4c0,0.2-7.8,0.4-17.4,0.4c-9.6,0-17.4-0.2-17.4-0.4c0-0.2,7.8-0.4,17.4-0.4
		C699.5,509,707.3,509.2,707.3,509.4z"/>
	<path class="st5" d="M550.6,84.2l-13.1-28.1c-1-2.1-2.3-3.9-4-5.5c-1.7-1.5-3.6-2.7-5.8-3.5c-2.1-0.8-4.4-1.1-6.7-1
		c-2.3,0.1-4.5,0.6-6.6,1.6c-2.1,1-3.9,2.3-5.5,4c-1.5,1.7-2.7,3.6-3.5,5.8c-0.8,2.1-1.1,4.4-1,6.7c0.1,2.3,0.6,4.5,1.6,6.6
		l13.1,28.1c0.1,0.1,0.1,0.2,0.2,0.3c0.1,0.1,0.2,0.2,0.4,0.2c0.1,0,0.3,0.1,0.4,0.1c0.1,0,0.3,0,0.4-0.1l29.6-13.8
		c0.2-0.1,0.4-0.3,0.5-0.6C550.7,84.7,550.7,84.4,550.6,84.2z"/>
	<path class="st1" d="M48.9,462.3h-7.4v135.6h7.4V462.3z"/>
	<path class="st5" d="M52.6,457.6c0,1.5-0.4,2.9-1.3,4.1c-0.8,1.2-2,2.2-3.3,2.7c-1.4,0.6-2.9,0.7-4.3,0.4c-1.4-0.3-2.8-1-3.8-2
		c-1-1-1.7-2.4-2-3.8c-0.3-1.4-0.1-2.9,0.4-4.3c0.6-1.4,1.5-2.5,2.7-3.3s2.7-1.3,4.1-1.3c2,0,3.9,0.8,5.3,2.2
		C51.9,453.8,52.6,455.7,52.6,457.6z"/>
	<path class="st1" d="M195.4,462.3h-7.4v135.6h7.4V462.3z"/>
	<path class="st5" d="M199.2,457.6c0,1.5-0.4,2.9-1.3,4.1c-0.8,1.2-2,2.2-3.3,2.7c-1.4,0.6-2.9,0.7-4.3,0.4c-1.4-0.3-2.8-1-3.8-2
		c-1-1-1.7-2.4-2-3.8c-0.3-1.4-0.1-2.9,0.4-4.3c0.6-1.4,1.5-2.5,2.7-3.3c1.2-0.8,2.7-1.3,4.1-1.3c2,0,3.9,0.8,5.3,2.2
		C198.4,453.8,199.2,455.7,199.2,457.6z"/>
	<path class="st5" d="M209.4,475.4h-189v33.8h189V475.4z"/>
	<path class="st0" d="M41.8,475.3l-0.3,0.6l-19.4,33.2h-1.6v-33.8H41.8z"/>
	<path class="st0" d="M89.6,475.3l-19.8,33.8H44l7.8-13.4l11.9-20.4H89.6z"/>
	<path class="st0" d="M137.3,475.3l-19.8,33.8H91.7l19.8-33.8H137.3z"/>
	<path class="st0" d="M185.1,475.4l-19.8,33.8h-25.8l19.8-33.8H185.1z"/>
	<path class="st0" d="M209.4,475.4v33.8h-22.2l19.8-33.8H209.4z"/>
	<path class="st5" d="M209.4,527.6h-189v33.8h189V527.6z"/>
	<path class="st0" d="M41.8,527.6l-0.3,0.6l-19.4,33.2h-1.6v-33.8H41.8z"/>
	<path class="st0" d="M89.6,527.6l-19.8,33.8H44l7.8-13.4l11.9-20.4H89.6z"/>
	<path class="st0" d="M137.3,527.6l-19.8,33.8H91.7l19.8-33.8H137.3z"/>
	<path class="st0" d="M185.1,527.6l-19.8,33.8h-25.8l19.8-33.8H185.1z"/>
	<path class="st0" d="M209.4,527.6v33.8h-22.2l19.8-33.8H209.4z"/>
	<path class="st3" d="M209.4,509.2c0,0,0-0.2,0-0.6c0-0.4,0-1,0-1.7c0-1.5,0-3.7,0-6.6c0-5.7-0.1-14.2-0.1-25l0.2,0.2l-189,0.2
		l0.4-0.4v33.8l-0.4-0.4L155,509l39.9,0.1h10.8h2.8L209.4,509.2l-0.9-0.1h-2.8H195l-39.8,0.1l-134.8,0.2h-0.4V475h0.4l189,0.2h0.2
		v0.2c0,10.8-0.1,19.3-0.1,25.1c0,2.9,0,5,0,6.5c0,0.7,0,1.3,0,1.7C209.5,509,209.4,509.2,209.4,509.2z"/>
	<path class="st3" d="M209.4,561.4c0,0,0-0.2,0-0.6s0-1,0-1.7c0-1.5,0-3.7,0-6.6c0-5.7-0.1-14.2-0.1-25l0.2,0.2l-189,0.2l0.4-0.4
		v33.8l-0.4-0.4l134.5,0.2l39.9,0.1h10.8h2.8c0.6,0,1,0,1,0h-0.9h-2.8h-10.7l-39.8,0.1l-134.8,0.2h-0.4v-34.4h0.4l189,0.2h0.2v0.2
		c0,10.8-0.1,19.3-0.1,25.1c0,2.9,0,5,0,6.5c0,0.7,0,1.3,0,1.7C209.6,561.3,209.4,561.4,209.4,561.4z"/>
	<path class="st3" d="M941.2,598.4c0,0.2-208.7,0.4-466,0.4c-257.3,0-466.1-0.2-466.1-0.4c0-0.2,208.6-0.4,466.1-0.4
		S941.2,598.2,941.2,598.4z"/>
</g>
</svg>
