<svg width="21" height="21" viewBox="0 0 21 21" fill="none" xmlns="http://www.w3.org/2000/svg">
<path d="M5.83333 0C2.61217 0 0 2.61217 0 5.83333V15.1667C0 18.3878 2.61217 21 5.83333 21H15.1667C18.3878 21 21 18.3878 21 15.1667V5.83333C21 2.61217 18.3878 0 15.1667 0H5.83333ZM17.5 2.33333C18.144 2.33333 18.6667 2.856 18.6667 3.5C18.6667 4.144 18.144 4.66667 17.5 4.66667C16.856 4.66667 16.3333 4.144 16.3333 3.5C16.3333 2.856 16.856 2.33333 17.5 2.33333ZM10.5 4.66667C13.7212 4.66667 16.3333 7.27883 16.3333 10.5C16.3333 13.7212 13.7212 16.3333 10.5 16.3333C7.27883 16.3333 4.66667 13.7212 4.66667 10.5C4.66667 7.27883 7.27883 4.66667 10.5 4.66667ZM10.5 7C9.57174 7 8.6815 7.36875 8.02513 8.02513C7.36875 8.6815 7 9.57174 7 10.5C7 11.4283 7.36875 12.3185 8.02513 12.9749C8.6815 13.6313 9.57174 14 10.5 14C11.4283 14 12.3185 13.6313 12.9749 12.9749C13.6313 12.3185 14 11.4283 14 10.5C14 9.57174 13.6313 8.6815 12.9749 8.02513C12.3185 7.36875 11.4283 7 10.5 7Z" fill="white"/>
</svg>
