<svg width="29" height="50" viewBox="0 0 29 50" fill="none" xmlns="http://www.w3.org/2000/svg">
<path d="M15.2222 21.9444C8.91667 20.3056 6.88889 18.6111 6.88889 15.9722C6.88889 12.9444 9.69444 10.8333 14.3889 10.8333C19.3333 10.8333 21.1667 13.1944 21.3333 16.6667H27.4722C27.2778 11.8889 24.3611 7.5 18.5556 6.08333V0H10.2222V6C4.83333 7.16667 0.499999 10.6667 0.499999 16.0278C0.499999 22.4444 5.80555 25.6389 13.5556 27.5C20.5 29.1667 21.8889 31.6111 21.8889 34.1944C21.8889 36.1111 20.5278 39.1667 14.3889 39.1667C8.66667 39.1667 6.41667 36.6111 6.11111 33.3333H0C0.333333 39.4167 4.88889 42.8333 10.2222 43.9722V50H18.5556V44.0278C23.9722 43 28.2778 39.8611 28.2778 34.1667C28.2778 26.2778 21.5278 23.5833 15.2222 21.9444Z" fill="#FB0707"/>
</svg>
