<?xml version="1.0" encoding="utf-8"?>
<!-- Generator: Adobe Illustrator 24.3.0, SVG Export Plug-In . SVG Version: 6.00 Build 0)  -->
<svg version="1.1" id="Layer_1" xmlns="http://www.w3.org/2000/svg" xmlns:xlink="http://www.w3.org/1999/xlink" x="0px" y="0px"
	 viewBox="0 0 800 806.3" style="enable-background:new 0 0 800 806.3;" xml:space="preserve">
<style type="text/css">
	.st0{fill:#EBEBEB;}
	.st1{fill:#DBDBDB;}
	.st2{fill:#FFFFFF;}
	.st3{fill:#C7C7C7;}
	.st4{fill:#263238;}
	.st5{fill:#FB0707;}
	.st6{fill:#455A64;}
	.st7{fill:#37474F;}
	.st8{fill:#A6A6A6;}
	.st9{fill-rule:evenodd;clip-rule:evenodd;fill:#EBEBEB;}
	.st10{fill-rule:evenodd;clip-rule:evenodd;fill:#FB0707;}
	.st11{fill-rule:evenodd;clip-rule:evenodd;fill:#455A64;}
	.st12{opacity:0.1;enable-background:new    ;}
	.st13{fill:#DD6A57;}
</style>
<path class="st0" d="M719.1,578.6l25.9-0.5l12.7-0.2c4.2-0.1,8.4,0,12.7-0.1l-0.9,0.9l-0.1-21.7l1,1l-25.7-0.1
	c-8.5,0-17.1-0.2-25.6-0.3l0.5-0.5c0,3.5-0.2,7.1-0.3,10.7L719.1,578.6z M719.1,578.6l-0.3-10.7c0-3.6-0.2-7.3-0.3-10.9v-0.5h0.5
	c8.6,0,17.1-0.3,25.6-0.3l25.6-0.1h1v1v21.7v0.8h-0.9c-4.3,0-8.7,0-13-0.1l-12.9-0.2L719.1,578.6z"/>
<path class="st0" d="M747.7,605.9l25.9-0.5l12.7-0.2c4.2,0,8.4,0,12.7,0l-0.9,0.9l-0.1-21.7l0.9,1l-25.6-0.1
	c-8.5,0-17.1-0.2-25.6-0.3l0.5-0.5c0,3.5-0.2,7.1-0.3,10.7L747.7,605.9z M747.7,605.9l-0.3-10.7c0-3.6-0.2-7.3-0.3-10.9v-0.5h0.5
	c8.6-0.1,17.1-0.3,25.6-0.3l25.6-0.1h1v1l-0.1,21.7v0.9h-0.9c-4.3,0-8.6,0-13-0.1l-12.9-0.2L747.7,605.9z"/>
<path class="st0" d="M690.5,605.9l25.9-0.5l12.7-0.2c4.2,0,8.4,0,12.7,0l-0.9,0.9l-0.1-21.8l1,1l-25.6-0.1c-8.5,0-17.1-0.2-25.6-0.3
	l0.5-0.5c0,3.5-0.2,7.1-0.3,10.7L690.5,605.9z M690.5,605.9l-0.3-10.7c-0.1-3.6-0.2-7.3-0.3-10.9v-0.5h0.5
	c8.5-0.1,17.1-0.3,25.6-0.3l25.7-0.1h1v1v21.6v0.9h-0.9c-4.3,0-8.7,0-13-0.1l-12.9-0.2L690.5,605.9z"/>
<path class="st0" d="M1.2,605.9l25.8-0.5l12.7-0.2c4.2,0,8.4,0,12.7,0l-0.9,0.9v-21.7l1,1l-25.6-0.1c-8.6,0-17.1-0.2-25.6-0.3
	l0.5-0.5c0,3.5-0.2,7.1-0.3,10.7L1.2,605.9z M1.2,605.9l-0.3-10.7c0-3.6-0.2-7.3-0.3-10.9v-0.5h0.5c8.5-0.1,17.1-0.3,25.6-0.3
	l25.6-0.1h1v1L53.2,606v0.9h-0.9c-4.3,0-8.7,0-13-0.1l-12.9-0.2L1.2,605.9z"/>
<path class="st0" d="M29.7,23l25.8-0.5l12.7-0.2c4.2-0.1,8.5,0,12.7-0.1L80.1,23L80,1.3l1,1L55.4,2.2c-8.6,0-17.1-0.2-25.6-0.3
	l0.5-0.5c0,3.5-0.2,7.1-0.3,10.7L29.7,23z M29.7,23l-0.3-10.7c0-3.6-0.2-7.3-0.3-10.9V0.8h0.5c8.5-0.1,17.1-0.3,25.7-0.3L81,0.4h1v1
	L81.8,23v0.9H81c-4.3,0-8.7,0-13,0l-12.9-0.2L29.7,23z"/>
<path class="st0" d="M1.2,50.3L27,49.7l12.7-0.2c4.2,0,8.4,0,12.7-0.1l-0.9,0.9V28.6l1,1l-25.8,0c-8.6,0-17.1-0.2-25.6-0.3l0.5-0.5
	c0,3.5-0.2,7.1-0.3,10.7L1.2,50.3z M1.2,50.3L0.9,39.6c0-3.6-0.2-7.3-0.3-10.9v-0.5h0.5c8.5-0.1,17.1-0.3,25.6-0.3l25.6-0.2h1v1
	l-0.1,21.7v0.9h-0.9c-4.3,0-8.7,0-13-0.1l-12.9-0.2L1.2,50.3z"/>
<path class="st0" d="M747.7,23l25.9-0.5l12.7-0.2c4.2,0,8.4,0,12.7-0.1l-0.9,0.9l-0.1-21.7l0.9,1l-25.6-0.1
	c-8.5,0-17.1-0.2-25.6-0.3l0.5-0.5c0,3.5-0.2,7.1-0.3,10.7L747.7,23z M747.7,23l-0.3-10.7c0-3.6-0.2-7.3-0.3-10.9V0.8h0.5
	c8.6,0,17.1-0.3,25.6-0.3l25.6-0.1h1v1L799.8,23v0.9h-0.9c-4.3,0-8.6,0-13-0.1l-12.9-0.2L747.7,23z"/>
<path class="st0" d="M357.7,441.3l-25.9,0.5l-12.7,0.2c-4.2,0-8.4,0-12.7,0.1l0.9-0.9l0.1,21.7l-0.9-1l25.6,0.1
	c8.5,0,17.1,0.2,25.6,0.3l-0.5,0.5c0-3.5,0.2-7.1,0.3-10.7L357.7,441.3z M357.7,441.3l0.3,10.7c0,3.6,0.2,7.3,0.3,10.9v0.5h-0.5
	c-8.6,0.1-17.1,0.3-25.6,0.3l-25.6,0.1h-1v-1v-21.7v-0.9h0.9c4.3,0,8.6,0,13,0.1l12.9,0.2L357.7,441.3z"/>
<path class="st0" d="M329,414l-25.8,0.5l-12.7,0.2c-4.2,0.1-8.4,0-12.7,0.1l0.9-0.9l0.1,21.7l-1-1l25.6,0.1c8.6,0,17.1,0.2,25.6,0.3
	l-0.5,0.5c0-3.5,0.2-7.1,0.3-10.7L329,414z M329,414l0.3,10.7c0,3.6,0.2,7.3,0.3,10.9v0.5H329c-8.5,0.1-17.1,0.3-25.6,0.3l-25.6,0.1
	h-1v-1l0.1-21.7v-0.9h0.9c4.3,0,8.7,0,13,0l12.9,0.2L329,414z"/>
<path class="st1" d="M136,39.4H40.8v115.4H136V39.4z"/>
<path class="st2" d="M125.1,50H51.7v94.4h73.4V50z"/>
<path class="st3" d="M54.6,50h-2.9v94.4h2.9V50z"/>
<path class="st3" d="M138.9,39.4H136v115.4h2.9V39.4z"/>
<path class="st1" d="M90,123.4h17.3V71.8H90V123.4z"/>
<path class="st0" d="M115.9,89.2H67.8V62h48.1V89.2z M69.7,87.3H114V64H69.7V87.3z"/>
<path class="st1" d="M242.2,173H147v115.4h95.2V173z"/>
<path class="st2" d="M231.3,183.6h-73.4v94.4h73.4V183.6z"/>
<path class="st3" d="M160.7,183.6h-2.9v94.4h2.9V183.6z"/>
<path class="st3" d="M245,173h-2.9v115.4h2.9V173z"/>
<path class="st0" d="M202.3,208h-14.8v37.5h14.8V208z"/>
<path class="st1" d="M218.9,257.6h-41.8v-27.8h41.8V257.6z M179.1,255.6H217v-23.9h-37.9V255.6z"/>
<path class="st0" d="M501.9,2.3V365h277.5V2.3H501.9z M509.2,9.6h262.8v348H509.2V9.6z"/>
<path class="st2" d="M509.2,9.6v348h124.9V11.5h7.3v346.1h130.6V9.6H509.2z"/>
<path class="st0" d="M641.4,11.5h-7.3v349.8h7.3V11.5z"/>
<path class="st0" d="M786,17.1H495.3v10.2H786V17.1z"/>
<path class="st0" d="M786,28.6H495.3v10.2H786V28.6z"/>
<path class="st0" d="M786,40H495.3v10.2H786V40z"/>
<path class="st0" d="M786,51.5H495.3v10.2H786V51.5z"/>
<path class="st0" d="M786,63H495.3v10.2H786V63z"/>
<path class="st0" d="M786,74.4H495.3v10.2H786V74.4z"/>
<path class="st0" d="M786,85.9H495.3v10.2H786V85.9z"/>
<path class="st0" d="M786,97.3H495.3v10.2H786V97.3z"/>
<path class="st0" d="M786,108.8H495.3V119H786V108.8z"/>
<path class="st4" d="M764.3,15h-1.8v234.8h1.8V15z"/>
<path class="st4" d="M766.6,258.4h-6.5l1.6-9.3h3.2L766.6,258.4z"/>
<path class="st4" d="M770.9,15H769v339.7h1.8V15z"/>
<path class="st4" d="M773.2,361.6h-6.5l1.6-9.3h3.3L773.2,361.6z"/>
<path class="st1" d="M797.3,0.9H483.9v21.3h313.4V0.9z"/>
<path class="st4" d="M1.9,678l99.5-0.5l99.6-0.2l199.1-0.3l199.1,0.3l99.6,0.2l99.5,0.5l-99.5,0.5l-99.6,0.2l-199.1,0.3L201,678.6
	l-99.6-0.2L1.9,678z"/>
<path class="st5" d="M737.8,593.4c0,0,15-53.8,27-72.1C776.7,503,799,483,799,483S798.5,565.9,737.8,593.4z"/>
<path class="st4" d="M738.9,592.5c5-8.4,9.5-17.1,13.6-26.1c1.7-9.6,4.2-19.1,7.4-28.3c0,0,0-0.1,0-0.1c0,0,0.1,0,0.1,0
	c0,0,0.1,0,0.1,0c0,0,0,0.1,0,0.1c-1.9,8.5-4.3,16.9-6.4,25.4c6.1-13.1,11.8-26.4,19-38.7c1.7-6,4-11.8,7-17.2c0-0.2,0.3,0,0.3,0.1
	c-1.8,4.2-3.4,8.5-4.7,12.9c3.4-5.5,7.2-10.8,11.4-15.7c0.3-0.3,0.8,0,0.5,0.4c-9.7,12.3-16.3,26.3-22.6,40.4
	c6.8-7.3,13.1-15.2,18.8-23.4l0.1,0.1c-6,9.3-12.7,18-20.1,26.1c-4.6,10.4-9.1,20.8-14.6,30.7c11-9.3,19.4-21.3,27.8-32.9
	c0,0,0-0.1,0.1-0.1c0,0,0.1,0,0.1-0.1c0,0,0.1,0,0.1,0c0,0,0.1,0,0.1,0c0,0,0.1,0,0.1,0.1c0,0,0,0.1,0,0.1c0,0,0,0.1,0,0.1
	c0,0,0,0.1-0.1,0.1c-8.4,12.7-17,24.7-29,34.1c-2.4,4.3-5.1,8.5-8,12.6c-0.1,0.1-0.2,0.2-0.4,0.2c-0.2,0-0.3,0-0.4-0.1
	c-0.1-0.1-0.2-0.2-0.3-0.4C738.8,592.8,738.8,592.6,738.9,592.5L738.9,592.5z"/>
<path class="st5" d="M733.1,598.3c0,0,26.9-49.6,19.1-97.7c-7.8-48.1-16.2-65.2-16.2-65.2S693.7,510.1,733.1,598.3z"/>
<path class="st4" d="M722.1,520.3c2.3,13.6,5.8,27,10.4,40.1c0-17.7,0.4-35.3,0.9-53c-3-10.7-4.7-21.8-5.1-32.9c0-0.3,0.5-0.3,0.5,0
	c0.8,9.5,2.4,19,4.7,28.3c0.4-14.6,0.9-29.1,1.4-43.7c0,0,0-0.1,0.1-0.1c0,0,0.1,0,0.1,0c0,0,0.1,0,0.1,0c0,0,0.1,0.1,0.1,0.1
	c0,22.7,0,45.5-0.1,68.2c3.3-8.8,5.9-17.9,7.7-27.1h0.2c-1.1,10.6-3.8,21-8,30.9c-0.1,14.5-0.3,29-0.6,43.6
	c4.6-15.5,9.4-30.4,10.7-46.8c0-0.2,0.3-0.2,0.3,0c-0.3,18-5,36.3-10.9,53.2c-0.1,0.2-0.2,0.3-0.3,0.4c-0.1,5.3-0.3,10.6-0.5,15.9
	c0,0.1-0.1,0.3-0.2,0.4s-0.2,0.1-0.4,0.1c-0.1,0-0.3,0-0.4-0.1c-0.1-0.1-0.2-0.2-0.2-0.4c-0.2-10.9-0.3-21.8-0.3-32.6
	c-5.9-14.2-9.5-29.3-10.6-44.6C721.8,520.2,722.1,520.1,722.1,520.3z"/>
<path class="st4" d="M723.9,512.6c1,4.3,1.6,8.7,1.9,13.1c0,0.1-0.2,0.2-0.3,0c-1-4.3-1.8-8.7-2.2-13.1
	C723.3,512.3,723.9,512.3,723.9,512.6z"/>
<path class="st4" d="M739.7,476.3c0-0.1,0.3-0.1,0.3,0c0,3.1-0.5,6.1-1.4,9c0,0.2-0.4,0.1-0.4-0.1
	C738.8,482.3,739.2,479.3,739.7,476.3z"/>
<path class="st5" d="M723.3,602.1c0,0,1.1-51.8-13.7-77.5c-9.7-16.1-23.3-29.4-39.5-38.8C670.1,485.8,680,577,723.3,602.1z"/>
<path class="st4" d="M696.3,557.8c5.9,9.1,12.6,17.6,20,25.6c-3-10.6-6.4-21-10.3-31.2c-8.3-7.3-16.6-14.9-21.7-24.9
	c0,0,0-0.1,0-0.1c0,0,0-0.1,0.1-0.1c0,0,0.1,0,0.1,0c0,0,0.1,0,0.1,0.1c5.5,8.8,12.8,15.9,20.6,22.7c-6-15.4-12.9-30.5-20.7-45.1
	c0-0.1,0-0.2,0-0.2c0-0.1,0.1-0.1,0.1-0.2c0.1,0,0.1-0.1,0.2,0c0.1,0,0.1,0.1,0.2,0.1c4.8,7.6,9.1,15.5,13,23.6
	c-1.4-5.5-2.5-11.2-3.9-16.7c0,0,0-0.1,0-0.1c0,0,0.1,0,0.1,0c0,0,0.1,0,0.1,0c0,0,0,0.1,0,0.1c2.9,7,5,14.4,6.1,22
	c5.2,11.5,9.6,23.3,13.1,35.4c-0.4-7.7-0.9-15.5-1.7-23.2c0-0.2,0.2-0.2,0.3,0c1.7,8.6,2.4,17.3,2.3,26.1c2.1,7.7,3.9,15.5,5.4,23.4
	c0,0.2-0.3,0.3-0.3,0.1c-0.8-3.3-1.7-6.6-2.6-9.8c-0.1,0-0.1,0-0.2,0c-8.3-7.9-15.2-17.1-20.5-27.3
	C696.2,558,696.3,557.7,696.3,557.8z"/>
<path class="st4" d="M679,515.6c1.7,1.8,3.2,3.7,4.8,5.5c1.6,1.6,3,3.2,4.3,5c0,0,0,0.2-0.1,0.1c-1.9-1.4-3.5-3-4.9-4.9
	c-1.6-1.7-3-3.6-4.2-5.6C678.7,515.7,678.9,515.6,679,515.6z"/>
<path class="st6" d="M766.6,595.7l-1.8,20.5l-5.5,61.8h-47.6l-5.4-61.8l-1.8-20.4L766.6,595.7L766.6,595.7z"/>
<path class="st7" d="M766.6,595.7l-1.8,20.5h-58.5l-1.8-20.4L766.6,595.7L766.6,595.7z"/>
<path class="st6" d="M698.8,602.5h73v-18.8h-73V602.5z"/>
<path class="st0" d="M400.1,806.3c220,0,398.4-21.7,398.4-48.6c0-26.8-178.3-48.6-398.4-48.6S1.7,731,1.7,757.8
	C1.7,784.6,180.1,806.3,400.1,806.3z"/>
<path class="st7" d="M726.1,389.4H74v23.2h652.1V389.4z"/>
<path class="st6" d="M715.1,412.7H85v14.4h630.1V412.7z"/>
<path class="st6" d="M652.9,427.1H484.7v316.1h168.2V427.1z"/>
<path class="st4" d="M652.9,427.1H484.7v17.8h168.2V427.1z"/>
<path class="st7" d="M633.5,534.9H500.2v-73.1h133.3V534.9z M501.2,534h131.3v-71.1H501.2V534z"/>
<path class="st7" d="M573.9,483.3H549v14.3h24.9V483.3z"/>
<path class="st7" d="M581.8,497h-25.9v-13.1h25.9V497z M556.8,496.1h24v-11.2h-23.9L556.8,496.1z"/>
<path class="st7" d="M633.5,621.6H500.2v-72.9h133.3V621.6z M501.2,620.6h131.3v-71H501.2V620.6z"/>
<path class="st7" d="M573.9,570.1H549v14.3h24.9V570.1z"/>
<path class="st7" d="M581.8,583.8h-25.9v-13.1h25.9V583.8z M556.8,582.9h24v-11.2h-23.9L556.8,582.9z"/>
<path class="st7" d="M633.5,708.4H500.2v-72.9h133.3V708.4z M501.2,707.4h131.3v-71H501.2V707.4z"/>
<path class="st7" d="M573.9,656.9H549v14.3h24.9V656.9z"/>
<path class="st7" d="M581.8,670.6h-25.9v-13.1h25.9V670.6z M556.8,669.7h24v-11.2h-23.9L556.8,669.7z"/>
<path class="st6" d="M134.3,427.1l-0.5,17.8l-6.3,298.2H96.8V427.1H134.3z"/>
<path class="st4" d="M96.8,427.1h37.5l-0.5,17.8h-37V427.1z"/>
<path class="st7" d="M703.3,427.1h-50.4v316.1h50.4V427.1z"/>
<path class="st4" d="M703.3,427.1h-50.4v17.8h50.4V427.1z"/>
<path class="st4" d="M596.7,161.3H316.1v185.8h280.6V161.3z"/>
<path class="st2" d="M584.1,173.4H328.7v133.4h255.4V173.4z"/>
<path class="st0" d="M596.7,319.7H316.1v27.4h280.6V319.7z"/>
<path class="st1" d="M509.7,380.6H403.2v8.9h106.5V380.6z"/>
<path class="st7" d="M460.9,331.6c0,0.9-0.3,1.8-0.8,2.5c-0.5,0.7-1.2,1.3-2,1.7c-0.8,0.3-1.7,0.4-2.6,0.3c-0.9-0.2-1.7-0.6-2.3-1.2
	c-0.6-0.6-1.1-1.4-1.2-2.3c-0.2-0.9-0.1-1.8,0.3-2.6c0.3-0.8,0.9-1.5,1.7-2c0.7-0.5,1.6-0.8,2.5-0.8c1.2,0,2.4,0.5,3.2,1.3
	C460.4,329.3,460.9,330.4,460.9,331.6z"/>
<path class="st0" d="M497,380.6h-81.1l2.1-15.4l0.1-0.7l0.2-1.5l0.1-0.7l0.2-1.5l0-0.2l0.1-0.5l0.2-1.4l0.1-0.7l1.5-10.8h72.2
	l1.4,10.2l0.1,0.5l0.2,1.7l0.1,0.5l0.1,0.6l0.1,1.1l0.1,0.5l0.2,1.7l0.1,0.5L497,380.6z"/>
<path class="st1" d="M494.3,360.6h-75.8l0.1-0.5l0.2-1.4l0.1-0.7l1.5-10.8h72.2l1.4,10.2l0.1,0.5l0.2,1.7l0.1,0.5L494.3,360.6z"/>
<path class="st8" d="M584.1,173.4H328.7v133.4h255.4V173.4z"/>
<path class="st6" d="M584.1,173.4H328.7v5.3h255.4V173.4z"/>
<path class="st3" d="M332.9,176c0,0.3-0.1,0.5-0.2,0.7c-0.1,0.2-0.3,0.4-0.6,0.5c-0.2,0.1-0.5,0.1-0.8,0.1c-0.3,0-0.5-0.2-0.7-0.4
	c-0.2-0.2-0.3-0.4-0.4-0.7c-0.1-0.3,0-0.5,0.1-0.8c0.1-0.2,0.3-0.4,0.5-0.6c0.2-0.1,0.5-0.2,0.7-0.2c0.3,0,0.7,0.1,0.9,0.4
	C332.8,175.4,332.9,175.7,332.9,176L332.9,176z"/>
<path class="st2" d="M338.3,176c0,0.3-0.1,0.7-0.4,0.9c-0.2,0.2-0.6,0.4-0.9,0.4s-0.7-0.1-0.9-0.4c-0.2-0.2-0.4-0.6-0.4-0.9
	c0-0.3,0.1-0.7,0.4-0.9c0.2-0.2,0.6-0.4,0.9-0.4s0.7,0.1,0.9,0.4C338.1,175.3,338.3,175.7,338.3,176z"/>
<path class="st5" d="M343.6,176c0,0.3-0.1,0.5-0.2,0.7c-0.1,0.2-0.3,0.4-0.6,0.5c-0.2,0.1-0.5,0.1-0.8,0.1c-0.3,0-0.5-0.2-0.7-0.4
	c-0.2-0.2-0.3-0.4-0.4-0.7c-0.1-0.3,0-0.5,0.1-0.8c0.1-0.2,0.3-0.4,0.5-0.6c0.2-0.1,0.5-0.2,0.7-0.2c0.2,0,0.3,0,0.5,0.1
	c0.2,0.1,0.3,0.2,0.4,0.3c0.1,0.1,0.2,0.3,0.3,0.4C343.6,175.7,343.6,175.9,343.6,176L343.6,176z"/>
<path class="st2" d="M528.2,182H357.2v114h171.1V182z"/>
<path class="st9" d="M396.5,201c-0.9,9.7-3,19.4-4.9,21.6c-1.3,1.5-5.2,2.6-9.9,3.2l-1.9,0.2c-7.4,0.6-16.1-0.2-19.5-3.4
	c-1.5-1.8-2.6-3.8-3.2-6V182h38.4c0.8,2.5,1.3,5.2,1.3,7.9C396.9,193.6,396.8,197.3,396.5,201L396.5,201z"/>
<path class="st10" d="M396,190.3c-1.9,1.5-0.9,9.3,0.4,10.6c1.3,1.2,6.2,0.9,7,0c0.8-0.9,1.7-7.7,0.8-9.3
	C403.2,190.1,397.4,189.2,396,190.3z"/>
<path class="st9" d="M528.2,224.5v71.6h-22.7c-10.6-3.9-20.4-9.7-22.4-15.2c-1.7-4.6-0.2-14.8,2.6-25.2c0.1-0.6,0.3-1.1,0.4-1.7
	c0.4-1.6,0.9-3.3,1.4-4.9c0.2-0.7,0.4-1.4,0.6-1.9c1.5-4.7,3.2-9.3,4.9-13.1c2.2-5.1,4.4-8.9,5.9-10.2c2.4-1.3,5-2,7.7-1.9
	C514,221.8,521.3,222.6,528.2,224.5L528.2,224.5z"/>
<path class="st11" d="M522.5,182c-1.7,4.9-3.9,8.6-6.1,10.3c-17.4,13.2-70.8,7.6-78.6-1.9c-1.8-2.5-3.1-5.4-3.9-8.4L522.5,182z"/>
<path class="st10" d="M455.4,296.1h-98.2v-9c5.1-13.7,14.9-29.2,24.4-32.4c5-1.7,14.2-0.7,24.5,2.2c5.5,1.5,10.8,3.4,16,5.7
	c4.2,1.8,8.3,3.9,12.3,6.2l1.6,1c9.3,5.8,16.6,12.6,18.6,19.8C455.2,291.7,455.5,293.9,455.4,296.1L455.4,296.1z"/>
<path class="st10" d="M485.8,208.2c-4.7,4.5-2.3,20.7,1,23.8c3.3,3.1,14.3,2.5,17.2,0.2c2.8-2.3,4.4-18,0.5-23.2
	C502.5,206.3,490.1,204.1,485.8,208.2z"/>
<path class="st10" d="M381.3,188.6c0-0.1-0.1-0.2-0.2-0.3s-0.2-0.1-0.3-0.1c-0.1,0-0.2,0-0.3,0.1c-0.1,0.1-0.2,0.2-0.2,0.3
	c-1,19.5-0.5,39.2,0.2,58.7c0,0.1,0.1,0.1,0.1,0.2c0.1,0,0.1,0.1,0.2,0.1c0.1,0,0.2,0,0.2-0.1c0.1,0,0.1-0.1,0.1-0.2
	C381.9,227.8,382.3,208.1,381.3,188.6z"/>
<path class="st10" d="M388.7,182c0,12.4-0.3,24.8-0.8,37.2c0,0.1,0,0.2-0.1,0.2c-0.1,0.1-0.2,0.1-0.2,0.1s-0.2,0-0.2-0.1
	c-0.1-0.1-0.1-0.2-0.1-0.2c-0.4-12.4-0.8-24.8-0.8-37.2H388.7z"/>
<path class="st9" d="M436.2,296.1h-2.1c-0.1-9.1-0.1-18.3,0.2-27.4c0-2.1,0.2-4.2,0.3-6.3c0-0.1,0.1-0.2,0.2-0.3
	c0.1-0.1,0.2-0.1,0.3-0.1c0.1,0,0.2,0,0.3,0.1c0.1,0.1,0.2,0.2,0.2,0.3c0.1,2.4,0.2,4.9,0.3,7.3
	C436.3,278.5,436.4,287.3,436.2,296.1z"/>
<path class="st9" d="M428.9,296.1h-2.1c0-6.1,0.2-12.1,0.5-18.2c0-0.1,0.1-0.2,0.2-0.3c0.1-0.1,0.2-0.1,0.3-0.1s0.2,0,0.3,0.1
	c0.1,0.1,0.2,0.2,0.2,0.3C428.6,283.9,428.8,290,428.9,296.1z"/>
<path class="st10" d="M501.2,248.7c0.1,0,0.3-0.1,0.4-0.2c0.1-0.1,0.2-0.2,0.2-0.4s-0.1-0.3-0.2-0.4c-0.1-0.1-0.2-0.2-0.4-0.2
	c-19.5-1-39.2-0.5-58.7,0.2c-0.1,0-0.1,0.1-0.2,0.1c0,0.1-0.1,0.1-0.1,0.2c0,0.1,0,0.2,0.1,0.2c0,0.1,0.1,0.1,0.2,0.1
	C462,249.2,481.7,249.7,501.2,248.7z"/>
<path class="st10" d="M528.2,254.3v1.1c-14.1,0.7-28.3,0.6-42.5,0.3c-5.1-0.1-10.1-0.3-15.2-0.5c-0.1,0-0.1-0.1-0.2-0.1
	c0-0.1-0.1-0.1-0.1-0.2c0-0.1,0-0.2,0.1-0.2c0-0.1,0.1-0.1,0.2-0.1c5.2-0.2,10.4-0.4,15.6-0.5C500.2,253.7,514.3,253.6,528.2,254.3z
	"/>
<path class="st11" d="M407.9,249.2c-3.3,3.1-1.6,14.5,0.7,16.7c2.3,2.2,10,1.7,12,0.1c2-1.6,3.1-12.7,0.4-16.3
	C419.6,247.9,410.9,246.4,407.9,249.2z"/>
<path class="st4" d="M400.2,236.1v-10h1v9.2h5.8v0.9H400.2z"/>
<path class="st4" d="M411.1,236.2c-0.5,0-1-0.1-1.4-0.3c-0.5-0.2-0.9-0.5-1.2-0.9c-0.3-0.3-0.6-0.8-0.8-1.2c-0.2-0.5-0.3-1-0.3-1.5
	c0-0.5,0.1-1,0.3-1.5c0.2-0.4,0.4-0.8,0.8-1.2c0.3-0.4,0.7-0.7,1.1-0.9c0.7-0.3,1.4-0.4,2.2-0.2c0.7,0.2,1.4,0.5,1.9,1.1
	c0.3,0.4,0.6,0.8,0.8,1.2c0.2,0.5,0.3,1,0.3,1.5c0,0.5-0.1,1-0.3,1.5c-0.2,0.4-0.4,0.9-0.8,1.2c-0.3,0.4-0.7,0.6-1.2,0.8
	C412.1,236.1,411.6,236.2,411.1,236.2L411.1,236.2z M408.4,232.4c0,0.8,0.3,1.5,0.8,2.1c0.2,0.3,0.5,0.5,0.9,0.6
	c0.3,0.2,0.7,0.2,1,0.2c0.4,0,0.7-0.1,1-0.2c0.3-0.1,0.6-0.4,0.9-0.6c0.3-0.3,0.4-0.6,0.6-0.9c0.3-0.7,0.3-1.6,0-2.3
	c-0.1-0.4-0.3-0.7-0.6-0.9c-0.2-0.3-0.5-0.5-0.9-0.6c-0.3-0.2-0.7-0.2-1-0.2c-0.4,0-0.7,0.1-1,0.2c-0.3,0.2-0.6,0.4-0.9,0.6
	c-0.2,0.3-0.4,0.6-0.6,1C408.4,231.6,408.4,232,408.4,232.4L408.4,232.4z"/>
<path class="st4" d="M420,229.6c-0.6,0-1.2,0.2-1.7,0.5c-0.5,0.3-0.8,0.8-1,1.4v4.6h-1v-7.4h0.9v1.8c0.2-0.5,0.6-1,1.1-1.3
	c0.4-0.3,1-0.5,1.5-0.5h0.2V229.6z"/>
<path class="st4" d="M424.1,236.2c-0.5,0-1-0.1-1.5-0.3c-0.4-0.2-0.8-0.5-1.2-0.8c-0.3-0.4-0.6-0.8-0.8-1.2c-0.2-0.5-0.3-1-0.3-1.5
	c0-1,0.4-1.9,1-2.7c0.3-0.3,0.7-0.6,1.2-0.8c0.5-0.2,1-0.3,1.5-0.3c0.5,0,1,0.1,1.5,0.3c0.4,0.2,0.8,0.5,1.1,0.8
	c0.3,0.3,0.6,0.8,0.8,1.2c0.2,0.5,0.3,0.9,0.3,1.4v0.2c0,0,0,0.1,0,0.2h-6.4c0,0.4,0.1,0.8,0.3,1.1c0.2,0.3,0.4,0.6,0.6,0.9
	c0.2,0.2,0.5,0.4,0.8,0.6c0.3,0.1,0.7,0.2,1,0.2c0.2,0,0.5,0,0.7-0.1c0.2-0.1,0.4-0.2,0.6-0.3c0.2-0.1,0.4-0.3,0.5-0.4
	c0.2-0.2,0.3-0.3,0.4-0.5l0.8,0.2c-0.1,0.3-0.3,0.5-0.5,0.7c-0.2,0.2-0.5,0.4-0.7,0.6c-0.3,0.2-0.6,0.3-0.9,0.4
	C424.8,236.2,424.4,236.2,424.1,236.2L424.1,236.2z M426.8,232c0-0.4-0.1-0.7-0.3-1.1c-0.1-0.3-0.3-0.6-0.6-0.8
	c-0.2-0.2-0.5-0.4-0.8-0.6c-0.3-0.1-0.7-0.2-1-0.2c-0.4,0-0.7,0.1-1,0.2c-0.3,0.1-0.6,0.3-0.8,0.6c-0.2,0.2-0.4,0.5-0.6,0.9
	c-0.2,0.3-0.2,0.7-0.3,1.1H426.8z"/>
<path class="st4" d="M440.2,236.1h-1V232c0.1-0.7-0.1-1.3-0.4-1.9c-0.1-0.2-0.3-0.4-0.5-0.5c-0.2-0.1-0.5-0.2-0.7-0.1
	c-0.3,0-0.5,0-0.8,0.2c-0.3,0.1-0.5,0.2-0.7,0.4c-0.2,0.2-0.4,0.4-0.6,0.7c-0.2,0.3-0.3,0.6-0.4,0.9v4.5h-0.9v-4.1
	c0.1-0.7-0.1-1.3-0.4-1.9c-0.1-0.2-0.3-0.3-0.5-0.4c-0.2-0.1-0.4-0.1-0.7-0.1c-0.6,0-1.1,0.2-1.5,0.6c-0.4,0.4-0.8,0.9-0.9,1.5v4.5
	h-0.9v-7.4h0.9v1.7c0.3-0.5,0.7-1,1.2-1.3c0.5-0.3,1.1-0.5,1.6-0.5c0.5,0,1.1,0.2,1.5,0.5c0.4,0.4,0.6,0.8,0.7,1.4
	c0.2-0.6,0.6-1.1,1.1-1.4c0.5-0.3,1.1-0.5,1.7-0.5c0.4,0,0.7,0.1,1,0.2c0.3,0.2,0.5,0.4,0.7,0.6c0.2,0.3,0.3,0.7,0.4,1
	c0.1,0.4,0.1,0.9,0.1,1.3V236.1z"/>
<path class="st4" d="M445.9,227.2v-1.4h0.9v1.4H445.9z M445.9,236.1v-7.4h0.9v7.4H445.9z"/>
<path class="st4" d="M452.7,236.2c-0.6,0-1.2-0.2-1.6-0.5c-0.5-0.3-0.9-0.7-1.1-1.2v4.5h-1v-10.4h0.9v1.4c0.3-0.5,0.7-0.8,1.2-1.1
	c0.5-0.3,1-0.4,1.6-0.4c0.5,0,1,0.1,1.4,0.3c0.4,0.2,0.8,0.5,1.1,0.9c0.3,0.4,0.6,0.8,0.7,1.2c0.2,0.5,0.3,0.9,0.3,1.4
	c0,0.5-0.1,1-0.3,1.5c-0.1,0.4-0.4,0.8-0.7,1.2c-0.3,0.4-0.7,0.6-1.1,0.8C453.6,236.1,453.2,236.2,452.7,236.2L452.7,236.2z
	 M452.4,235.4c0.4,0,0.8-0.1,1.1-0.3c0.3-0.2,0.6-0.4,0.8-0.7c0.2-0.3,0.4-0.6,0.5-0.9c0.1-0.4,0.2-0.7,0.2-1.1
	c0-0.4-0.1-0.8-0.2-1.1c-0.1-0.3-0.3-0.7-0.6-0.9c-0.2-0.3-0.5-0.5-0.9-0.6c-0.3-0.2-0.7-0.3-1.1-0.3c-0.3,0-0.5,0.1-0.8,0.2
	c-0.3,0.1-0.5,0.2-0.8,0.4c-0.2,0.2-0.4,0.4-0.6,0.6c-0.2,0.2-0.3,0.4-0.3,0.7v2.3c0.1,0.3,0.2,0.5,0.4,0.7c0.2,0.2,0.4,0.4,0.6,0.6
	c0.2,0.2,0.4,0.3,0.7,0.4C451.9,235.3,452.1,235.4,452.4,235.4L452.4,235.4z"/>
<path class="st4" d="M460.1,236.2c-0.6,0-1.1-0.1-1.7-0.3c-0.5-0.2-1-0.4-1.4-0.8l0.4-0.7c0.4,0.3,0.8,0.6,1.3,0.8
	c0.4,0.2,0.9,0.3,1.4,0.3c0.5,0,1-0.1,1.4-0.4c0.2-0.1,0.3-0.3,0.4-0.4c0.1-0.2,0.1-0.4,0.1-0.6c0-0.2,0-0.4-0.1-0.5
	c-0.1-0.2-0.2-0.3-0.4-0.4c-0.2-0.1-0.5-0.2-0.7-0.3l-1-0.3c-0.4,0-0.8-0.2-1.1-0.3c-0.3-0.1-0.5-0.2-0.8-0.3
	c-0.2-0.1-0.4-0.3-0.5-0.5c-0.1-0.2-0.1-0.5-0.1-0.7c0-0.3,0.1-0.7,0.2-1c0.2-0.3,0.4-0.5,0.6-0.7c0.3-0.2,0.6-0.3,0.9-0.4
	c0.3-0.1,0.7-0.2,1.1-0.2c0.5,0,1.1,0.1,1.5,0.3c0.4,0.2,0.8,0.4,1.1,0.7l-0.5,0.6c-0.3-0.3-0.6-0.5-1-0.6c-0.4-0.1-0.8-0.2-1.2-0.2
	c-0.2,0-0.5,0-0.7,0c-0.2,0-0.4,0.1-0.6,0.2c-0.2,0.1-0.3,0.3-0.4,0.4c-0.1,0.2-0.1,0.4-0.1,0.6c0,0.2,0,0.3,0.1,0.5
	c0.1,0.1,0.2,0.3,0.3,0.3c0.2,0.1,0.4,0.2,0.6,0.2l0.8,0.2c0.4,0.1,0.8,0.2,1.2,0.3c0.3,0.1,0.6,0.2,0.9,0.4
	c0.2,0.1,0.4,0.3,0.5,0.5c0.1,0.2,0.2,0.5,0.2,0.8c0,0.3-0.1,0.6-0.2,0.9c-0.1,0.3-0.3,0.5-0.6,0.7
	C461.6,236,460.8,236.3,460.1,236.2z"/>
<path class="st4" d="M466.9,236.2c-0.3,0-0.7,0-1-0.2c-0.3-0.1-0.6-0.4-0.8-0.6c-0.4-0.7-0.6-1.5-0.6-2.4v-4.3h1v4.1
	c0,1.7,0.6,2.5,1.7,2.5c0.3,0,0.6,0,0.8-0.1c0.3-0.1,0.5-0.2,0.8-0.4c0.2-0.2,0.4-0.4,0.6-0.6c0.2-0.3,0.4-0.5,0.5-0.8v-4.6h0.9v6.1
	c0,0.3,0.1,0.4,0.3,0.4v0.9h-0.4c-0.1,0-0.2,0-0.3-0.1c-0.1,0-0.2-0.1-0.3-0.2c-0.1-0.2-0.2-0.4-0.2-0.6v-0.9
	c-0.3,0.6-0.7,1-1.3,1.4C468.1,236,467.5,236.2,466.9,236.2L466.9,236.2z"/>
<path class="st4" d="M483.9,236.1H483V232c0-0.7-0.1-1.3-0.4-1.9c-0.1-0.2-0.3-0.4-0.5-0.5c-0.2-0.1-0.5-0.2-0.7-0.1
	c-0.3,0-0.5,0-0.8,0.2c-0.3,0.1-0.5,0.2-0.7,0.4c-0.2,0.2-0.4,0.4-0.6,0.7c-0.2,0.3-0.3,0.6-0.3,0.9v4.5h-1v-4.1
	c0.1-0.7-0.1-1.3-0.4-1.9c-0.1-0.2-0.3-0.4-0.5-0.5c-0.2-0.1-0.5-0.1-0.7-0.1c-0.5,0-1.1,0.2-1.5,0.6c-0.5,0.4-0.8,0.9-0.9,1.5v4.5
	h-1v-7.4h0.9v1.7c0.3-0.5,0.7-1,1.2-1.3c0.5-0.3,1-0.5,1.6-0.5c0.5,0,1.1,0.2,1.5,0.5c0.4,0.4,0.6,0.9,0.7,1.4
	c0.2-0.6,0.6-1,1.1-1.4c0.5-0.3,1.1-0.5,1.7-0.5c0.4,0,0.7,0.1,1,0.2c0.3,0.2,0.5,0.4,0.7,0.6c0.2,0.3,0.3,0.7,0.4,1
	c0.1,0.4,0.1,0.9,0.1,1.3V236.1z"/>
<path class="st4" d="M492.7,244h-1v-0.4h0.6V243h0.4V244z"/>
<path class="st4" d="M490.1,244h-1.6v-0.4h1.6V244z M486.9,244h-1.6v-0.4h1.6V244z M483.8,244h-1.6v-0.4h1.6V244z M480.6,244H479
	v-0.4h1.6V244z M477.5,244h-1.6v-0.4h1.6L477.5,244z M474.3,244h-1.6v-0.4h1.6V244z M471.1,244h-1.6v-0.4h1.6V244z M468,244h-1.6
	v-0.4h1.6V244z M464.8,244h-1.6v-0.4h1.6V244z M461.7,244h-1.6v-0.4h1.6V244z M458.5,244h-1.6v-0.4h1.6V244z M455.3,244h-1.6v-0.4
	h1.6V244z M452.2,244h-1.6v-0.4h1.6V244z M449,244h-1.6v-0.4h1.6V244z M445.9,244h-1.6v-0.4h1.6V244z M442.7,244h-1.6v-0.4h1.5
	L442.7,244z M439.5,244H438v-0.4h1.6V244z M436.4,244h-1.6v-0.4h1.6V244z M433.2,244h-1.6v-0.4h1.6V244z M430,244h-1.6v-0.4h1.6V244
	z M426.9,244h-1.6v-0.4h1.6L426.9,244z M423.7,244h-1.6v-0.4h1.6V244z M420.5,244H419v-0.4h1.6V244z M417.4,244h-1.6v-0.4h1.7
	L417.4,244z M414.2,244h-1.6v-0.4h1.6V244z M411.1,244h-1.6v-0.4h1.6V244z M407.9,244h-1.6v-0.4h1.6V244z M404.7,244h-1.6v-0.4h1.6
	V244z M401.6,244h-1.5v-0.4h1.6L401.6,244z M398.4,244h-1.6v-0.4h1.6V244z M395.3,244h-1.6v-0.4h1.6V244z"/>
<path class="st4" d="M392.1,244h-1v-1h0.4v0.6h0.6V244z"/>
<path class="st4" d="M391.5,241.5h-0.4V240h0.4V241.5z M391.5,238.5h-0.4v-1.5h0.4V238.5z M391.5,235.4h-0.4v-1.5h0.4V235.4z
	 M391.5,232.4h-0.4v-1.5h0.4V232.4z M391.5,229.3h-0.4v-1.5h0.4V229.3z M391.5,226.3h-0.4v-1.5h0.4V226.3z M391.5,223.2h-0.4v-1.5
	h0.4V223.2z"/>
<path class="st4" d="M391.5,220.2h-0.4v-1h1v0.4h-0.6V220.2z"/>
<path class="st4" d="M490.1,219.6h-1.6v-0.3h1.6V219.6z M486.9,219.6h-1.6v-0.3h1.6V219.6z M483.8,219.6h-1.6v-0.3h1.6V219.6z
	 M480.6,219.6H479v-0.3h1.6V219.6z M477.5,219.6h-1.6v-0.3h1.6L477.5,219.6z M474.3,219.6h-1.6v-0.3h1.6V219.6z M471.1,219.6h-1.6
	v-0.3h1.6V219.6z M468,219.6h-1.6v-0.3h1.6V219.6z M464.8,219.6h-1.6v-0.3h1.6V219.6z M461.7,219.6h-1.6v-0.3h1.6V219.6z
	 M458.5,219.6h-1.6v-0.3h1.6V219.6z M455.3,219.6h-1.6v-0.3h1.6V219.6z M452.2,219.6h-1.6v-0.3h1.6V219.6z M449,219.6h-1.6v-0.3h1.6
	V219.6z M445.9,219.6h-1.6v-0.3h1.6V219.6z M442.7,219.6h-1.6v-0.3h1.5L442.7,219.6z M439.5,219.6H438v-0.3h1.6V219.6z M436.4,219.6
	h-1.6v-0.3h1.6V219.6z M433.2,219.6h-1.6v-0.3h1.6V219.6z M430,219.6h-1.6v-0.3h1.6V219.6z M426.9,219.6h-1.6v-0.3h1.6L426.9,219.6z
	 M423.7,219.6h-1.6v-0.3h1.6V219.6z M420.5,219.6H419v-0.3h1.6V219.6z M417.4,219.6h-1.6v-0.3h1.7L417.4,219.6z M414.2,219.6h-1.6
	v-0.3h1.6V219.6z M411.1,219.6h-1.6v-0.3h1.6V219.6z M407.9,219.6h-1.6v-0.3h1.6V219.6z M404.7,219.6h-1.6v-0.3h1.6V219.6z
	 M401.6,219.6h-1.5v-0.3h1.6L401.6,219.6z M398.4,219.6h-1.6v-0.3h1.6V219.6z M395.3,219.6h-1.6v-0.3h1.6V219.6z"/>
<path class="st4" d="M492.7,220.2h-0.4v-0.6h-0.6v-0.4h1V220.2z"/>
<path class="st4" d="M492.7,241.5h-0.4V240h0.4V241.5z M492.7,238.5h-0.4v-1.5h0.4V238.5z M492.7,235.4h-0.4v-1.5h0.4V235.4z
	 M492.7,232.4h-0.4v-1.5h0.4V232.4z M492.7,229.3h-0.4v-1.5h0.4V229.3z M492.7,226.3h-0.4v-1.5h0.4V226.3z M492.7,223.2h-0.4v-1.5
	h0.4V223.2z"/>
<path class="st4" d="M486.1,235.9h-88.9v0.4h88.9V235.9z"/>
<path class="st2" d="M392.7,218.1H390v2.7h2.7V218.1z"/>
<path class="st4" d="M392.8,220.9h-3v-3.1h3V220.9z M390.2,220.5h2.3v-2.3h-2.3V220.5z"/>
<path class="st2" d="M392.7,242.5H390v2.7h2.7V242.5z"/>
<path class="st4" d="M392.8,245.4h-3v-3.1h3V245.4z M390.2,245h2.3v-2.3h-2.3V245z"/>
<path class="st2" d="M493.8,218.1h-2.7v2.7h2.7V218.1z"/>
<path class="st4" d="M494,220.9h-3v-3.1h3V220.9z M491.3,220.5h2.3v-2.3h-2.3V220.5z"/>
<path class="st2" d="M493.8,242.5h-2.7v2.7h2.7V242.5z"/>
<path class="st4" d="M494,245.4h-3v-3.1h3V245.4z M491.3,245h2.3v-2.3h-2.3V245z"/>
<path class="st2" d="M392.4,230.5h-2.3v2.3h2.3V230.5z"/>
<path class="st4" d="M392.6,232.9H390v-2.7h2.7V232.9z M390.4,232.5h1.9v-1.9h-1.9V232.5z"/>
<path class="st2" d="M443,218.3h-2.3v2.3h2.3V218.3z"/>
<path class="st4" d="M443.2,220.7h-2.7v-2.7h2.7V220.7z M441,220.4h1.9v-1.9H441V220.4z"/>
<path class="st2" d="M443,242.7h-2.3v2.3h2.3V242.7z"/>
<path class="st4" d="M443.2,245.2h-2.7v-2.6h2.7V245.2z M441,244.8h1.9v-1.9H441V244.8z"/>
<path class="st2" d="M493.6,230.5h-2.3v2.3h2.3V230.5z"/>
<path class="st4" d="M493.8,232.9h-2.7v-2.7h2.7L493.8,232.9z M491.5,232.5h1.9v-1.9h-1.9V232.5z"/>
<path class="st6" d="M352.5,182h-20.4v76.9h20.4V182z"/>
<path class="st0" d="M333.2,182.9l-0.1,0.1l1.3,1.3l0.1-0.1L333.2,182.9z"/>
<path class="st0" d="M334.3,182.9l-1.3,1.3l0.1,0.1l1.3-1.3L334.3,182.9z"/>
<path class="st0" d="M350.1,183.4l-0.1,0.1l0.8,0.8l0.1-0.1L350.1,183.4z"/>
<path class="st0" d="M350.7,182.8l-0.8,0.8l0.1,0.1l0.8-0.8L350.7,182.8z"/>
<path class="st0" d="M350.9,183.5l-0.1,0.1l0.8,0.8l0.1-0.1L350.9,183.5z"/>
<path class="st0" d="M351.6,182.8l-0.8,0.8l0.1,0.1l0.8-0.8L351.6,182.8z"/>
<path class="st0" d="M337.7,194.8l-0.9-2.1l-1.6,1.2v-6.8l4.8,4.8l-1.9,0.3l0.9,2.1L337.7,194.8z M337,192.2l0.9,2.2l0.6-0.3
	l-0.9-2.2l1.8-0.3l-3.7-3.9v5.3L337,192.2z"/>
<path class="st0" d="M348.6,192.1l0.9,2.1l-0.9,0.4l-0.9-2.2l-1.5,1.1v-6.1l4.2,4.3L348.6,192.1z"/>
<path class="st0" d="M339.5,200.4l-4.2,5.3l0.4,0.3l4.2-5.3L339.5,200.4z"/>
<path class="st0" d="M337.2,201.1l-1,0.2l-0.2,1.1l-0.2-1.1l-1-0.2l1-0.3l0.2-1l0.2,1L337.2,201.1z"/>
<path class="st0" d="M339.4,199.4l-0.6,0.1l-0.1,0.6l-0.1-0.6l-0.6-0.1l0.6-0.2l0.1-0.6l0.1,0.6L339.4,199.4z"/>
<path class="st0" d="M340.1,202.8l-0.3,0.1l-0.1,0.4l-0.1-0.4l-0.3-0.1l0.3-0.1l0.1-0.3l0.1,0.3L340.1,202.8z"/>
<path class="st0" d="M349.3,219.5l-4.2,5.3l0.4,0.3l4.2-5.3L349.3,219.5z"/>
<path class="st0" d="M348.6,204.2l0.9,2.1l-0.9,0.4l-0.9-2.2l-1.5,1.1v-6.1l4.2,4.3L348.6,204.2z"/>
<path class="st0" d="M345.8,203.4c-0.3,0-0.7,0-1-0.1c-0.3-0.1-0.6-0.4-0.8-0.6c-0.4-0.7,0-2.1,2.1-3.3c0.6-0.4,1.3-0.6,2-0.6
	c0.7,0,1.4,0.3,1.9,0.7c0.1,0.2,0.1,0.4,0.1,0.6c0,0.2,0,0.4-0.1,0.6c-0.2,0.5-0.5,1-0.9,1.5c-0.4,0.4-0.9,0.7-1.4,0.9l0,0
	C347.1,203.2,346.5,203.4,345.8,203.4L345.8,203.4z M348.3,199c-0.7,0-1.3,0.2-1.9,0.5c-1.9,1.1-2.2,2.3-1.9,2.9
	c0.3,0.5,1.6,0.9,3.2,0.2c0.5-0.2,1-0.5,1.3-0.9c0.4-0.4,0.7-0.8,0.9-1.3c0.1-0.1,0.1-0.3,0.1-0.4c0-0.2,0-0.3-0.1-0.4
	c-0.2-0.2-0.4-0.4-0.7-0.5C348.8,199,348.5,199,348.3,199L348.3,199z"/>
<path class="st0" d="M344.9,203.8c-0.1,0-0.2,0-0.4-0.1c-0.1-0.1-0.2-0.1-0.3-0.2l0,0c-0.1-0.1-0.1-0.3-0.1-0.4c0-0.1,0-0.3,0.1-0.4
	c0.1-0.2,0.2-0.3,0.4-0.4c0.2-0.1,0.3-0.1,0.5-0.1c0.1,0,0.3,0,0.4,0.1c0.1,0.1,0.2,0.2,0.3,0.3c0.1,0.2,0.1,0.4,0.1,0.6
	c-0.1,0.2-0.2,0.4-0.4,0.5C345.3,203.8,345.1,203.8,344.9,203.8L344.9,203.8z M344.5,203.3c0.1,0.1,0.2,0.2,0.3,0.2
	c0.1,0,0.3,0,0.4-0.1c0.1-0.1,0.2-0.2,0.2-0.3c0-0.1,0-0.2,0-0.4c0-0.1-0.1-0.1-0.2-0.2c-0.1,0-0.2-0.1-0.2,0c-0.1,0-0.2,0-0.3,0.1
	c-0.1,0.1-0.2,0.1-0.2,0.2c0,0.1-0.1,0.1-0.1,0.2S344.4,203.2,344.5,203.3L344.5,203.3z"/>
<path class="st0" d="M345.8,204.7l-0.2-0.3c0.1,0,0.2-0.2,0.2-0.3c0-0.1-0.4-0.4-0.6-0.5l0.1-0.3c0,0,0.7,0.3,0.8,0.7
	c0,0.1,0,0.2-0.1,0.4C346,204.5,346,204.6,345.8,204.7L345.8,204.7z"/>
<path class="st0" d="M335.4,212.1c0.9-0.8,2.1-1.4,3.3-1.7l1.1,1.1c-0.3,1.2-0.9,2.3-1.7,3.3c-0.5-0.1-1.1-0.1-1.7,0
	c-0.5,0.1-1,0.4-1.4,0.8l-0.1-0.1l2.2-2.2c0.1,0.1,0.2,0.1,0.3,0.1c0.1,0,0.2,0,0.3-0.1c0.1-0.1,0.1-0.2,0.1-0.3
	c0-0.1-0.1-0.2-0.1-0.3s-0.2-0.1-0.3-0.1c-0.1,0-0.2,0-0.3,0.1c-0.1,0.1-0.1,0.2-0.1,0.3c0,0.1,0,0.2,0.1,0.3l-2.2,2.2l-0.1-0.1
	c0.4-0.4,0.6-0.9,0.8-1.5C335.6,213.2,335.6,212.7,335.4,212.1z"/>
<path class="st0" d="M338.3,210.2l1.6,1.6l0.7-0.7l-1.6-1.6L338.3,210.2z"/>
<path class="st4" d="M351.2,208.5H343v7.6h8.2V208.5z"/>
<path class="st0" d="M345.9,212.1c0.9-0.8,2.1-1.4,3.3-1.7l1.1,1.1c-0.3,1.2-0.9,2.3-1.7,3.3c-0.5-0.1-1.1-0.1-1.7,0
	c-0.5,0.1-1,0.4-1.4,0.8l-0.1-0.1l2.2-2.2c0.1,0.1,0.2,0.1,0.3,0.1c0.1,0,0.2-0.1,0.3-0.2c0.1-0.1,0.1-0.2,0.1-0.3
	c0-0.1-0.1-0.2-0.2-0.3c-0.1-0.1-0.2-0.1-0.3-0.1c-0.1,0-0.2,0-0.3,0.1c-0.1,0.1-0.1,0.2-0.1,0.3c0,0.1,0,0.2,0.1,0.3l-2.2,2.2v-0.1
	c0.3-0.4,0.6-0.9,0.7-1.5C346.1,213.2,346.1,212.6,345.9,212.1L345.9,212.1z"/>
<path class="st0" d="M348.9,210.2l1.6,1.6l0.7-0.7l-1.6-1.6L348.9,210.2z"/>
<path class="st0" d="M345.2,215.4c-0.2,0-0.4,0-0.6-0.1c-0.2-0.1-0.4-0.2-0.5-0.4c-0.2-0.4-0.4-1.1,0.3-2.4c0.1-0.2,0.2-0.4,0.2-0.6
	c0-0.2,0-0.4-0.1-0.6c-0.1-0.2-0.3-0.3-0.5-0.4c-0.2-0.1-0.4-0.2-0.6-0.2v-0.3c0.3,0,0.5,0.1,0.7,0.2c0.2,0.1,0.4,0.3,0.6,0.5
	c0.1,0.2,0.2,0.5,0.2,0.7c0,0.3-0.1,0.5-0.2,0.7c-0.6,1.2-0.5,1.8-0.3,2.1c0.1,0.1,0.2,0.2,0.4,0.3c0.1,0.1,0.3,0.1,0.5,0.1
	L345.2,215.4z"/>
<path class="st0" d="M339.6,219.3v1.4h-0.4c0,0-0.1,0-0.1,0c0,0-0.1-0.1-0.1-0.1c0,0,0-0.2,0-0.3h-1.2v4.1h0.2h0.1
	c0.1,0,0.1,0,0.2,0.1c0,0,0.1,0.1,0.1,0.2v0.5H336v-0.5c0-0.1,0-0.1,0-0.2c0,0,0.1-0.1,0.1-0.1h0.2h0.2v-4.1h-1.2c0,0.1,0,0.2,0,0.3
	c0,0,0,0.1-0.1,0.1c0,0-0.1,0-0.1,0h-0.5v-1.4H339.6L339.6,219.3z"/>
<path class="st0" d="M340.4,236.1h-5.8v-5.8h5.8V236.1z M335,235.6h4.8v-4.9H335V235.6z"/>
<path class="st0" d="M349.7,253.6h-5.1V249h5.1V253.6z M345.2,253.1h4v-3.5h-4.1L345.2,253.1z"/>
<path class="st0" d="M346.8,254.9h-3.5v-3.2h3.5V254.9z M343.8,254.4h2.5v-2.2h-2.4L343.8,254.4z"/>
<path class="st0" d="M348.5,250l-1.3,1.3l0.2,0.2l1.3-1.3L348.5,250z"/>
<path class="st0" d="M348.9,250.8h-0.3v-0.7h-0.6v-0.3h1V250.8z"/>
<path class="st0" d="M349.9,236.1h-5.8v-5.8h2.7c0.1-0.5,0.3-1,0.7-1.4c0.4-0.4,0.9-0.6,1.5-0.5c0.3,0,0.6,0.1,0.9,0.2
	c0.3,0.1,0.5,0.3,0.7,0.5c0.2,0.2,0.4,0.4,0.5,0.7c0.1,0.3,0.2,0.6,0.2,0.8c0,0.4-0.2,0.8-0.4,1.1c-0.2,0.3-0.5,0.6-0.9,0.8
	L349.9,236.1z M344.5,235.6h4.9v-3.4h0.2c0.4-0.1,0.7-0.4,0.9-0.8c0.2-0.3,0.3-0.8,0.2-1.1c-0.1-0.4-0.3-0.8-0.6-1
	c-0.3-0.3-0.7-0.4-1.1-0.4c-0.4,0-0.9,0.2-1.2,0.5c-0.3,0.3-0.5,0.7-0.5,1.2v0.3h-2.7L344.5,235.6z"/>
<path class="st0" d="M347.8,231.9c-0.9-0.2-1,0.8-1,1.1c0,0.2-0.1,0.4-0.2,0.5s-0.3,0.2-0.5,0.3c0,0,1.4,0.4,1.9-0.3
	c0.1-0.1,0.2-0.2,0.3-0.4c0.1-0.2,0.1-0.3,0.1-0.5c0-0.2-0.1-0.3-0.2-0.4C348.1,232.1,347.9,232,347.8,231.9L347.8,231.9z"/>
<path class="st0" d="M350.7,229.1l-2.2,3.1c-0.1-0.1-0.2-0.3-0.3-0.3c-0.1-0.1-0.3-0.2-0.4-0.2h-0.1l1.8-2.6L350.7,229.1z"/>
<path class="st0" d="M339.4,242.5l-1.5-1.5l-3.1,3.1l1.5,1.5L339.4,242.5z"/>
<path class="st0" d="M340.4,241.5l-1.5-1.5l-0.7,0.7l1.5,1.5L340.4,241.5z"/>
<path class="st0" d="M334.6,245.7l0.1-1.6l0.3,0l-0.1,1.3l1.2-0.1l0,0.3L334.6,245.7z"/>
<path class="st0" d="M348.8,243.1c-0.3,0-0.6-0.1-0.8-0.3c-0.2-0.2-0.3-0.5-0.3-0.8c0-0.3,0.1-0.6,0.3-0.8c0.2-0.2,0.5-0.3,0.8-0.3
	c0.3,0,0.6,0.1,0.8,0.3c0.2,0.2,0.3,0.5,0.3,0.8c0,0.3-0.1,0.6-0.3,0.8C349.4,243,349.1,243.1,348.8,243.1L348.8,243.1z
	 M348.8,241.2c-0.2,0-0.4,0.1-0.5,0.2c-0.1,0.1-0.2,0.3-0.2,0.5c0,0.2,0.1,0.4,0.2,0.5c0.1,0.1,0.3,0.2,0.5,0.2
	c0.2,0,0.4-0.1,0.5-0.2c0.1-0.1,0.2-0.3,0.2-0.5c0-0.2-0.1-0.4-0.2-0.5C349.1,241.3,349,241.2,348.8,241.2z"/>
<path class="st0" d="M343.4,245l4.6-2.5l0.8,0.4c0,0-3.4,2.1-4,2.3C344.3,245.3,343.8,245.2,343.4,245L343.4,245z"/>
<path class="st0" d="M348.8,245.8c-0.3,0-0.6-0.1-0.8-0.4c-0.2-0.2-0.3-0.5-0.4-0.8c0-0.3,0.1-0.6,0.3-0.8c0.2-0.2,0.5-0.3,0.8-0.3
	c0.2,0,0.3,0,0.5,0.1c0.1,0.1,0.3,0.1,0.4,0.3c0.1,0.1,0.2,0.2,0.3,0.4s0.1,0.3,0.1,0.5c0,0.2,0,0.3-0.1,0.5
	c-0.1,0.1-0.1,0.3-0.3,0.4c-0.1,0.1-0.2,0.2-0.4,0.3C349.1,245.7,348.9,245.8,348.8,245.8z M348.8,243.8c-0.2,0-0.4,0.1-0.5,0.2
	s-0.2,0.3-0.2,0.5c0,0.2,0.1,0.4,0.2,0.5c0.1,0.1,0.3,0.2,0.5,0.2c0.2,0,0.4-0.1,0.5-0.2c0.1-0.1,0.2-0.3,0.2-0.5
	c0-0.2-0.1-0.3-0.2-0.4C349.1,244,348.9,243.9,348.8,243.8L348.8,243.8z"/>
<path class="st0" d="M343.3,241.5l4.6,2.6l0.8-0.4c0,0-3.4-2.1-3.9-2.3C344.4,241.2,343.8,241.3,343.3,241.5L343.3,241.5z"/>
<path class="st0" d="M334.6,254.2v-4.4l2.8,2.2L334.6,254.2z M335.1,250.8v2.3l1.5-1.1L335.1,250.8z"/>
<path class="st0" d="M340.3,249.9v4.2l-2.7-2.1L340.3,249.9z"/>
<path class="st0" d="M337.6,254.3h-0.2v-0.7h0.2V254.3z M337.6,252.9h-0.2v-0.7h0.2V252.9z M337.6,251.6h-0.2v-0.7h0.2V251.6z
	 M337.6,250.3h-0.2v-0.7h0.2V250.3z"/>
<path class="st6" d="M581.1,182.1H539v25h42.1V182.1z"/>
<path class="st0" d="M541.2,184.3L540,183l0.1-0.1l1.3,1.3L541.2,184.3z"/>
<path class="st0" d="M540.1,184.3l-0.1-0.1l1.3-1.3l0.1,0.1L540.1,184.3z"/>
<path class="st0" d="M578.6,183.4l-0.1,0.1l0.8,0.8l0.1-0.1L578.6,183.4z"/>
<path class="st0" d="M579.2,182.9l-0.8,0.8l0.1,0.1l0.8-0.8L579.2,182.9z"/>
<path class="st0" d="M579.4,183.4l-0.1,0.1l0.8,0.8l0.1-0.1L579.4,183.4z"/>
<path class="st0" d="M580,182.8l-0.8,0.8l0.1,0.1l0.8-0.8L580,182.8z"/>
<path class="st0" d="M546.6,186h-0.2v16.4h0.2V186z"/>
<path class="st0" d="M552.7,186h-0.2v16.4h0.2V186z"/>
<path class="st0" d="M543.4,187.6c-0.4,0-0.7,0.1-1,0.3c-0.3,0.2-0.6,0.4-0.7,0.7c0.2,0.3,0.4,0.5,0.7,0.7c0.3,0.2,0.6,0.3,1,0.3
	c0.4,0,0.7-0.1,1-0.3c0.3-0.2,0.6-0.4,0.8-0.7c-0.2-0.3-0.5-0.5-0.8-0.7C544.1,187.6,543.8,187.6,543.4,187.6z M543.4,189.4
	c-0.2,0-0.4-0.1-0.6-0.2c-0.2-0.2-0.2-0.4-0.2-0.6c0-0.1,0-0.2,0.1-0.3c0-0.1,0.1-0.2,0.2-0.3c0.1-0.1,0.2-0.1,0.3-0.2
	c0.1,0,0.2-0.1,0.3-0.1c0.1,0,0.2,0,0.3,0.1c0.1,0,0.2,0.1,0.3,0.2c0.1,0.1,0.1,0.2,0.2,0.3c0,0.1,0.1,0.2,0.1,0.3
	c0,0.2-0.1,0.4-0.2,0.6C543.9,189.3,543.7,189.4,543.4,189.4z"/>
<path class="st0" d="M544.1,188.5c0,0.1,0,0.2,0,0.2c0,0.1-0.1,0.1-0.1,0.2c-0.1,0.1-0.1,0.1-0.2,0.1c-0.1,0-0.2,0-0.2,0
	c-0.2,0-0.3-0.1-0.5-0.2c-0.1-0.1-0.2-0.3-0.2-0.5c0-0.1,0-0.2,0-0.2c0-0.1,0.1-0.1,0.1-0.2c0.1-0.1,0.1-0.1,0.2-0.1
	c0.1,0,0.2,0,0.2,0c0.2,0,0.3,0.1,0.4,0.2C544,188.2,544.1,188.4,544.1,188.5z"/>
<path class="st0" d="M543.4,193.3c-0.4,0-0.7,0.1-1,0.3c-0.3,0.2-0.6,0.4-0.7,0.7c0.2,0.3,0.4,0.5,0.7,0.7c0.3,0.2,0.6,0.3,1,0.3
	c0.4,0,0.7-0.1,1-0.3c0.3-0.2,0.6-0.4,0.8-0.7c-0.2-0.3-0.5-0.5-0.8-0.7C544.1,193.4,543.8,193.3,543.4,193.3L543.4,193.3z
	 M543.4,195.1c-0.2,0-0.4-0.1-0.6-0.2c-0.2-0.2-0.2-0.4-0.2-0.6s0.1-0.4,0.2-0.6s0.4-0.2,0.6-0.2c0.2,0,0.4,0.1,0.6,0.2
	s0.2,0.4,0.2,0.6s-0.1,0.4-0.2,0.6C543.9,195,543.7,195.1,543.4,195.1L543.4,195.1z"/>
<path class="st0" d="M544.1,194.3c0,0.1,0,0.2,0,0.2c0,0.1-0.1,0.1-0.1,0.2c-0.1,0.1-0.1,0.1-0.2,0.1c-0.1,0-0.2,0-0.2,0
	c-0.2,0-0.3-0.1-0.5-0.2c-0.1-0.1-0.2-0.3-0.2-0.5c0-0.1,0-0.2,0-0.2c0-0.1,0.1-0.1,0.1-0.2c0.1-0.1,0.1-0.1,0.2-0.1
	c0.1,0,0.2,0,0.2,0c0.2,0,0.3,0.1,0.4,0.2C544,193.9,544.1,194.1,544.1,194.3z"/>
<path class="st0" d="M543.4,198.7c-0.4,0-0.7,0.1-1,0.3s-0.6,0.4-0.7,0.7c0.2,0.3,0.4,0.5,0.7,0.7c0.3,0.2,0.6,0.3,1,0.3
	c0.4,0,0.7-0.1,1-0.3c0.3-0.2,0.6-0.4,0.8-0.7c-0.2-0.3-0.5-0.5-0.8-0.7C544.1,198.8,543.8,198.7,543.4,198.7L543.4,198.7z
	 M543.4,200.5c-0.2,0-0.3,0-0.5-0.1c-0.1-0.1-0.2-0.2-0.3-0.4c-0.1-0.1-0.1-0.3,0-0.5c0-0.2,0.1-0.3,0.2-0.4
	c0.1-0.1,0.3-0.2,0.4-0.2c0.2,0,0.3,0,0.5,0c0.1,0.1,0.3,0.2,0.4,0.3c0.1,0.1,0.1,0.3,0.1,0.5c0,0.2-0.1,0.4-0.2,0.6
	C543.9,200.4,543.7,200.5,543.4,200.5L543.4,200.5z"/>
<path class="st0" d="M544.1,199.7c0,0.1,0,0.2,0,0.2c0,0.1-0.1,0.1-0.1,0.2c-0.1,0.1-0.1,0.1-0.2,0.1c-0.1,0-0.2,0-0.2,0
	c-0.2,0-0.3-0.1-0.5-0.2c-0.1-0.1-0.2-0.3-0.2-0.5c0-0.1,0-0.2,0-0.2c0-0.1,0.1-0.1,0.1-0.2c0.1-0.1,0.1-0.1,0.2-0.1
	c0.1,0,0.2,0,0.2,0c0.2,0,0.3,0.1,0.4,0.2C544,199.4,544.1,199.5,544.1,199.7z"/>
<path class="st0" d="M579.4,191.4h-38.6v0.2h38.6V191.4z"/>
<path class="st0" d="M579.4,196.9h-38.6v0.2h38.6V196.9z"/>
<path class="st0" d="M557.1,189.7C557.1,189.7,557.1,189.8,557.1,189.7C557.1,189.8,557.1,189.7,557.1,189.7l-0.1-2.6c0,0,0,0,0,0
	c0,0,0,0,0,0c0,0,0,0,0,0c0,0,0,0,0,0c0,0,0,0,0.1,0c0,0,0,0,0,0.1v2.5h1.3c0,0,0.1,0,0.1,0s0,0,0,0.1c0,0,0,0,0,0c0,0,0,0,0,0
	H557.1z"/>
<path class="st0" d="M560.9,187.9v1.8c0,0,0,0,0,0.1c0,0,0,0-0.1,0c0,0-0.1,0-0.1,0c0,0,0,0,0-0.1v-0.3c-0.1,0.1-0.2,0.2-0.3,0.3
	c-0.1,0.1-0.3,0.1-0.4,0.1c-0.3,0-0.5-0.1-0.7-0.3c-0.2-0.2-0.3-0.4-0.3-0.7c0-0.1,0-0.2,0.1-0.4c0-0.1,0.1-0.2,0.2-0.3
	c0.1-0.1,0.2-0.2,0.3-0.2c0.1-0.1,0.2-0.1,0.4-0.1c0.1,0,0.3,0,0.4,0.1c0.1,0.1,0.2,0.2,0.3,0.3v-0.3c0,0,0,0,0-0.1
	C560.7,187.8,560.8,187.8,560.9,187.9C560.8,187.8,560.8,187.8,560.9,187.9C560.9,187.8,560.9,187.9,560.9,187.9z M560.7,188.8
	c0-0.1,0-0.2,0-0.3c0-0.1-0.1-0.2-0.2-0.3c-0.1-0.1-0.2-0.1-0.2-0.2c-0.1,0-0.2-0.1-0.3-0.1c-0.2,0-0.4,0.1-0.6,0.2
	c-0.1,0.1-0.2,0.4-0.2,0.6c0,0.2,0.1,0.4,0.2,0.6c0.1,0.1,0.4,0.2,0.6,0.2c0.1,0,0.2,0,0.3,0c0.1,0,0.2-0.1,0.3-0.2
	c0.1-0.1,0.1-0.2,0.2-0.3C560.8,189,560.8,188.9,560.7,188.8L560.7,188.8z"/>
<path class="st0" d="M560.9,193.6v1.8c0,0,0,0,0,0.1c0,0,0,0-0.1,0c0,0,0,0-0.1,0c0,0,0,0,0-0.1v-0.3c-0.1,0.1-0.2,0.2-0.3,0.3
	c-0.1,0.1-0.3,0.1-0.4,0.1c-0.2,0-0.4-0.2-0.6-0.3c-0.1-0.2-0.2-0.4-0.2-0.6c0-0.2,0.1-0.4,0.2-0.6c0.1-0.2,0.3-0.3,0.6-0.3
	c0.1,0,0.3,0,0.4,0.1c0.1,0.1,0.2,0.2,0.3,0.3v-0.3c0,0,0-0.1,0-0.1C560.7,193.6,560.8,193.6,560.9,193.6
	C560.8,193.6,560.8,193.6,560.9,193.6C560.9,193.6,560.9,193.6,560.9,193.6L560.9,193.6z M560.7,194.5c0-0.1,0-0.2,0-0.3
	c0-0.1-0.1-0.2-0.2-0.3c-0.1-0.1-0.2-0.1-0.2-0.2c-0.1,0-0.2-0.1-0.3-0.1c-0.2,0-0.4,0.1-0.6,0.2c-0.1,0.1-0.2,0.4-0.2,0.6
	c0,0.2,0.1,0.4,0.2,0.6c0.1,0.1,0.4,0.2,0.6,0.2c0.1,0,0.2,0,0.3,0c0.1,0,0.2-0.1,0.3-0.2c0.1-0.1,0.1-0.2,0.2-0.3
	C560.8,194.7,560.8,194.6,560.7,194.5L560.7,194.5z"/>
<path class="st0" d="M561.7,193.6h0.1v1.1c0,0.2,0.1,0.3,0.2,0.4c0.1,0.1,0.3,0.2,0.4,0.2c0.2,0,0.3-0.1,0.4-0.2
	c0.1-0.1,0.2-0.3,0.2-0.4v-1.1h0.2v1.8c0,0.2-0.1,0.5-0.3,0.6c-0.2,0.2-0.4,0.3-0.7,0.3c-0.1,0-0.3,0-0.4-0.1V196c0,0,0,0,0.1,0
	c0.1,0,0.2,0,0.3,0c0.2,0,0.4-0.1,0.5-0.2c0.1-0.1,0.2-0.3,0.2-0.5v-0.1c-0.1,0.1-0.2,0.2-0.3,0.2c-0.1,0-0.2,0.1-0.3,0.1
	c-0.2,0-0.4-0.1-0.6-0.2c-0.1-0.1-0.2-0.4-0.2-0.6L561.7,193.6z"/>
<path class="st0" d="M563.9,194.5c0-0.1,0-0.3,0.1-0.4c0-0.1,0.1-0.2,0.2-0.3c0.1-0.1,0.2-0.2,0.3-0.2c0.1,0,0.2-0.1,0.4-0.1
	c0.2,0,0.5,0.1,0.7,0.3c0.2,0.2,0.3,0.4,0.3,0.6c0,0,0,0,0,0c0,0,0,0,0,0c0,0,0,0,0,0c0,0,0,0,0,0h-1.6c0,0.2,0.1,0.4,0.2,0.5
	c0.1,0.1,0.3,0.2,0.5,0.2c0.1,0,0.3,0,0.4-0.1c0.1-0.1,0.2-0.2,0.3-0.3c0,0,0,0,0.1,0s0,0,0.1,0c0,0,0,0,0,0.1c0,0,0,0,0,0.1
	c-0.1,0.1-0.2,0.2-0.3,0.3c-0.1,0.1-0.3,0.1-0.5,0.1c-0.3,0-0.5-0.1-0.7-0.3C564,195,563.9,194.8,563.9,194.5L563.9,194.5z
	 M564.1,194.3h1.5c0-0.2-0.1-0.3-0.3-0.4c-0.1-0.1-0.3-0.2-0.5-0.2c-0.2,0-0.4,0.1-0.5,0.2C564.2,194,564.2,194.2,564.1,194.3
	L564.1,194.3z"/>
<path class="st0" d="M566.4,193.6C566.4,193.6,566.4,193.6,566.4,193.6C566.5,193.5,566.5,193.5,566.4,193.6
	c0.1-0.1,0.1-0.1,0.2-0.1c0,0,0,0,0,0.1v0.5c0.1-0.1,0.2-0.3,0.3-0.3c0.1-0.1,0.3-0.1,0.5-0.1c0,0,0.1,0,0.1,0c0,0,0,0,0,0.1
	s0,0.1,0,0.1c0,0,0,0-0.1,0c-0.1,0-0.2,0-0.3,0.1c-0.1,0.1-0.2,0.1-0.2,0.2c-0.1,0.1-0.2,0.3-0.2,0.5v0.9h-0.2L566.4,193.6z"/>
<path class="st0" d="M560.9,199.4v1.8c0,0,0,0.1,0,0.1c0,0,0,0-0.1,0c0,0,0,0-0.1,0c0,0,0,0,0-0.1v-0.3c-0.1,0.1-0.2,0.2-0.3,0.3
	c-0.1,0.1-0.3,0.1-0.4,0.1c-0.2,0-0.4-0.2-0.6-0.3c-0.1-0.2-0.2-0.4-0.2-0.6c0-0.2,0.1-0.4,0.2-0.6c0.1-0.2,0.3-0.3,0.6-0.3
	c0.1,0,0.3,0,0.4,0.1c0.1,0.1,0.2,0.2,0.3,0.3v-0.3c0,0,0-0.1,0-0.1C560.7,199.3,560.8,199.3,560.9,199.4
	C560.8,199.3,560.8,199.3,560.9,199.4C560.9,199.4,560.9,199.4,560.9,199.4L560.9,199.4z M560.7,200.3c0-0.2-0.1-0.4-0.2-0.5
	c-0.1-0.1-0.3-0.2-0.5-0.2c-0.2,0-0.4,0.1-0.5,0.3c-0.1,0.1-0.2,0.3-0.2,0.5c0,0.2,0.1,0.4,0.2,0.5c0.1,0.1,0.3,0.2,0.5,0.2
	c0.1,0,0.2,0,0.3,0c0.1,0,0.2-0.1,0.3-0.2c0.1-0.1,0.1-0.2,0.2-0.3C560.8,200.5,560.8,200.4,560.7,200.3L560.7,200.3z"/>
<path class="st0" d="M561.7,199.4h0.1v1.1c0,0.1,0,0.2,0,0.2c0,0.1,0.1,0.1,0.1,0.2c0.1,0.1,0.1,0.1,0.2,0.1c0.1,0,0.2,0,0.2,0
	c0.2,0,0.3-0.1,0.4-0.2c0.1-0.1,0.2-0.3,0.2-0.4v-1.1h0.2v1.8c0,0.2-0.1,0.5-0.3,0.6c-0.2,0.2-0.4,0.3-0.7,0.3c-0.1,0-0.3,0-0.4-0.1
	v-0.1c0,0,0,0,0.1,0c0.1,0,0.2,0,0.3,0c0.2,0,0.4-0.1,0.5-0.2c0.1-0.1,0.2-0.3,0.2-0.5v-0.1c-0.1,0.1-0.2,0.2-0.3,0.2
	c-0.1,0-0.2,0.1-0.3,0.1c-0.2,0-0.4-0.1-0.6-0.2c-0.1-0.1-0.2-0.4-0.2-0.6L561.7,199.4z"/>
<path class="st0" d="M563.9,200.3c0-0.1,0-0.3,0.1-0.4c0-0.1,0.1-0.2,0.2-0.3c0.1-0.1,0.2-0.2,0.3-0.2c0.1,0,0.2-0.1,0.4-0.1
	c0.2,0,0.5,0.1,0.7,0.3c0.2,0.2,0.3,0.4,0.3,0.6c0,0,0,0-0.1,0h-1.6c0,0.2,0.1,0.4,0.2,0.5c0.1,0.1,0.3,0.2,0.5,0.2
	c0.1,0,0.3,0,0.4-0.1c0.1-0.1,0.2-0.2,0.3-0.3c0,0,0,0,0.1,0s0,0,0.1,0c0,0,0,0,0,0.1s0,0,0,0.1c-0.1,0.1-0.2,0.2-0.3,0.3
	c-0.1,0.1-0.3,0.1-0.5,0.1c-0.2,0-0.5-0.1-0.6-0.3S563.9,200.5,563.9,200.3L563.9,200.3z M564.1,200.1h1.5c0-0.2-0.1-0.3-0.3-0.4
	c-0.1-0.1-0.3-0.2-0.5-0.2c-0.2,0-0.4,0.1-0.5,0.2C564.2,199.8,564.2,199.9,564.1,200.1L564.1,200.1z"/>
<path class="st6" d="M554.3,191.9h-1.3v4.7h1.3V191.9z"/>
<path class="st4" d="M554.3,197.4h-1.3v4.7h1.3V197.4z"/>
<path class="st5" d="M554.3,186.2h-1.3v4.7h1.3V186.2z"/>
<path class="st0" d="M548.1,205h-7.3v0.2h7.3V205z"/>
<path class="st0" d="M550.8,188.2h-2.5v2.1h2.5V188.2z"/>
<path class="st0" d="M550.5,188.5h-0.3v-0.6c0-0.6-0.2-0.9-0.7-0.9c-0.4,0-0.7,0.8-0.7,0.9v0.6h-0.3v-0.6c0-0.1,0-0.3,0-0.4
	c0-0.1,0.1-0.3,0.2-0.4c0.1-0.1,0.2-0.2,0.3-0.3s0.3-0.1,0.4-0.1c0.6,0,0.9,0.4,0.9,1.2V188.5z"/>
<path class="st0" d="M576,189.8c-0.3,0-0.5-0.1-0.7-0.2c-0.2-0.1-0.4-0.3-0.5-0.6c-0.1-0.2-0.1-0.5-0.1-0.8c0.1-0.3,0.2-0.5,0.4-0.7
	c0.2-0.2,0.4-0.3,0.7-0.4c0.3-0.1,0.5,0,0.7,0.1c0.2,0.1,0.4,0.3,0.6,0.5c0.1,0.2,0.2,0.5,0.2,0.7c0,0.2,0,0.3-0.1,0.5
	c-0.1,0.2-0.2,0.3-0.3,0.4c-0.1,0.1-0.3,0.2-0.4,0.3C576.3,189.8,576.2,189.8,576,189.8L576,189.8z M576,187.4c-0.1,0-0.3,0-0.4,0.1
	c-0.1,0.1-0.3,0.1-0.4,0.2c-0.1,0.1-0.2,0.2-0.2,0.4c-0.1,0.1-0.1,0.3-0.1,0.4c0,0.3,0.1,0.6,0.3,0.8c0.2,0.2,0.5,0.3,0.8,0.3
	c0.3,0,0.6-0.1,0.8-0.3c0.2-0.2,0.3-0.5,0.3-0.8c0-0.3-0.1-0.6-0.3-0.8C576.6,187.5,576.3,187.4,576,187.4L576,187.4z"/>
<path class="st0" d="M576,195.5c-0.3,0-0.5-0.1-0.7-0.2c-0.2-0.1-0.4-0.3-0.5-0.6c-0.1-0.2-0.1-0.5-0.1-0.7c0.1-0.3,0.2-0.5,0.4-0.7
	c0.2-0.2,0.4-0.3,0.7-0.4c0.3,0,0.5,0,0.7,0.1c0.2,0.1,0.4,0.3,0.6,0.5c0.1,0.2,0.2,0.5,0.2,0.7c0,0.2,0,0.3-0.1,0.5
	c-0.1,0.2-0.2,0.3-0.3,0.4c-0.1,0.1-0.3,0.2-0.4,0.3C576.3,195.5,576.2,195.5,576,195.5L576,195.5z M576,193.1
	c-0.3,0-0.6,0.1-0.8,0.3c-0.2,0.2-0.3,0.5-0.3,0.8c0,0.3,0.1,0.6,0.3,0.8c0.2,0.2,0.5,0.3,0.8,0.3c0.3,0,0.6-0.1,0.8-0.3
	c0.2-0.2,0.3-0.5,0.3-0.8c0-0.3-0.1-0.6-0.3-0.8C576.6,193.2,576.3,193.1,576,193.1L576,193.1z"/>
<path class="st0" d="M576,201.3c-0.3,0-0.5-0.1-0.7-0.2c-0.2-0.1-0.4-0.3-0.5-0.6c-0.1-0.2-0.1-0.5-0.1-0.7c0.1-0.3,0.2-0.5,0.4-0.7
	c0.2-0.2,0.4-0.3,0.7-0.4c0.3,0,0.5,0,0.7,0.1c0.2,0.1,0.4,0.3,0.6,0.5c0.1,0.2,0.2,0.5,0.2,0.7c0,0.2,0,0.3-0.1,0.5
	c-0.1,0.2-0.2,0.3-0.3,0.4c-0.1,0.1-0.3,0.2-0.4,0.3C576.3,201.2,576.2,201.3,576,201.3L576,201.3z M576,198.8
	c-0.3,0-0.6,0.1-0.8,0.3c-0.2,0.2-0.3,0.5-0.3,0.8c0,0.3,0.1,0.6,0.3,0.8c0.2,0.2,0.5,0.3,0.8,0.3c0.3,0,0.6-0.1,0.8-0.3
	c0.2-0.2,0.3-0.5,0.3-0.8c0-0.3-0.1-0.6-0.3-0.8C576.6,199,576.3,198.8,576,198.8L576,198.8z"/>
<path class="st6" d="M427.1,389.5h-17L394.8,363h17L427.1,389.5z"/>
<path class="st7" d="M394.8,363v26.5h15.3L394.8,363z"/>
<path class="st6" d="M331.6,389.5h-17L299.2,363h17L331.6,389.5z"/>
<path class="st4" d="M299.2,363v26.5h15.3L299.2,363z"/>
<path class="st4" d="M403,389.5H263l34-93.4h140L403,389.5z"/>
<path class="st7" d="M397.9,389.5h-140l34-93.4h140L397.9,389.5z"/>
<path class="st2" d="M391.5,383.8H268.4l29.9-82.1h123.1L391.5,383.8z"/>
<path class="st9" d="M321.6,315.4c-3.2,7-7.2,14-9.1,15.5c-2.4,1.4-5.1,2.2-7.9,2.3l-1.4,0.2c-5.5,0.4-11.5-0.2-13.1-2.4
	c-0.6-1.3-0.9-2.9-0.7-4.3l9-24.8h27.7c-0.1,1.9-0.5,3.9-1.1,5.7C323.8,310.1,322.8,312.8,321.6,315.4z"/>
<path class="st10" d="M324,307.7c-1.8,1.1-3.1,6.7-2.5,7.6c0.6,0.9,4.2,0.6,5,0c0.8-0.6,3.3-5.5,3-6.7
	C329.3,307.5,325.3,306.9,324,307.7z"/>
<path class="st9" d="M410.3,332.3l-18.8,51.6h-16.3c-6.7-2.7-12.2-7-12.2-10.9c0-3.3,3.7-10.6,8.5-18.1c0.2-0.4,0.5-0.8,0.8-1.2
	c0.8-1.2,1.5-2.4,2.3-3.5c0.3-0.5,0.7-1,1-1.4c2.3-3.4,4.7-6.7,6.9-9.4c2-2.7,4.3-5.2,6.9-7.3c1.9-0.9,3.9-1.4,6-1.4
	C400.4,330.3,405.5,330.9,410.3,332.3L410.3,332.3z"/>
<path class="st11" d="M417.2,301.8c-1.9,2.9-4.3,5.4-7.1,7.4c-16,9.5-52.9,5.5-56.2-1.4c-0.7-1.9-0.9-4-0.6-6H417.2z"/>
<path class="st10" d="M339.1,383.9h-70.7l2.4-6.5c7.3-9.9,18.4-21,26.1-23.2c4-1.2,10.4-0.5,17,1.6c3.5,1.1,6.8,2.4,10,4.1
	c2.5,1.3,5,2.8,7.2,4.5l0.9,0.7c5.2,4.1,8.7,9.1,8.2,14.2C340.1,380.8,339.7,382.4,339.1,383.9L339.1,383.9z"/>
<path class="st10" d="M384,320.6c-4.6,3.2-7.1,14.9-5.5,17.2c1.5,2.3,9.7,1.8,12.3,0.1c2.6-1.7,7.9-13,6.5-16.7
	C396.5,319.2,388.2,317.6,384,320.6z"/>
<path class="st10" d="M314,306.4c0.2-0.5-0.6-0.5-0.8,0c-5.8,14.1-10.6,28.2-15.2,42.3c-0.1,0.3,0.3,0.3,0.5,0
	C304.1,334.7,309.6,320.5,314,306.4z"/>
<path class="st10" d="M320.9,301.8c-3.2,8.9-6.7,17.9-10.3,26.8c-0.1,0.3-0.6,0.3-0.5,0c2.9-8.9,5.9-17.9,9.2-26.8H320.9z"/>
<path class="st9" d="M325.3,383.9h-1.5c2.3-6.6,4.7-13.1,7.3-19.7c0.6-1.5,1.2-3,1.9-4.6c0.2-0.5,0.9-0.5,0.8,0
	c-0.6,1.8-1.1,3.5-1.7,5.3C330,371.2,327.7,377.5,325.3,383.9z"/>
<path class="st9" d="M320,383.9h-1.5c1.6-4.4,3.3-8.7,5.2-13.1c0.2-0.5,0.9-0.5,0.8,0C323,375.1,321.5,379.5,320,383.9z"/>
<path class="st10" d="M384.6,349.7c0.5,0,0.8-0.8,0.3-0.8c-13.8-0.7-28.1-0.4-42.3,0.1c-0.3,0-0.5,0.5-0.2,0.5
	C356.1,350.1,370.2,350.4,384.6,349.7z"/>
<path class="st10" d="M402.5,353.8l-0.3,0.8c-10.3,0.5-20.5,0.4-30.7,0.2c-3.6-0.1-7.2-0.2-10.8-0.3c-0.3,0-0.2-0.5,0.2-0.5
	l11.4-0.4C382.4,353.3,392.6,353.3,402.5,353.8z"/>
<path class="st11" d="M317.2,350.1c-3.2,2.3-5,10.4-3.9,12c1.1,1.6,6.8,1.3,8.6,0.1c1.8-1.2,5.6-9.1,4.6-11.6
	C325.9,349.1,320.1,348,317.2,350.1z"/>
<path class="st4" d="M315,340.7l2.6-7.2h0.7L316,340h4.2l-0.2,0.6H315z"/>
<path class="st4" d="M322.8,340.8c-0.3,0-0.7-0.1-1-0.2c-0.3-0.1-0.5-0.4-0.6-0.6c-0.1-0.3-0.2-0.6-0.2-0.8c0-0.4,0.1-0.7,0.2-1
	c0.1-0.4,0.3-0.7,0.6-1.1c0.3-0.3,0.5-0.6,0.9-0.9c0.3-0.2,0.7-0.4,1-0.6c0.4-0.2,0.7-0.2,1.1-0.2c0.3,0,0.7,0.1,1,0.2
	c0.3,0.1,0.5,0.3,0.6,0.6c0.2,0.3,0.2,0.6,0.2,0.9c0,0.4,0,0.7-0.2,1.1c-0.1,0.4-0.3,0.7-0.6,1c-0.3,0.3-0.5,0.6-0.9,0.9
	c-0.3,0.2-0.7,0.5-1,0.6C323.6,340.7,323.2,340.8,322.8,340.8L322.8,340.8z M321.9,338c-0.1,0.3-0.2,0.5-0.2,0.8
	c0,0.2,0.1,0.5,0.2,0.7c0.1,0.2,0.3,0.3,0.4,0.4c0.2,0.1,0.4,0.2,0.7,0.2c0.3,0,0.6-0.1,0.8-0.2c0.3-0.1,0.5-0.3,0.8-0.5
	c0.2-0.2,0.5-0.4,0.7-0.7c0.2-0.3,0.4-0.5,0.5-0.8c0.1-0.3,0.1-0.5,0.1-0.8c0-0.2-0.1-0.5-0.2-0.7c-0.1-0.2-0.3-0.4-0.5-0.5
	c-0.2-0.1-0.4-0.2-0.7-0.2c-0.3,0-0.6,0.1-0.8,0.2c-0.3,0.1-0.5,0.3-0.8,0.5c-0.3,0.2-0.5,0.4-0.7,0.7
	C322.2,337.4,322,337.7,321.9,338z"/>
<path class="st4" d="M331,336c-0.5,0-0.9,0.1-1.4,0.4c-0.4,0.2-0.8,0.6-1.1,1l-1.2,3.3h-0.7l1.9-5.3h0.6l-0.5,1.3
	c0.3-0.4,0.7-0.7,1.2-1c0.4-0.2,0.8-0.3,1.2-0.3h0.1L331,336z"/>
<path class="st4" d="M332.3,340.8c-0.3,0-0.7-0.1-1-0.2c-0.3-0.1-0.5-0.3-0.6-0.6c-0.2-0.3-0.2-0.6-0.3-0.9c0-0.4,0.1-0.7,0.2-1.1
	c0.1-0.4,0.3-0.7,0.6-1c0.3-0.3,0.5-0.6,0.9-0.9c0.3-0.2,0.7-0.4,1-0.6c0.4-0.1,0.8-0.2,1.1-0.2c0.3,0,0.7,0.1,1,0.2
	c0.3,0.1,0.5,0.3,0.6,0.6c0.1,0.3,0.2,0.6,0.2,0.9c0,0.4,0,0.7-0.2,1v0.2c0,0,0,0.1,0,0.1h-4.5c-0.1,0.3-0.1,0.5,0,0.8
	c0,0.2,0.1,0.4,0.2,0.6c0.1,0.2,0.3,0.3,0.4,0.4c0.2,0.1,0.4,0.2,0.7,0.2c0.2,0,0.4,0,0.5,0c0.2,0,0.4-0.1,0.5-0.2
	c0.2-0.1,0.3-0.2,0.5-0.3c0.2-0.1,0.3-0.3,0.4-0.4l0.5,0.2c-0.2,0.2-0.3,0.4-0.5,0.5c-0.2,0.2-0.4,0.3-0.7,0.4
	c-0.2,0.1-0.5,0.2-0.8,0.3C333,340.8,332.6,340.8,332.3,340.8L332.3,340.8z M335.4,337.7c0-0.3,0-0.5,0-0.8c0-0.2-0.1-0.4-0.2-0.6
	c-0.1-0.2-0.3-0.3-0.4-0.4c-0.2-0.1-0.4-0.1-0.7-0.1c-0.6,0-1.1,0.2-1.5,0.5c-0.2,0.2-0.5,0.4-0.6,0.6c-0.2,0.2-0.4,0.5-0.5,0.8
	H335.4z"/>
<path class="st4" d="M343.9,340.7h-0.7l1.1-3c0.2-0.4,0.3-0.9,0.2-1.4c-0.1-0.3-0.3-0.4-0.7-0.4c-0.2,0-0.4,0-0.6,0.1
	c-0.2,0.1-0.4,0.2-0.6,0.3c-0.2,0.1-0.4,0.3-0.6,0.5c-0.2,0.2-0.3,0.4-0.5,0.6l-1.2,3.2h-0.7l1.1-3c0.2-0.4,0.3-0.9,0.2-1.4
	c0-0.3-0.3-0.4-0.7-0.4c-0.4,0-0.9,0.2-1.2,0.4c-0.4,0.3-0.8,0.7-1.1,1.1l-1.2,3.3H336l1.9-5.3h0.6l-0.4,1.2
	c0.3-0.4,0.7-0.7,1.2-0.9c0.4-0.2,0.8-0.3,1.3-0.3c0.2,0,0.4,0,0.5,0.1c0.2,0.1,0.3,0.2,0.4,0.3c0.1,0.1,0.1,0.3,0.2,0.5
	c0,0.2,0,0.3,0,0.5c0.3-0.4,0.7-0.7,1.1-1c0.4-0.2,0.9-0.4,1.4-0.4c0.2,0,0.5,0,0.7,0.2c0.1,0,0.2,0.1,0.2,0.2
	c0.1,0.1,0.1,0.2,0.1,0.3c0,0.2,0,0.5,0,0.7c-0.1,0.3-0.1,0.6-0.3,0.9L343.9,340.7z"/>
<path class="st4" d="M350.3,334.2l0.4-1h0.7l-0.4,1H350.3z M347.9,340.7l1.9-5.3h0.7l-1.9,5.3H347.9z"/>
<path class="st4" d="M352.8,340.8c-0.4,0-0.8-0.1-1.1-0.3c-0.3-0.2-0.4-0.5-0.5-0.9l-1.2,3.3h-0.7l2.7-7.5h0.6l-0.4,1
	c0.3-0.3,0.7-0.6,1.1-0.8c0.4-0.2,0.8-0.3,1.3-0.3c0.3,0,0.6,0.1,0.9,0.2c0.2,0.1,0.5,0.4,0.6,0.6c0.1,0.3,0.2,0.6,0.2,0.9
	c0,0.3-0.1,0.7-0.2,1c-0.2,0.6-0.5,1.1-0.9,1.5c-0.4,0.4-0.9,0.8-1.4,1C353.5,340.7,353.2,340.8,352.8,340.8L352.8,340.8z
	 M352.8,340.2c0.3,0,0.6-0.1,0.9-0.2c0.3-0.1,0.5-0.3,0.8-0.5c0.2-0.2,0.5-0.4,0.6-0.7c0.2-0.2,0.3-0.5,0.4-0.8
	c0.1-0.3,0.2-0.5,0.2-0.8c0-0.2-0.1-0.5-0.2-0.7c-0.1-0.2-0.3-0.4-0.4-0.5c-0.2-0.1-0.5-0.2-0.7-0.2c-0.2,0-0.4,0-0.6,0.1
	c-0.2,0.1-0.4,0.2-0.6,0.3c-0.2,0.1-0.4,0.3-0.6,0.4c-0.2,0.1-0.3,0.3-0.4,0.5l-0.6,1.6c0,0.2,0.1,0.4,0.1,0.5
	c0.1,0.2,0.2,0.3,0.3,0.4C352.1,340,352.5,340.1,352.8,340.2L352.8,340.2z"/>
<path class="st4" d="M358.2,340.8c-0.4,0-0.8-0.1-1.1-0.2c-0.3-0.1-0.6-0.3-0.8-0.6l0.5-0.5c0.2,0.2,0.4,0.4,0.7,0.5
	c0.3,0.1,0.6,0.2,0.9,0.2c0.4,0,0.8-0.1,1.1-0.3c0.3-0.2,0.5-0.4,0.6-0.8c0-0.1,0-0.2,0-0.4c0-0.1-0.1-0.2-0.2-0.3
	c-0.1-0.1-0.3-0.2-0.4-0.2l-0.6-0.2c-0.2-0.1-0.5-0.1-0.7-0.2c-0.2-0.1-0.3-0.2-0.5-0.3c-0.1,0-0.1-0.1-0.1-0.2
	c0-0.1-0.1-0.1-0.1-0.2c0-0.2,0-0.4,0-0.5c0.1-0.3,0.2-0.5,0.4-0.7c0.2-0.2,0.4-0.4,0.6-0.5c0.2-0.1,0.5-0.2,0.7-0.3
	c0.3-0.1,0.5-0.1,0.8-0.1c0.4,0,0.7,0.1,1,0.2c0.3,0.1,0.5,0.3,0.6,0.5l-0.5,0.4c-0.1-0.2-0.3-0.4-0.5-0.5c-0.3-0.1-0.5-0.2-0.8-0.2
	c-0.2,0-0.3,0-0.5,0c-0.2,0-0.3,0.1-0.5,0.2c-0.1,0.1-0.3,0.2-0.4,0.3c-0.2,0.2-0.3,0.5-0.3,0.8c0,0.1,0.1,0.2,0.2,0.2l0.3,0.2
	l0.6,0.2c0.3,0.1,0.5,0.1,0.8,0.3c0.2,0.1,0.4,0.2,0.5,0.3c0.1,0.1,0.2,0.2,0.3,0.4c0.1,0.2,0.1,0.4,0,0.6c-0.2,0.5-0.5,0.9-1,1.2
	C359.3,340.6,358.7,340.7,358.2,340.8L358.2,340.8z"/>
<path class="st4" d="M363,340.8c-0.6,0-0.9-0.2-1.1-0.6c-0.1-0.6-0.1-1.2,0.2-1.7l1.1-3.1h0.7l-1.1,3c-0.4,1.2-0.2,1.8,0.6,1.8
	c0.2,0,0.4,0,0.6-0.1c0.2-0.1,0.5-0.2,0.7-0.3c0.2-0.1,0.4-0.3,0.6-0.4c0.2-0.2,0.4-0.4,0.5-0.6l1.2-3.3h0.7l-1.6,4.4
	c0,0.2,0,0.3,0.1,0.3l-0.2,0.6h-0.3c-0.1,0-0.1,0-0.2,0c-0.1,0-0.1-0.1-0.1-0.1c0-0.1,0-0.1,0-0.2c0-0.1,0-0.2,0-0.2l0.2-0.6
	c-0.4,0.4-0.8,0.7-1.3,1C363.9,340.6,363.5,340.7,363,340.8z"/>
<path class="st4" d="M375.3,340.7h-0.7l1.1-3c0.2-0.4,0.3-0.9,0.2-1.4c-0.1-0.3-0.3-0.4-0.7-0.4c-0.2,0-0.4,0-0.6,0.1
	c-0.2,0.1-0.4,0.2-0.6,0.3c-0.2,0.1-0.4,0.3-0.6,0.5c-0.2,0.2-0.4,0.4-0.5,0.6l-1.2,3.2H371l1.1-3c0.2-0.4,0.3-0.9,0.2-1.4
	c-0.1-0.3-0.3-0.4-0.7-0.4c-0.4,0-0.9,0.2-1.2,0.4c-0.4,0.3-0.8,0.7-1.1,1.1l-1.2,3.3h-0.7l1.9-5.3h0.6l-0.4,1.2
	c0.3-0.4,0.7-0.7,1.2-0.9c0.4-0.2,0.8-0.3,1.3-0.3c0.2,0,0.4,0,0.5,0.1c0.2,0.1,0.3,0.2,0.4,0.3c0.1,0.1,0.2,0.3,0.2,0.5
	c0,0.2,0,0.3,0,0.5c0.3-0.4,0.7-0.7,1.1-1c0.4-0.2,0.9-0.4,1.4-0.4c0.2,0,0.5,0,0.7,0.2c0.2,0.1,0.3,0.3,0.3,0.5c0,0.2,0,0.5,0,0.7
	c0,0.3-0.1,0.6-0.3,0.9L375.3,340.7z"/>
<path class="st4" d="M379.5,346.4h-0.7l0.1-0.3h0.4l0.2-0.4h0.3L379.5,346.4z"/>
<path class="st4" d="M377.7,346.4h-1.1v-0.3h1.1L377.7,346.4z M375.4,346.4h-1.1l0.1-0.3h1.1L375.4,346.4z M373.1,346.4H372v-0.3
	h1.1L373.1,346.4z M370.9,346.4h-1.1v-0.3h1.3L370.9,346.4z M368.6,346.4h-1.1l0.1-0.3h1.1L368.6,346.4z M366.3,346.4h-1.1v-0.3h1.1
	L366.3,346.4z M364,346.4h-1.1l0.1-0.3h1.1L364,346.4z M361.8,346.4h-1.1l0.1-0.3h1.1L361.8,346.4z M359.5,346.4h-1.1l0.1-0.3h1.1
	L359.5,346.4z M357.2,346.4h-1.1l0.1-0.3h1.1L357.2,346.4z M354.9,346.4h-1.1l0.1-0.3h1.1L354.9,346.4z M352.7,346.4h-1.1l0.1-0.3
	h1.1L352.7,346.4z M350.4,346.4h-1.1l0.1-0.3h1.1L350.4,346.4z M348.1,346.4H347v-0.3h1.1V346.4z M345.8,346.4h-1.1l0.1-0.3h1.1
	L345.8,346.4z M343.6,346.4h-1.1v-0.3h1.1V346.4z M341.3,346.4h-1.1l0.1-0.3h1.1L341.3,346.4z M339,346.4h-1.1l0.1-0.3h1.1
	L339,346.4z M336.7,346.4h-1.1v-0.3h1.1V346.4z M334.5,346.4h-1.1l0.1-0.3h1.1L334.5,346.4z M332.2,346.4h-1.1v-0.3h1.2L332.2,346.4
	z M329.9,346.4h-1.1l0.1-0.3h1.1L329.9,346.4z M327.6,346.4h-1.2l0.1-0.3h1.1L327.6,346.4z M325.4,346.4h-1.1v-0.3h1.1L325.4,346.4z
	 M323.1,346.4h-1.1l0.1-0.3h1.1L323.1,346.4z M320.8,346.4h-1.1v-0.3h1.1L320.8,346.4z M318.5,346.4h-1.1l0.1-0.3h1.2L318.5,346.4z
	 M316.3,346.4h-1.1l0.1-0.3h1.1L316.3,346.4z M314,346.4h-1.1v-0.3h1.1L314,346.4z M311.7,346.4h-1.1l0.1-0.3h1.1L311.7,346.4z
	 M309.4,346.4h-1.1v-0.3h1.1V346.4z"/>
<path class="st4" d="M307.2,346.4h-0.7l0.3-0.7h0.3l-0.2,0.4h0.4L307.2,346.4z"/>
<path class="st4" d="M307.4,344.6h-0.3l0.4-1.1h0.3L307.4,344.6z M308.2,342.4h-0.3l0.4-1.1h0.3L308.2,342.4z M309,340.2h-0.3
	l0.4-1.1h0.3L309,340.2z M309.8,338h-0.3l0.4-1.1h0.3L309.8,338z M310.6,335.8h-0.3l0.4-1.1h0.3L310.6,335.8z M311.4,333.6h-0.3
	l0.4-1.1h0.3L311.4,333.6z M312.2,331.4h-0.3l0.4-1.1h0.3L312.2,331.4z"/>
<path class="st4" d="M313,329.2h-0.3l0.3-0.7h0.7l-0.1,0.3h-0.4L313,329.2z"/>
<path class="st4" d="M384.1,328.8H383l0.1-0.3h1.1L384.1,328.8z M381.8,328.8h-1.1l0.1-0.3h1.1L381.8,328.8z M379.6,328.8h-1.1
	l0.1-0.3h1.1L379.6,328.8z M377.3,328.8h-1.1l0.1-0.3h1.1L377.3,328.8z M375,328.8h-1.1l0.1-0.3h1.1L375,328.8z M372.7,328.8h-1.1
	l0.1-0.3h1.1L372.7,328.8z M370.5,328.8h-1.1v-0.3h1.1V328.8z M368.2,328.8H367l0.1-0.3h1.1L368.2,328.8z M365.9,328.8h-1.1v-0.3
	h1.1V328.8z M363.6,328.8h-1.1l0.1-0.3h1.1L363.6,328.8z M361.4,328.8h-1.1l0.1-0.3h1.1L361.4,328.8z M359.1,328.8h-1.1l0.1-0.3h1.1
	L359.1,328.8z M356.8,328.8h-1.1l0.1-0.3h1.1L356.8,328.8z M354.5,328.8h-1.1l0.1-0.3h1.1L354.5,328.8z M352.2,328.8h-1.1l0.1-0.3
	h1.1L352.2,328.8z M350,328.8h-1.1l0.1-0.3h1.1L350,328.8z M347.7,328.8h-1.1v-0.3h1.2L347.7,328.8z M345.4,328.8h-1.1l0.1-0.3h1.1
	L345.4,328.8z M343.1,328.8H342v-0.3h1.1L343.1,328.8z M340.9,328.8h-1.1v-0.3h1.1V328.8z M338.6,328.8h-1.1l0.1-0.3h1.1
	L338.6,328.8z M336.3,328.8h-1.1v-0.3h1.1V328.8z M334,328.8h-1.1l0.1-0.3h1.2L334,328.8z M331.8,328.8h-1.1l0.1-0.3h1.1
	L331.8,328.8z M329.5,328.8h-1.1l0.1-0.3h1.1L329.5,328.8z M327.2,328.8h-1.1l0.1-0.3h1.1L327.2,328.8z M324.9,328.8h-1.1l0.1-0.3
	h1.1L324.9,328.8z M322.7,328.8h-1.1l0.1-0.3h1.1L322.7,328.8z M320.4,328.8h-1.1l0.1-0.3h1.1L320.4,328.8z M318.1,328.8H317v-0.3
	h1.1V328.8z M315.8,328.8h-1.1l0.1-0.3h1.1L315.8,328.8z"/>
<path class="st4" d="M385.8,329.2h-0.3l0.2-0.4h-0.4l0.1-0.3h0.7L385.8,329.2z"/>
<path class="st4" d="M380.2,344.6h-0.3l0.4-1.1h0.4L380.2,344.6z M381,342.4h-0.3l0.4-1.1h0.3L381,342.4z M381.8,340.2h-0.3l0.4-1.1
	h0.3L381.8,340.2z M382.6,338h-0.3l0.4-1.1h0.3L382.6,338z M383.4,335.8h-0.3l0.4-1.1h0.3L383.4,335.8z M384.2,333.6h-0.3l0.4-1.1
	h0.3L384.2,333.6z M385,331.4h-0.3l0.4-1.1h0.3L385,331.4z"/>
<path class="st4" d="M376.8,340.8h-64l0.1-0.3h64L376.8,340.8z"/>
<path class="st2" d="M313.7,329.6h-1.9l0.7-1.9h1.9L313.7,329.6z"/>
<path class="st4" d="M313.7,329.7h-2.2l0.8-2.2h2.2L313.7,329.7z M311.9,329.4h1.6l0.6-1.6h-1.6L311.9,329.4z"/>
<path class="st2" d="M307.3,347.2h-1.9l0.7-1.9h1.9L307.3,347.2z"/>
<path class="st4" d="M307.3,347.3h-2.2l0.8-2.2h2.2L307.3,347.3z M305.5,347h1.6l0.6-1.6h-1.6L305.5,347z"/>
<path class="st2" d="M386.5,329.6h-1.9l0.7-1.9h1.9L386.5,329.6z"/>
<path class="st4" d="M386.5,329.7h-2.2l0.8-2.2h2.2L386.5,329.7z M384.7,329.4h1.6l0.6-1.6h-1.6L384.7,329.4z"/>
<path class="st2" d="M380.1,347.2h-1.9l0.7-1.9h1.9L380.1,347.2z"/>
<path class="st4" d="M380.2,347.3h-2.2l0.8-2.1h2.2L380.2,347.3z M378.3,347h1.6l0.6-1.6h-1.6L378.3,347z"/>
<path class="st2" d="M310.4,338.3h-1.6l0.6-1.6h1.6L310.4,338.3z"/>
<path class="st4" d="M310.4,338.4h-1.9l0.7-1.9h1.9L310.4,338.4z M308.9,338.1h1.3l0.5-1.4h-1.3L308.9,338.1z"/>
<path class="st2" d="M350,329.5h-1.6l0.6-1.6h1.6L350,329.5z"/>
<path class="st4" d="M350.1,329.7h-1.9l0.7-1.9h1.9L350.1,329.7z M348.5,329.4h1.3l0.5-1.4H349L348.5,329.4z"/>
<path class="st2" d="M343.6,347H342l0.6-1.6h1.6L343.6,347z"/>
<path class="st4" d="M343.7,347.1h-1.9l0.7-1.9h1.9L343.7,347.1z M342.1,346.8h1.4l0.5-1.3h-1.3L342.1,346.8z"/>
<path class="st2" d="M383.2,338.3h-1.6l0.6-1.6h1.6L383.2,338.3z"/>
<path class="st4" d="M383.3,338.4h-1.9l0.7-1.9h1.9L383.3,338.4z M381.7,338.1h1.3l0.5-1.4h-1.3L381.7,338.1z"/>
<path class="st4" d="M690.4,377.5l3.5-0.4l1.4-136.5l-65.1-35.7l-1.7,3.1l63.6,34.9L690.4,377.5z"/>
<path class="st5" d="M698.7,241.7c0,1-0.3,1.9-0.8,2.8s-1.3,1.5-2.2,1.8c-0.9,0.4-1.9,0.5-2.9,0.3c-1-0.2-1.8-0.7-2.5-1.4
	c-0.7-0.7-1.2-1.6-1.4-2.5c-0.2-1-0.1-2,0.3-2.9c0.4-0.9,1-1.7,1.8-2.2c0.8-0.5,1.8-0.8,2.8-0.8c1.3,0,2.6,0.5,3.5,1.5
	C698.2,239.1,698.7,240.4,698.7,241.7z"/>
<path class="st5" d="M635,206.4c0,1-0.3,1.9-0.8,2.8c-0.5,0.8-1.3,1.5-2.2,1.8c-0.9,0.4-1.9,0.5-2.9,0.3c-1-0.2-1.8-0.7-2.5-1.4
	c-0.7-0.7-1.2-1.6-1.4-2.5c-0.2-1-0.1-2,0.3-2.9c0.4-0.9,1-1.7,1.8-2.2c0.8-0.5,1.8-0.8,2.8-0.8c1.3,0,2.6,0.5,3.5,1.5
	C634.5,203.8,635,205.1,635,206.4z"/>
<path class="st5" d="M596.8,210.9l23.3,26l10.8-13.3l6.5-8.1l-17.5-19.5l-8.8,5.6L596.8,210.9z"/>
<path class="st12" d="M596.8,210.9l23.3,26l10.8-13.3l-19.7-21.9L596.8,210.9z"/>
<path class="st5" d="M563,223.7l40.6,45.3l27-34.4l-30.4-34L563,223.7z"/>
<path class="st5" d="M660.3,389.4h60.1l-3.7-18.9H664L660.3,389.4z"/>
<path class="st6" d="M646.4,309.2c0,0,2.3-9.2-4.1-10.3c-6.4-1.1-7.2,8.4-7.2,8.4L646.4,309.2z"/>
<path class="st6" d="M624,372.9l2.9,8.8l0.9,2.9l1.9-2.4l5.6-7.4l11.1-66l-11.3-1.9L624,372.9L624,372.9z"/>
<path class="st7" d="M626.9,381.7l0.9,2.9l1.9-2.4L626.9,381.7z"/>
<path class="st4" d="M633.8,309l13.2,2.2l0.4-2.6l-13.2-2.2L633.8,309z"/>
<path class="st4" d="M633.4,311.8l13.2,2.2l0.4-2.6l-13.2-2.2L633.4,311.8z"/>
<path class="st4" d="M646.6,314.1l-4.3-0.7l-1.7,24.3l1.6,0.2L646.6,314.1z"/>
<path class="st3" d="M621.9,323.9l-5.7,7.2l1.6,36.6l1.2,2.6l2.5-2.1l2.6-42.8L621.9,323.9z"/>
<path class="st1" d="M618,323.6l6.3,8l-2.1,36.4l-3,2.5l-2.3-26l-0.8-2.1l-0.9-16.8L618,323.6z"/>
<path class="st4" d="M621.7,333.9c0,0.4-0.1,0.8-0.3,1.1c-0.2,0.3-0.5,0.6-0.9,0.8c-0.4,0.2-0.8,0.2-1.2,0.1
	c-0.4-0.1-0.8-0.3-1.1-0.6c-0.3-0.3-0.5-0.7-0.6-1.1c-0.1-0.4,0-0.8,0.1-1.2c0.2-0.4,0.4-0.7,0.8-0.9c0.3-0.2,0.7-0.3,1.1-0.3
	c0.5,0,1.1,0.2,1.4,0.6C621.5,332.8,621.7,333.4,621.7,333.9L621.7,333.9z"/>
<path class="st5" d="M608.6,284.8c-8,0-10.7,7.4-10.7,12.3c0,8.4,9.4,11.7,12.2,15.3c3.6,4.7,3.9,15.6,3.9,15.6l5.3-3.9v-26.5
	C619.1,291.2,617.3,284.8,608.6,284.8z M609.7,305.5c-2.3-0.1-4.4-1.2-5.9-2.9s-2.3-3.9-2.2-6.2c0-1.9,0.7-3.8,2-5.2
	c1.3-1.4,3.1-2.3,5-2.5c5,0,6.8,4.7,7,7.7C615.9,299.4,615,305.5,609.7,305.5z"/>
<path class="st5" d="M619.1,302.8v-5.5l0.7,1v3.4L619.1,302.8z"/>
<path class="st5" d="M620.7,297.6v26.5l5.3,3.9c0,0,0.2-11,3.9-15.6c2.7-3.6,12.2-6.9,12.2-15.3c0-4.9-2.8-12.3-10.7-12.3
	C622.4,284.8,620.7,291.2,620.7,297.6z M624.1,296.4c0.2-3.1,2-7.7,7-7.7c1.9,0.2,3.7,1.1,5,2.5c1.3,1.4,2,3.3,2,5.2
	c0.1,2.3-0.7,4.5-2.2,6.2c-1.5,1.7-3.7,2.7-5.9,2.9C624.7,305.5,623.8,299.5,624.1,296.4L624.1,296.4z"/>
<path class="st5" d="M620.7,302.8v-5.5l-0.7,1v3.4L620.7,302.8z"/>
<path class="st13" d="M611.6,377.9c0,0,1.9,9.6,8.4,7.7c6.5-1.8,2.8-11,2.8-11L611.6,377.9z"/>
<path class="st7" d="M603.2,309l-11.3,3.4l19.7,65.9l11.3-3.4L603.2,309z"/>
<path class="st3" d="M623.2,372.3l-13.2,4l0.8,2.6l13.2-4L623.2,372.3z"/>
<path class="st3" d="M622.4,369.4l-13.2,4l0.8,2.6l13.2-4L622.4,369.4z"/>
<path class="st0" d="M603.2,309l-6.7-6.9l-2.2-2.3l-0.6,3.1l-1.8,9.4l1.6,1.3c0,0,0.6-1.9,0.6-1.9l1.6,1.3c0,0,0.6-1.9,0.6-1.9
	l1.6,1.3c0,0,0.6-1.9,0.7-1.9l1.6,1.3c0,0,0.6-1.9,0.6-1.9l1.6,1.3C602.6,311.1,603.2,309,603.2,309z"/>
<path class="st7" d="M596.5,302.1l-2.2-2.3l-0.6,3.1L596.5,302.1z"/>
<path class="st5" d="M598.4,341.3h42.9l-2.8,48.1h-37.2L598.4,341.3z"/>
<path class="st12" d="M641.3,341.3l-0.6,10.7h-41.6l-0.6-10.7H641.3z"/>
<path class="st5" d="M644,336.1h-48.3v9.7H644V336.1z"/>
<path class="st3" d="M220.5,545.8l5,30L259.5,759h5.5l-24.7-183.2l-3.6-30H220.5z"/>
<path class="st8" d="M236.6,545.8h-16.1l5,30h14.7L236.6,545.8z"/>
<path class="st3" d="M114,759h5.5l33.9-183.2l5-30h-16.1l-3.6,30L114,759z"/>
<path class="st8" d="M142.3,545.8l-3.6,30h14.7l5-30H142.3z"/>
<path class="st3" d="M12.3,759h5.5l33.9-183.2l5-30H40.6l-3.6,30L12.3,759z"/>
<path class="st8" d="M36.9,575.8h14.7l5-30H40.6L36.9,575.8z"/>
<path class="st3" d="M20.9,559.9h248.6v-26.2h-93L145.2,313H30.4L20.9,559.9z"/>
<path class="st1" d="M35.4,533.7h234.1v26.2h-235L35.4,533.7z"/>
<path class="st1" d="M20.9,559.9h13.6L43.3,313H30.4L20.9,559.9z"/>
<path class="st13" d="M245.7,759.4c-4.6-0.6-121.4-58.9-124.4-63.9c-0.4-0.6,4.7-11.2,11.8-25.7c16.1-32.9,48.4-88.4,48.4-88.4
	l70.3,39.5l-38.7,73.3c0,0,13,15.7,23.5,29c4.7,5.6,9.1,11.6,13.1,17.7C252.5,746.8,250.3,760,245.7,759.4z"/>
<path class="st0" d="M245.7,759.4c-4.6-0.6-121.4-58.9-124.4-63.9c-0.4-0.6,4.7-11.2,11.8-25.7c4.9-10,11.3-22,17.8-33.9l73.5,37.2
	l-11.2,21.2c0,0,13,15.7,23.5,29c4.7,5.6,9.1,11.6,13.1,17.7C252.5,746.8,250.3,760,245.7,759.4z"/>
<path class="st5" d="M245.8,759.8c-3.1-0.4-52.7-24.8-88.4-43.4c-8.2-4.3-15.8-8.3-21.8-11.6c-8.3-4.6-13.7-7.9-14.4-8.9
	c-1.4-2.3,11.7-28,25.4-53.1l74.4,37.4l-6.8,14.9c0,0,32.9,40.2,35.8,46.1C252.9,747,250.5,760.4,245.8,759.8z"/>
<path class="st4" d="M246.4,754.3c-19.4-10.2-98.3-49.7-118.1-58.4c-0.2,0-0.2,0,0,0.1c18.9,10.6,98.2,49.4,118.1,58.6
	C246.7,754.8,246.8,754.5,246.4,754.3z"/>
<path class="st4" d="M217.5,689.8c-7-5.3-17-8.8-25.6-6.2c-0.3,0.1-0.2,0.6,0.1,0.6c8.6,1.3,16.9,3.5,25,6.6c0.1,0,0.3,0,0.4,0
	c0.1-0.1,0.2-0.1,0.3-0.3c0.1-0.1,0.1-0.2,0.1-0.4C217.6,690,217.6,689.9,217.5,689.8L217.5,689.8z"/>
<path class="st4" d="M221.4,696c-7-5.3-17-8.8-25.6-6.3c-0.3,0-0.2,0.6,0,0.6c8.6,1.3,16.9,3.5,25,6.6c0.1,0.1,0.3,0.1,0.4,0.1
	c0.1,0,0.3-0.1,0.4-0.2c0.1-0.1,0.1-0.3,0.1-0.4C221.6,696.2,221.5,696.1,221.4,696z"/>
<path class="st4" d="M225.3,702.2c-7-5.3-17-8.8-25.6-6.3c-0.3,0.1-0.2,0.6,0.1,0.6c8.5,1.3,16.9,3.5,25,6.6c0.1,0.1,0.3,0.1,0.4,0
	c0.1,0,0.2-0.1,0.3-0.3c0.1-0.1,0.1-0.3,0-0.4C225.5,702.3,225.4,702.2,225.3,702.2L225.3,702.2z"/>
<path class="st4" d="M229.2,708.3c-7-5.3-17-8.8-25.6-6.2c-0.3,0.1-0.2,0.6,0.1,0.6c8.5,1.3,16.9,3.5,25,6.5c0.1,0,0.2,0,0.4,0
	c0.1,0,0.2-0.1,0.3-0.2c0.1-0.1,0.1-0.2,0.1-0.3C229.3,708.5,229.2,708.4,229.2,708.3L229.2,708.3z"/>
<path class="st4" d="M240.6,679.2c-0.9-5.7-7.5-6.6-12.1-5.5c-7.8,2-14.9,6.1-20.7,11.7c-0.1,0.1,0,0.3,0,0.4
	c-0.1,0.1-0.1,0.3-0.1,0.5c0,0.2,0,0.3,0.1,0.5c0.1,0.2,0.2,0.3,0.3,0.4c0.1,0.1,0.3,0.2,0.5,0.2c7.5,0.8,15.5,2.6,23,1.1
	C236.1,687.6,241.5,684.6,240.6,679.2z M220.3,686.2c-3.7-0.3-7.4-0.8-11.1-1c4-2.3,8-4.7,12.2-6.6c2.1-0.9,4.2-1.7,6.3-2.4
	c3.3-0.9,14.6-0.9,9,6.9C233.7,687.5,224.7,686.6,220.3,686.2L220.3,686.2z"/>
<path class="st4" d="M189.3,673.6c5,5.8,12.4,9.4,18.8,13.4c0.1,0.1,0.3,0.1,0.5,0.1c0.2,0,0.3,0,0.5-0.1c0.1-0.1,0.3-0.2,0.4-0.3
	c0.1-0.1,0.2-0.3,0.2-0.5c0.2,0,0.3,0,0.3-0.3c-1-8-4.1-15.6-9-22c-2.9-3.7-8.6-7-12.9-3.1C183.7,664.7,186.4,670.2,189.3,673.6z
	 M188.5,666.4c0.4-9.5,9.4-2.6,11.4,0.2c1.3,1.9,2.4,3.8,3.5,5.8c2.1,4.1,3.9,8.4,5.5,12.7c-3-2.2-6.2-4-9.4-6.1
	C195.9,676.5,188.3,671.7,188.5,666.4z"/>
<path class="st4" d="M236,669.5l-81.5-43c0,0,53.2-103.5,51.6-105.6c-5.8-7.4-74.5-4-104.3-33.6c-31.5-31.3-7.4-75.8-7.4-75.8h82.3
	c0,0-0.8,22.3,2.8,25.2c2.3,1.9,123.3,13.6,128,45.5C315.6,537.4,236,669.5,236,669.5z"/>
<path class="st7" d="M241.1,654.3c-9.8-5.9-19.8-11.4-29.9-16.8s-20.2-10.7-30.5-15.8c-5.8-2.9-11.6-5.5-17.4-8.3c0,0-0.1,0-0.1,0
	c0,0-0.1,0-0.1,0.1c0,0,0,0.1,0,0.1c0,0,0,0.1,0.1,0.1c5.1,2.7,10,5.8,15.1,8.5s10,5.4,15,8.1c10.1,5.3,20.3,10.6,30.4,15.9
	c5.8,3,11.5,5.8,17.4,8.6c0,0,0.1,0,0.1-0.1c0,0,0-0.1,0.1-0.1C241.1,654.4,241.1,654.4,241.1,654.3
	C241.1,654.3,241.1,654.3,241.1,654.3z"/>
<path class="st7" d="M238.5,507.3c-1.9-4.2-7.4-4.8-11.4-5.8l-32.8-8.2c-19.4-4.8-39.3-9.3-56.7-19.6c-8.3-4.9-16.3-11.1-20.5-20
	c-4.2-8.9-4.1-18.5-4.2-27.9c0-2.3,0.1-4.7,0.3-7c0-0.2-0.3-0.2-0.3,0c-0.6,9.3-1.5,18.6,0.5,27.8c1,4.5,2.7,8.7,5.2,12.5
	c2.6,3.8,5.8,7.2,9.4,10c15.4,12,34.6,17.8,53.2,22.6c10.5,2.7,21.1,5.2,31.6,7.7l16.3,4c2.4,0.3,4.7,1.2,6.7,2.7
	c0.8,0.8,1.3,1.7,1.7,2.7c0.3,1,0.4,2.1,0.3,3.2c-0.2,2.2-0.8,4.4-1.7,6.5c-1,2.6-1.9,5.1-3,7.6c-1.9,5-4.1,9.9-6.2,14.8
	c-4.3,9.9-8.7,19.7-13.3,29.4c-9.2,19.4-10,20.2-20,39.2c-1.2,2.4-2.4,4.8-3.7,7.1c0,0.1,0.1,0.3,0.2,0.1
	c10.7-18.8,11.8-19.7,21.3-39.1c9.5-19.4,18.4-38.8,26-58.9C239,515.3,240.3,511,238.5,507.3z"/>
<path class="st13" d="M467.8,763.7c-4.5,1.5-135,0-139.8-3c-0.6-0.3-0.6-28.3-0.6-28.3c-21.4-48.7-40.8-95.7-40.8-95.7l91.3-0.1
	l30.6,82.9c0,0,20.2,8.5,35.5,15.9c6.7,3,13.2,6.4,19.5,10.2C468.5,749.4,472.3,762.3,467.8,763.7z"/>
<path class="st0" d="M467.8,763.7c-4.5,1.5-135,0-139.8-3c-0.6-0.3-0.6-28.3-0.6-28.3c-5.5-12.4-10.8-24.7-15.7-36.2h88.2l8.6,23.2
	c0,0,20.2,8.5,35.5,15.9c6.7,3,13.2,6.4,19.5,10.2C468.5,749.4,472.3,762.3,467.8,763.7z"/>
<path class="st5" d="M467.8,764c-3,0.9-58.2,0.9-98.5-0.2c-9.3-0.3-17.8-0.6-24.7-0.9c-9.5-0.5-15.8-1-16.8-1.7
	c-1.5-1-1.9-14.1-1.9-31.2c0-1.5-10.1-21.6-12.2-27.7l89.7,0.8l5.2,15.3c0,0,49.8,22.8,54.8,26.9C468.5,749.4,472.4,762.5,467.8,764
	z"/>
<path class="st4" d="M466,758.8c-21.9-0.7-110.1-1.5-131.8-0.6c-0.2,0-0.2,0.1,0,0.2c21.7,1.2,109.9,1.3,131.8,0.8
	C466.5,759.1,466.5,758.8,466,758.8z"/>
<path class="st4" d="M411.8,713.6c-8.6-1.7-19.1-0.4-25.8,5.6c-0.3,0.2,0.1,0.6,0.4,0.5c8.2-2.6,16.7-4.3,25.3-5.1
	c0.1,0,0.3,0,0.4-0.1c0.1-0.1,0.2-0.2,0.2-0.4c0-0.1,0-0.3-0.1-0.4C412.1,713.7,411.9,713.6,411.8,713.6L411.8,713.6z"/>
<path class="st4" d="M418,717.4c-8.6-1.7-19.1-0.4-25.8,5.6c-0.3,0.2,0,0.6,0.3,0.5c8.3-2.6,16.8-4.3,25.4-5.1c0.1,0,0.1,0,0.2,0
	c0.1,0,0.1-0.1,0.2-0.1c0.1,0,0.1-0.1,0.1-0.2c0-0.1,0-0.1,0-0.2c0-0.1,0-0.1,0-0.2c0-0.1-0.1-0.1-0.1-0.2c0-0.1-0.1-0.1-0.2-0.1
	C418.1,717.4,418,717.4,418,717.4L418,717.4z"/>
<path class="st4" d="M424.1,721.2c-8.6-1.7-19.1-0.4-25.8,5.6c-0.3,0.2,0,0.6,0.4,0.5c8.2-2.6,16.7-4.3,25.3-5.1
	c0.1,0,0.3,0,0.4-0.1c0.1-0.1,0.2-0.2,0.2-0.4c0-0.1,0-0.3-0.1-0.4C424.4,721.3,424.3,721.2,424.1,721.2L424.1,721.2z"/>
<path class="st4" d="M430.3,725c-8.6-1.7-19.2-0.4-25.8,5.6c-0.3,0.2,0,0.6,0.4,0.5c8.2-2.6,16.7-4.3,25.3-5.1c0.1,0,0.3,0,0.4-0.1
	c0.1-0.1,0.2-0.2,0.2-0.4c0-0.1,0-0.3-0.1-0.4C430.6,725.1,430.5,725,430.3,725L430.3,725z"/>
<path class="st4" d="M427.8,693.9c-3.3-4.7-9.7-2.7-13.3,0.3c-6.1,5.2-10.7,12-13.4,19.6c0,0,0,0.1,0,0.1c0,0,0,0.1,0,0.1
	c0,0,0,0.1,0.1,0.1c0,0,0.1,0,0.1,0c0,0.7,0.6,1.4,1.3,1.1c7.1-2.6,15.1-4.4,21.2-9.1C427.5,703.4,431,698.3,427.8,693.9z
	 M412.7,709.2c-3.5,1.4-7,2.5-10.4,4c2.5-3.9,5.2-7.7,8.1-11.3c1.4-1.7,3-3.4,4.6-4.9c2.6-2.3,12.8-7.2,11.2,2.2
	C425.2,704.4,416.8,707.5,412.7,709.2z"/>
<path class="st4" d="M379.3,711.4c7.1,3.1,15.2,3,22.8,3.9c0.2,0,0.3,0,0.5-0.1c0.2-0.1,0.3-0.2,0.4-0.3c0.1-0.1,0.2-0.3,0.2-0.5
	c0-0.2,0-0.3,0-0.5c0,0,0.1,0,0.1-0.1c0,0,0-0.1,0.1-0.1c0,0,0-0.1,0-0.1c0,0,0-0.1,0-0.1c-4.4-6.7-10.5-12.2-17.7-15.8
	c-4.2-1.9-10.8-2.5-13,2.8C370.5,705.5,375.2,709.6,379.3,711.4z M375.4,705.2c-3.9-8.8,7.2-6.5,10.3-4.8c2,1.1,3.8,2.3,5.6,3.6
	c3.7,2.8,7.2,5.9,10.6,9.1c-3.7-0.6-7.4-0.9-11.1-1.4C386.5,711.1,377.6,710,375.4,705.2L375.4,705.2z"/>
<path class="st4" d="M399.1,687.6l-98.5-0.7c0,0-45.2-113.4-53.2-122c-4-4.3-31.2-9.2-63.6-16.3h-0.2c-12-2.6-24.6-5.6-37.1-8.9
	c-32.5-8.7-63.8-20.1-78-35.8c-29.8-32.9,0-92.4,0-92.4h83.9c0,0,2.1,25.9-4.3,41.7c0,0,61.7,9.1,113.7,25.9
	c29.5,9.5,55.8,21.6,66,36C347.6,543.2,399.1,687.6,399.1,687.6z"/>
<path class="st7" d="M388,672.9c-11.4-0.8-22.8-1.1-34.3-1.4c-11.5-0.3-22.9-0.4-34.3-0.3c-6.4,0-12.9,0.4-19.4,0.5c0,0-0.1,0-0.1,0
	c0,0,0,0.1,0,0.1c0,0,0,0.1,0,0.1c0,0,0.1,0,0.1,0c5.8,0.1,11.5,0.6,17.3,0.7c5.8,0.2,11.3,0.3,17,0.4c11.4,0.2,22.9,0.2,34.3,0.4
	c6.4,0,12.9,0,19.4-0.2c0.1,0,0.1,0,0.1-0.1c0,0,0.1-0.1,0.1-0.1c0-0.1,0-0.1-0.1-0.2C388.1,672.9,388,672.9,388,672.9L388,672.9z"
	/>
<path class="st7" d="M111.2,423.7c-0.1,0.4-0.3,0.8-0.5,1.1c0,0,0,0,0,0s0,0,0,0.1c0,0,0,0,0,0.1s0,0,0,0c-1.1,3.4-1.6,7.1-2.6,10.5
	c-1,3.7-3.3,6.9-6.4,9.1c-6.5,4.5-14.3,6.6-21.9,8.4c-0.3,0-0.2,0.4,0,0.4c4.4,0,8.7-0.6,12.9-1.9c4-1.1,7.7-2.8,11.1-5.3
	c3.1-2.3,5.3-5.7,6.2-9.4c0.5-2,0.8-4,1.1-6.1c0.4-2.3,0.7-4.7,0.8-7.1c0-0.1,0-0.2-0.1-0.3c-0.1-0.1-0.1-0.1-0.2-0.1
	c-0.1,0-0.2,0-0.3,0.1C111.2,423.5,111.2,423.6,111.2,423.7z"/>
<path class="st7" d="M163.4,447.4c-5.2,1.5-10.2,3.5-15.1,5.8l-0.2,0.1c0.1-0.3,0.2-0.6,0.2-0.9l0.2-1.1c0-0.4,0-0.8,0.1-1.1v-0.6
	c0.6,0,1.2-0.2,1.8-0.5c0.6-0.3,1-0.7,1.4-1.2c1-1.4,1.6-3,1.9-4.7c0.6-2.2,1.1-4.3,1.5-6.5c0.5-2.2,1-4.8,1.4-7.3
	c0.5-2.4,0.7-4.8,0.8-7.2c0-0.1-0.1-0.1-0.1-0.2c-0.1,0-0.1-0.1-0.2-0.1s-0.2,0-0.2,0.1c-0.1,0-0.1,0.1-0.1,0.2
	c-0.6,2.2-0.8,4.5-1.2,6.8c-0.4,2.3-0.9,4.5-1.4,6.7c-0.5,2.2-1.1,4.5-1.7,6.7c-0.6,2.2-1.1,4.8-3.4,5.5c-4.7,1.3-2.6-9.2-2.4-11.3
	c0.5-4.8,0.8-9.7,1.6-14.4c0,0,0-0.1,0-0.1c0,0-0.1,0-0.1,0c0,0-0.1,0-0.1,0s0,0.1,0,0.1c-1,4.4-2.2,8.6-3,13.1
	c-0.4,2.1-0.7,4.3-0.9,6.5c-0.4,1.9-0.2,3.8,0.4,5.6c0.3,0.6,0.7,1.1,1.3,1.5c0.5,0.4,1.2,0.7,1.8,0.8c0,0.2-0.1,0.3-0.2,0.5
	c-0.1,0.3-0.2,0.7-0.3,1c-0.1,0.3-0.2,0.7-0.3,1.1c-0.1,0.4-0.2,0.9-0.2,1.3c0.1,0.1,0.1,0.2,0.3,0.3c-1.9,0.9-4,1.7-6,2.7
	c-2.5,1-4.9,2.2-7.2,3.5c-0.3,0.1,0,0.5,0.2,0.4c2.6-0.7,5.1-1.6,7.6-2.7c2.5-1,5-1.9,7.5-3c5-1.8,9.7-4.1,14.3-6.7
	c0.1,0,0.2,0,0.2-0.1c0.1-0.1,0.1-0.2,0.1-0.3c0-0.1,0-0.2-0.1-0.2C163.6,447.5,163.5,447.4,163.4,447.4L163.4,447.4z"/>
<path class="st7" d="M281,601.2c-5.8-12.6-12-25.1-18.4-37.4c-2.8-5.3-5.3-10.8-11-13.7c-2.6-1.2-5.3-2.2-8-2.9
	c-3.3-0.9-6.6-1.7-9.8-2.5c-26.7-6.8-53.8-12.3-80.3-19.8c-13.3-3.7-26.4-7.9-39.3-12.9c-10.4-4.1-20.8-8.8-29.5-16
	c-4.2-3.4-7.8-7.5-10.6-12c-3.3-5.5-11-20.5,0.4-65.8c0-0.2-0.2-0.3-0.3-0.2c-9.1,32.3-7.2,49.9-5.5,56.3c1.4,5.5,4,10.6,7.5,15
	c6.7,8.6,16.2,14.5,25.9,19.2c11.7,5.4,23.7,9.9,36,13.6c26.4,8.3,53.6,14.1,80.5,20.5c6.7,1.6,13.4,3.2,20,4.9
	c5.9,1.5,12.9,2.7,17.2,7.6c2,2.5,3.7,5.3,5,8.2c1.6,3.1,3.2,6.2,4.8,9.3c3.2,6.4,6.4,12.7,9.4,19.2c12.1,25.3,31.2,69.7,32.4,73
	c0,0.2,0.5,0.1,0.4-0.1C303.5,651.2,286.8,613.8,281,601.2z"/>
<path class="st7" d="M268.6,608.7c-1.6-6-17.4-42.5-22.5-45.8c-2.7-1.7-57.3-14.1-64.8-14.9c-0.2,0-0.2,0.3,0,0.3
	c6.4,1.9,51.2,12.5,57.6,14.2c2.8,0.6,5.4,2,7.6,4c2.9,2.8,20,40.1,21.6,43.3C268.6,610.7,268.9,609.7,268.6,608.7z"/>
<path class="st7" d="M307.6,497.6c-11.3-6.9-23.3-12.6-35.8-17.1c-9.4-3.3-19-5.8-28.6-8.5c-19.8-5.4-39.8-9.9-59.9-13.6
	c-5.8-1-11.5-1.9-17.3-2.9c-5.6-1-11.3-1.7-17-2.1c0,0-0.1,0-0.1,0.1c0,0-0.1,0.1-0.1,0.1c0,0,0,0.1,0.1,0.1c0,0,0.1,0.1,0.1,0.1
	c5,1.2,10.1,1.9,15.2,2.9c5.1,0.9,10,1.7,15,2.7c10,1.9,19.9,4,29.8,6.2c19.6,4.5,39.1,9.7,58.4,15.4c16,4.7,31.2,13.5,39.8,17.3
	c0.1,0,0.2,0,0.2,0c0.1,0,0.1-0.1,0.2-0.2c0-0.1,0.1-0.2,0-0.2C307.7,497.7,307.7,497.6,307.6,497.6z"/>
<path class="st13" d="M153.5,297c36.6,23.8,88.1,79.2,83.9,93.7c-4.6,16.1-57.2-17.6-56.4-20c0.7-2.1-24.8-32.4-41.1-60
	C124.2,284.1,144.5,291.1,153.5,297z"/>
<path class="st5" d="M194.8,325.3l-43.1,12.5c0,0-11.3-19.6-16-31.3c-6.2-15.5-1.9-21.4,16.3-12.2
	C164.1,300.5,194.8,325.3,194.8,325.3z"/>
<path class="st2" d="M181.9,315.7c-1.9,0.2-3.9,0.2-5.8-0.1c-1.9-0.2-3.8-0.7-5.6-1.4c1.9-0.2,3.9-0.1,5.8,0.2
	C178.2,314.5,180.1,315,181.9,315.7z M159.1,298.7c-0.5,0.3-1,0.7-1.5,1.1c-1.5,1.1-2.9,2.4-4.2,3.9c1.8-0.8,3.4-1.7,4.9-2.9
	c0.6-0.4,1.2-0.9,1.7-1.4L159.1,298.7z M145.2,324.9c-0.6-0.8-1.3-1.5-1.9-2.2l2.9,5.4c0.6,0.6,1.2,1.2,1.9,1.7
	C147.3,328.1,146.3,326.4,145.2,324.9L145.2,324.9z"/>
<path class="st4" d="M189.2,322.5c-6.4,1.4-12.8,2.8-19.1,4.6c-3.1,0.9-6.3,1.8-9.4,2.8c-3.1,1-6.1,2.3-9.3,3.2c0,0-0.1,0-0.1,0
	c0,0,0,0.1,0,0.1c0,0,0,0.1,0,0.1c0,0,0.1,0,0.1,0c3.1-1.1,6.3-1.8,9.5-2.7l9.4-2.7c6.3-1.8,12.6-3.6,18.9-5.2
	C189.4,322.7,189.4,322.4,189.2,322.5z"/>
<path class="st12" d="M181.9,329l-30.3,8.8c0,0-11.3-19.6-16-31.3c-3.6-8.9-3.7-14.6,0.3-16.1L181.9,329z"/>
<path class="st5" d="M178.8,416.8l-118.4,9.6c0,0,33.3-102,57.9-128c13.6-14.4,24.4-8.1,33.7-0.4c2.3,1.9,25.2,34.6,27.6,47.2
	c2.1,11.1-6.9,23.5-6.9,23.5L178.8,416.8z"/>
<path class="st2" d="M101.7,358.7c-0.2-1.9-0.2-3.8,0.1-5.7c0.2-1.9,0.7-3.8,1.4-5.6c0.2,1.9,0.2,3.9-0.2,5.8
	C102.9,355.1,102.4,357,101.7,358.7L101.7,358.7z M140.6,400.8c0.3-1.9,0.3-3.9,0.1-5.8c-0.7,1.8-1.2,3.7-1.4,5.6
	c-0.3,1.9-0.4,3.9-0.2,5.8C139.9,404.6,140.4,402.7,140.6,400.8L140.6,400.8z M127,304.7c0.3-1.9,0.3-3.8,0.2-5.7
	c-1.4,3.6-1.9,7.4-1.6,11.3C126.3,308.5,126.8,306.6,127,304.7L127,304.7z M65.1,412.9c0,0.7,0,1.4,0,2.1c0.7-1.8,1.2-3.6,1.4-5.5
	c0-0.5,0.1-1,0.2-1.5L65.1,412.9z M166.8,345.6c0.3-1.9,0.4-3.9,0.2-5.8c-0.7,1.8-1.2,3.7-1.4,5.6c-0.3,1.9-0.3,3.9-0.1,5.8
	c0.7-1.8,1.1-3.7,1.3-5.6H166.8z M132.1,345.2c-1.9-0.3-3.9-0.3-5.8-0.1c1.8,0.7,3.7,1.2,5.6,1.4c1.9,0.3,3.9,0.4,5.8,0.2
	C135.9,345.9,134,345.4,132.1,345.2L132.1,345.2z M160.1,417.8l1,0.4l4-0.3C163.5,417.6,161.8,417.6,160.1,417.8L160.1,417.8z
	 M92.7,401.7c-1.9-0.3-3.9-0.3-5.8-0.2c1.8,0.7,3.7,1.2,5.6,1.4c1.9,0.3,3.9,0.3,5.8,0.2C96.5,402.4,94.6,402,92.7,401.7L92.7,401.7
	z M116,381.5c1.5-1.1,2.9-2.4,4.1-3.9c-1.8,0.8-3.4,1.7-4.9,2.9c-1.5,1.1-2.9,2.4-4.1,3.9C112.8,383.7,114.5,382.8,116,381.5
	L116,381.5z M175.6,392.5l-0.8,0.5c-1.5,1.1-2.9,2.4-4.1,3.9c1.8-0.8,3.4-1.7,4.9-2.9l0.2-0.1L175.6,392.5z M106.5,325
	c1.5-1.1,2.9-2.4,4.1-3.9c-1.8,0.8-3.4,1.7-4.9,2.9c-1.5,1.1-2.9,2.4-4.1,3.9C103.4,327.2,105,326.2,106.5,325z M155.1,301.9
	c-0.6,0.5-1.1,1.1-1.6,1.7c0.7-0.3,1.4-0.6,2.1-1L155.1,301.9z M149.9,371.3c1.1,1.5,2.4,2.9,3.9,4.1c-0.8-1.8-1.7-3.4-2.9-4.9
	c-1.1-1.5-2.4-2.9-3.9-4.2C147.7,368.1,148.7,369.8,149.9,371.3z M144.1,325.7c1.1,1.5,2.4,2.9,3.9,4.1c-0.8-1.8-1.7-3.4-2.9-4.9
	c-1.1-1.5-2.4-2.9-3.9-4.2C142,322.5,142.9,324.2,144.1,325.7L144.1,325.7z M80.7,375.2c-0.4-0.5-0.8-1-1.3-1.5
	c-0.2,0.4-0.3,0.9-0.5,1.3c0.3,0.3,0.5,0.7,0.7,1c1.1,1.5,2.4,2.9,3.9,4.1C82.8,378.4,81.9,376.8,80.7,375.2L80.7,375.2z
	 M113.1,420.7c0.2,0.5,0.4,0.9,0.6,1.4h0.8C114.1,421.6,113.6,421.1,113.1,420.7L113.1,420.7z"/>
<path class="st4" d="M162.2,313.4c3.4,5.8,7.1,11.4,10.5,17.2c1.8,2.8,3.3,5.8,4.7,8.8c1.4,3,2.2,6.3,2.1,9.7c0.3-1.7,0.3-3.4,0-5.1
	c-0.3-1.7-0.7-3.3-1.4-4.9c-1.3-3.1-2.8-6.1-4.6-9c-1.6-2.6-3.3-5.2-5.1-7.7c-0.3-0.9-0.6-1.8-0.9-2.6c-0.5-1.3-1.1-2.5-1.7-3.7
	c0.3,1.3,0.8,2.6,1.3,3.9c0.2,0.3,0.3,0.7,0.4,1.1C165.9,318.3,164.1,315.8,162.2,313.4z"/>
<path class="st4" d="M140.8,366.1c4.6,0.1,9.2,0.6,13.7,1.4c2.2,0.4,4.5,1,6.7,1.6c1.1,0.3,2.2,0.5,3.3,0.8c1.2,0.3,2.3,0.4,3.5,0.4
	c0.1,0,0.1,0.2,0,0.2c-1.1,0.1-2.2,0.2-3.4,0.1c-1.1-0.1-2.2-0.2-3.3-0.4c-2.3-0.4-4.6-0.9-6.8-1.4c-4.6-0.9-9.2-1.8-13.8-2.3
	C140.6,366.5,140.6,366.1,140.8,366.1z"/>
<path class="st4" d="M129.7,370.9c3.7-0.6,7.5-1,11.3-1.2c1.9,0,3.9,0,5.7,0l2.7,0.2c1,0,1.9,0.3,3,0.3v0.2c-0.9,0-1.9,0.1-2.8,0.1
	l-2.8,0.1l-5.7,0.2c-3.8,0-7.6,0.2-11.3,0.4C129.5,371.2,129.5,370.9,129.7,370.9z"/>
<path class="st13" d="M133.1,293.7c-0.1,2.1,5.6,17.9,14.9,20.2c3,0.7,7.7-15.6,7.7-15.6l0.6-1.1l8.7-15.7L149,262.9l-2.4-2.5
	c0,0-2.1,4.5-4.7,10c-0.1,0.3-0.3,0.5-0.4,0.8c-0.1,0.3-0.3,0.6-0.4,0.9c-0.4,0.8-0.8,1.7-1.2,2.5c-0.4,0.9-0.6,1.3-0.9,1.9
	l-0.9,2.1C136.2,283.6,134.4,288.6,133.1,293.7L133.1,293.7z"/>
<path class="st4" d="M142,270.4c0.3,5.2,1.7,10.3,4.2,15s5.9,8.7,10.1,11.8l8.7-15.7L149,262.9l-2.4-2.5
	C146.7,260.4,144.5,264.9,142,270.4z"/>
<path class="st13" d="M194.7,257.7c-1,31.6-20.1,34.6-26.9,34.3c-6.2-0.2-27.2-1.7-29.5-33.2c-2.2-31.5,12.8-41,26.9-41.3
	C179.4,217.2,195.7,226.1,194.7,257.7z"/>
<path class="st4" d="M190.4,252.1c-0.7-0.1-1.4-0.4-2.1-0.6c-0.8-0.1-1.5-0.4-2.1-1c-0.1-0.2-0.2-0.4-0.2-0.7c0-0.2,0.1-0.5,0.2-0.7
	c0.4-0.3,0.8-0.5,1.3-0.6c0.5-0.1,1,0,1.5,0.1c1,0.2,1.9,0.8,2.5,1.6c0.1,0.2,0.2,0.4,0.2,0.6c0,0.2-0.1,0.4-0.2,0.6
	c-0.1,0.2-0.3,0.3-0.5,0.4C190.8,252.1,190.6,252.1,190.4,252.1L190.4,252.1z"/>
<path class="st4" d="M168.8,252c0.7-0.1,1.5-0.2,2.2-0.3c0.8,0,1.5-0.3,2.1-0.8c0.2-0.2,0.2-0.4,0.2-0.7c0-0.2-0.1-0.5-0.2-0.7
	c-0.3-0.4-0.8-0.6-1.2-0.8c-0.5-0.1-1-0.2-1.5,0c-1,0.1-2,0.6-2.7,1.3c-0.2,0.2-0.3,0.4-0.3,0.7c0,0.2,0,0.5,0.1,0.7
	c0.1,0.2,0.3,0.4,0.5,0.5C168.3,252,168.6,252,168.8,252L168.8,252z"/>
<path class="st4" d="M173.3,258.9c0,0-0.2,0-0.2,0.2c0,2.2-0.3,4.6-2.3,5.3v0.1C173.2,264.2,173.7,260.9,173.3,258.9z"/>
<path class="st4" d="M171.6,256.6c-3.5-0.4-3.9,6.5-0.7,6.9C174,263.8,174.4,256.9,171.6,256.6z"/>
<path class="st4" d="M170.1,256.8c-0.6,0.3-1.3,1-1.9,1c-0.7,0-1.4-0.7-1.9-1.5h-0.1c-0.1,1.3,0.3,2.7,1.7,3
	c1.4,0.3,2.3-0.9,2.7-2.1C170.5,257.1,170.3,256.7,170.1,256.8z"/>
<path class="st4" d="M185.3,259.3c0,0,0.2,0.1,0.2,0.2c-0.2,2.1-0.1,4.6,1.7,5.5c0,0,0,0.1,0,0.1
	C184.8,264.5,184.7,261.2,185.3,259.3z"/>
<path class="st4" d="M187.4,257.2c3.5,0,3.2,7,0,6.9C184.2,264.1,184.5,257.1,187.4,257.2z"/>
<path class="st4" d="M188.8,257.7c0.5,0.4,1,1.1,1.7,1.1c0.7,0.1,1.4-0.6,1.9-1.3h0.1c0,1.3-0.5,2.7-1.8,2.9c-1.3,0.2-1.9-1-2.2-2.3
	C188.4,257.9,188.6,257.5,188.8,257.7z"/>
<path class="st4" d="M171.8,276.5c0.4,0.6,0.9,1.3,1.6,1.5c0.8,0.1,1.6,0,2.4-0.3c0,0,0.1,0,0,0.1c-0.4,0.4-0.8,0.7-1.3,0.8
	s-1,0.2-1.5,0c-0.4-0.2-0.8-0.5-1-0.8c-0.3-0.4-0.4-0.8-0.4-1.3C171.6,276.4,171.8,276.4,171.8,276.5z"/>
<path class="st4" d="M181.3,269.2c0,0,0.3,3.2,0.2,4.7c0,0.2-0.4,0.2-0.9,0.2c-1.3,0.2-2.6,0-3.9-0.6c-1.2-0.5-2.2-1.4-3-2.5
	c-0.1-0.2,0-0.3,0.2-0.2c1.9,1.4,4.1,2.2,6.5,2.3c0.1-0.4-0.6-5.5-0.4-5.5c1.2,0.2,2.3,0.5,3.4,1c-0.3-6.8-1.8-13.4-1.9-20.1
	c0-0.2,0.3-0.3,0.4,0c1.7,7.1,2.8,14.3,3.1,21.6C184.9,270.8,181.9,269.5,181.3,269.2z"/>
<path class="st4" d="M139.1,262c2.1-0.7,4-1.9,5.5-3.6s2.6-3.7,3-5.9c5.8-1.7,11-4.8,15.1-9.2c-0.3,0.6-2.4,5-3.6,7.3
	c20.2-1,28.3-15.3,28.3-15.3c3.3,4,5.7,8.6,6.9,13.7c0,0,1.8-12.1-3.4-21c-1.6-3.1-4.1-5.7-7.1-7.5c-3-1.8-6.4-2.8-9.9-2.9
	c-5-1-10.2-0.8-15.1,0.5c-4.9,1.3-9.5,3.7-13.4,7C130.9,237.2,139.1,262,139.1,262z"/>
<path class="st4" d="M174.6,249.4c-3.4,1.3-7,2.1-10.6,2.4c5.8-0.8,11.2-3.1,15.6-6.8c1.9-1.6,3.6-3.4,5.1-5.4
	c1.7-2.1,2.9-4.6,3.6-7.2c0,0,0,0,0-0.1c0,0,0,0,0-0.1c0,0,0,0,0.1,0c0,0,0,0,0.1,0c0,0,0,0,0.1,0c0,0,0,0,0.1,0c0,0,0,0,0,0.1
	c0,0,0,0,0,0.1c-0.4,2.6-1.3,5.2-2.6,7.6c-1.4,2.3-3.2,4.3-5.3,5.9C178.9,247.3,176.8,248.5,174.6,249.4"/>
<path class="st13" d="M137.9,270.4c0.4,0.2,0.9,0.4,1.4,0.5c1.1,0.4,2.3,0.3,3.4-0.1c0.5-0.2,0.9-0.5,1.3-0.8c0.6-0.5,1-1,1.4-1.6
	l-0.7-8.6c0,0-5.7-10.6-10.4-8.7C129.5,253.1,132.9,267.9,137.9,270.4z"/>
<path class="st4" d="M135.3,255.3v0.2c3.5,1.9,5,5.5,5.9,9.2c-0.2-0.4-0.4-0.7-0.7-1c-0.3-0.3-0.7-0.5-1.1-0.6
	c-0.4-0.1-0.8-0.2-1.3-0.1c-0.4,0.1-0.8,0.2-1.2,0.4c0,0,0,0-0.1,0c0,0,0,0,0,0.1s0,0,0,0.1c0,0,0,0,0.1,0c0.7-0.1,1.4,0,2,0.2
	c0.6,0.3,1.1,0.7,1.5,1.3c0.6,1,1,2,1.4,3.1c0.1,0.3,0.7,0.2,0.7-0.2C143.1,263.4,140.2,256.4,135.3,255.3z"/>
<path class="st2" d="M138.5,269.2c0,0.3,0.1,0.6,0.3,0.8c0.2,0.2,0.4,0.4,0.7,0.5c0.3,0.1,0.6,0.1,0.9,0c0.3-0.1,0.5-0.2,0.7-0.5
	c0.2-0.2,0.3-0.5,0.3-0.8c0-0.3,0-0.6-0.2-0.8c-0.1-0.3-0.3-0.5-0.6-0.6c-0.3-0.1-0.5-0.2-0.8-0.2c-0.4,0-0.7,0.2-1,0.5
	C138.6,268.4,138.5,268.8,138.5,269.2L138.5,269.2z"/>
<path class="st2" d="M135.8,266.6c0,0.1,0,0.3,0.1,0.4c0.1,0.1,0.1,0.3,0.2,0.4c0.1,0.1,0.2,0.2,0.4,0.2c0.1,0,0.3,0.1,0.4,0.1
	c0.1,0,0.3-0.1,0.4-0.1c0.1-0.1,0.2-0.2,0.3-0.3c0.1-0.1,0.2-0.3,0.2-0.4c0-0.1,0-0.3,0-0.4c0-0.3-0.2-0.5-0.4-0.7s-0.5-0.3-0.8-0.2
	c-0.3,0-0.5,0.2-0.7,0.4C135.8,266.1,135.7,266.3,135.8,266.6z"/>
<path class="st4" d="M149.4,224.6c4.4-3.2,14.5-26.4-5.5-37.8c-19.6-11.2-43.8,14.2-29.4,33.1C124.2,232.6,140.2,231.4,149.4,224.6z
	"/>
<path class="st13" d="M237.4,390.6c-4.6,11.1-22.5,17-66.3,35.9c-6,2.6-36.1-35.1-29.7-38.2c8-3.9,39.7-17.6,42.1-18.3
	C204.2,364.2,240.6,383.1,237.4,390.6z"/>
<path class="st13" d="M150.2,384.3c0,0-18.7,7.2-27.4,14c-8.8,7.3-15.7,16.6-20.2,27.2c-4.8,11.4-8.6,42.3,0.1,44.9
	c7.9,2.4,10.1-29.4,10.1-29.4s-7.6,32,2.4,33.1c10,1.1,10.5-35.9,10.5-35.9s-7.1,33.1,3.4,32.6c7.9-0.4,10.3-33.9,10.3-33.9
	s-5.9,28.5,2.3,28.4c9,0,13.1-30.8,13.1-30.8c20.8-3.6,29.3-13.7,34.4-21.7C190.6,411,150.2,384.3,150.2,384.3z"/>
<path class="st4" d="M114.8,429.8c-1,3.7-2.1,7.5-2.8,11.3c-0.7,3.8-1.3,7.6-1.6,11.5c-0.5,5-0.5,10.1,0.1,15.1
	c-0.4-9,1.9-22.7,2.5-26.4c0.6-3.8,1.2-7.6,1.9-11.4C115,429.7,114.8,429.7,114.8,429.8z"/>
<path class="st4" d="M128.6,432c-1.1,4.8-2.4,9.6-3.3,14.4c-0.9,4.9-1.3,9.5-1.9,14.4c0,0.4,0.2,0.3,0.2-0.1
	c0.7-4.9,1.8-9.3,2.6-14.2C127.1,441.8,127.7,436.9,128.6,432L128.6,432z"/>
<path class="st4" d="M140.8,431.9c-1.9,7.3-3,14.9-3.4,22.4c0,0.4,0.2,0.2,0.3-0.2c1-7.5,1.7-13.4,3.3-22.2
	C141.1,431.8,140.8,431.7,140.8,431.9z"/>
<path class="st4" d="M205,370.4c-3.5-1.2-13.2-3.7-21.3-0.4c-0.1,0,0,0.2,0,0.1c7-1.7,17.8-0.5,21.3,0.4
	C205,370.6,205.1,370.5,205,370.4z"/>
<path class="st4" d="M338.8,344.5c1.4,0.9,2.8,1.6,3.2,1c0.4-0.6-0.8-1.7-2.1-2.6L338.8,344.5z"/>
<path class="st7" d="M325.2,345.4c1.4,0.9,10.7,0.2,14-0.6c0.3-0.1,0.6-0.3,0.8-0.6c0.2-0.3,0.3-0.7,0.3-1
	c-0.5-3.3-3.4-12.2-4.8-13.2c-1-0.7-5.1-1.9-9.2-3.5c-5.4-2.1-65.9-40.5-66.8-40.5c-0.9-0.1-2.2,1.5-2.8,2.4
	c-0.6,0.9-1.6,2.8-1.2,3.6c0.4,0.8,59,42.2,62.9,46.4C321.5,341.4,324.3,344.7,325.2,345.4z"/>
<path class="st8" d="M325.2,345.4c0.2,0.1,0.3,0.2,0.5,0.2c2.5-2.3,4.7-4.9,6.6-7.7c1.6-2.3,2.8-4.7,3.7-7.3
	c-0.1-0.2-0.3-0.4-0.5-0.6c-0.2-0.1-0.4-0.3-0.7-0.4c-0.7,2.5-3,8.5-10.3,15.3C324.8,345,325,345.2,325.2,345.4L325.2,345.4z"/>
<path class="st4" d="M323.5,333.7l0.6-0.8c0.4-0.6,0.3-1.5-0.4-2l-17.1-11.5c-0.6-0.4-1.5-0.3-2,0.4l-0.6,0.8
	c-0.4,0.6-0.3,1.5,0.4,2l17.1,11.5C322.2,334.5,323.1,334.3,323.5,333.7z"/>
<path class="st8" d="M322.8,332.9l0.3-0.5c0.3-0.4,0.2-0.9-0.2-1.2l-11-7.3c-0.4-0.3-0.9-0.2-1.2,0.2l-0.3,0.5
	c-0.3,0.4-0.2,0.9,0.2,1.2l11,7.3C322,333.4,322.5,333.3,322.8,332.9z"/>
<path class="st4" d="M318.9,328.7l-1.2,1.9l0.5,0.4l1.2-1.9L318.9,328.7z"/>
<path class="st13" d="M121.9,325.4c16.1,35.3,48.3,71.4,60,72.7c12.5,1.4,54.4-13.9,65.5-19.8c6.1-3.3-10.1-55.6-16.3-51.5
	c-10.3,6.8-40.5,21.7-43.8,20.6c-2.4-0.8-30.3-23.2-49.9-37C110.7,291.8,115.2,310.7,121.9,325.4z"/>
<path class="st13" d="M229.6,327.9c0,0,18-11.1,30.1-17.8c6.8-3.7,18.9-9.1,25.2-9.7c9.3-0.7,40.5,3.3,40,12.8
	c-0.5,8.7-25.8,0.8-25.8,0.8s34.4,3.9,31.9,14.3c-2.5,10.4-39.4-2.4-39.4-2.4s35.3,4.8,31,15.1c-3.2,7.7-37.2-1.9-37.2-1.9
	s30.5,0.7,27.6,8.8c-3.3,8.9-35.4,5.6-35.4,5.6c-11,19.4-24.1,24-33.8,26.3C241.4,380.3,229.6,327.9,229.6,327.9z"/>
<path class="st4" d="M287.2,312c4.1,0.3,8.2,0.6,12.2,1.3c4,0.7,8,1.5,11.9,2.5c5.2,1.3,10.2,3.1,14.9,5.5c-8.8-3.7-23.1-6.3-27.1-7
	s-8-1.5-12-2.2C287.1,312.1,287.1,312,287.2,312z"/>
<path class="st4" d="M284.5,326.5c5.2,0.6,10.3,1,15.5,1.9c5.2,0.9,9.9,2.1,14.9,3.3c0.4,0.1,0.2,0.3-0.2,0.2c-5.1-1-9.9-1.5-15-2.5
	c-5.1-0.9-10.2-2.1-15.3-2.8C284.4,326.6,284.4,326.4,284.5,326.5z"/>
<path class="st4" d="M280,338.4c10.5,0.7,21,2.5,31.2,5.3c0.5,0.1,0.2,0.4-0.4,0.3c-10.3-1.9-18.4-3.5-30.8-5.2
	C279.8,338.8,279.8,338.4,280,338.4z"/>
<path class="st5" d="M138.9,365.2l20.7-39.8c0,0-17-14.9-27.5-21.8c-14-9.2-20.6-6.1-15.1,13.6C120.6,330.4,138.9,365.2,138.9,365.2
	z"/>
<path class="st2" d="M127.3,300.8c0,1.3-0.1,2.6-0.3,3.9c-0.2,1.9-0.7,3.8-1.4,5.6c-0.2-1.9-0.2-3.9,0.1-5.8
	c0.2-1.4,0.5-2.8,0.9-4.1L127.3,300.8z M132.1,345.3c-1.1-0.1-2.2-0.2-3.4-0.3l0.5,1c0.9,0.2,1.8,0.4,2.7,0.5
	c1.9,0.3,3.9,0.4,5.8,0.2c-1.8-0.8-3.7-1.3-5.6-1.6V345.3z M144.1,325.7c1.1,1.5,2.4,2.9,3.9,4.1c-0.8-1.8-1.7-3.4-2.9-4.9
	c-1.1-1.5-2.4-2.9-3.9-4.2C142,322.5,143,324.2,144.1,325.7L144.1,325.7z"/>
<path class="st4" d="M157.1,330.2c0.1-0.5,2.1-4.6,2.4-4.9c-2.1-1.7-4.1-3.4-6.1-5.1c-1-0.9-1.9-1.7-3-2.6c-1-0.9-2.4-2.1-3.3-2.9
	c-0.1-0.1,0-0.3,0.2-0.2c1.4,1,2.3,1.8,3.5,2.7c1.2,0.9,2.1,1.6,3.1,2.4c2.1,1.8,4.5,3.5,6.5,5.4c-0.9,1.8-1.9,3.6-3.1,5.3
	L157.1,330.2z"/>
<path class="st4" d="M137.2,359.2c2.6-6,5.3-12,8.2-17.8c1.5-2.9,3-5.8,4.6-8.7c1.6-2.9,3.4-5.6,4.9-8.5c0-0.2,0.3,0,0.2,0.1
	c-1.7,2.8-3,5.8-4.5,8.7c-1.5,2.9-3,5.8-4.5,8.7c-3,5.8-5.9,11.6-8.8,17.4C137.4,359.5,137.2,359.4,137.2,359.2z"/>
<path class="st4" d="M141.9,359.5c-0.8,1.9-1.7,3.9-2.6,5.8L139,366l-0.4-0.7c-2.9-4.8-5.5-9.7-8-14.8c-2.5-5-4.6-10.2-6.5-15.5
	c2.6,5,5.2,9.9,7.7,14.9l3.9,7.5l3.7,7.5h-0.7C139.6,363.2,140.7,361.3,141.9,359.5z"/>
<path class="st4" d="M124.4,340.1c0.9,1,1.8,1.9,2.6,3c0.8,1,1.6,2.1,2.2,3.3c-1.1-0.7-2.2-1.6-3-2.7
	C125.4,342.6,124.8,341.4,124.4,340.1L124.4,340.1z"/>
<path class="st4" d="M179.4,341.9c2.1,1.6,4.3,3.1,6.6,4.5c0.5,0.3,1.1,0.4,1.6,0.5c0.6-0.1,1.2-0.2,1.8-0.4
	c1.2-0.4,2.5-0.9,3.7-1.3l7.5-2.9c2.5-1,5-1.9,7.6-2.8c-2.3,1.4-4.7,2.7-7.1,3.9c-2.4,1.2-4.9,2.2-7.4,3.2c-1.3,0.4-2.6,0.9-3.9,1.3
	c-0.7,0.2-1.4,0.3-2.2,0.3c-0.8-0.1-1.5-0.3-2.1-0.8C183.3,345.9,181.2,344,179.4,341.9L179.4,341.9z"/>
<path class="st4" d="M156.9,378.4c2.6,2.8,5.3,5.5,8.1,8.1c2.7,2.6,5.7,5,8.8,7.3c1.5,1.1,3.1,2,4.8,2.8c1.6,0.8,3.5,1.1,5.3,0.9
	c3.8-0.4,7.5-1,11.2-1.8c7.5-1.6,14.8-3.6,22.1-5.8c7.3-2.2,14.5-4.6,21.6-7.5c-6.9,3.3-14,6.2-21.3,8.6c-7.3,2.4-14.7,4.5-22.1,6.2
	c-3.8,0.8-7.6,1.4-11.4,1.7c-2,0.1-4-0.2-5.8-1.1c-1.7-0.9-3.4-1.9-4.9-3.1C167.1,389.9,161.7,384.4,156.9,378.4L156.9,378.4z"/>
</svg>
