<svg width="43" height="50" viewBox="0 0 43 50" fill="none" xmlns="http://www.w3.org/2000/svg">
<path d="M28.5714 0H14.2857V4.7619H28.5714V0ZM19.0476 30.9524H23.8095V16.6667H19.0476V30.9524ZM38.1667 15.2143L41.5476 11.8333C40.5238 10.619 39.4048 9.47619 38.1905 8.47619L34.8095 11.8571C31.1191 8.90476 26.4762 7.14286 21.4286 7.14286C9.59524 7.14286 0 16.7381 0 28.5714C0 40.4048 9.57143 50 21.4286 50C33.2857 50 42.8571 40.4048 42.8571 28.5714C42.8571 23.5238 41.0952 18.881 38.1667 15.2143ZM21.4286 45.2381C12.2143 45.2381 4.76191 37.7857 4.76191 28.5714C4.76191 19.3571 12.2143 11.9048 21.4286 11.9048C30.6429 11.9048 38.0952 19.3571 38.0952 28.5714C38.0952 37.7857 30.6429 45.2381 21.4286 45.2381Z" fill="#FB0707"/>
</svg>
