<svg width="24" height="18" viewBox="0 0 24 18" fill="none" xmlns="http://www.w3.org/2000/svg">
<path d="M24 0C23.064 0.520842 21.186 1.23067 20.082 1.43541C20.0496 1.44328 20.0232 1.45341 19.992 1.46128C19.0164 0.55909 17.6796 0 16.2 0C13.218 0 10.8 2.26673 10.8 5.06218C10.8 5.20955 10.7868 5.48066 10.8 5.62465C6.7764 5.62465 3.714 3.64927 1.518 1.12493C1.2792 1.68739 1.1748 2.57609 1.1748 3.41079C1.1748 4.98681 2.4888 6.53472 4.5348 7.49428C4.158 7.5854 3.7428 7.65065 3.3108 7.65065C2.6136 7.65065 1.8756 7.47853 1.2 6.95657C1.2 6.97569 1.2 6.99369 1.2 7.01394C1.2 9.21655 3.6936 10.7161 5.9112 11.1334C5.4612 11.382 4.554 11.4068 4.1112 11.4068C3.7992 11.4068 2.6952 11.2729 2.4 11.2212C3.0168 13.0267 5.2416 14.0414 7.362 14.0774C5.7036 15.2968 4.5528 15.749 1.1568 15.749H0C2.1456 17.0382 4.878 18 7.6164 18C16.5324 18 21.6 11.6295 21.6 5.62465C21.6 5.5279 21.5976 5.32542 21.594 5.12181C21.594 5.10156 21.6 5.08243 21.6 5.06218C21.6 5.03181 21.5904 5.00256 21.5904 4.97219C21.5868 4.8192 21.5832 4.67633 21.5796 4.60209C22.5276 3.96088 23.3496 3.16105 24 2.24986C23.13 2.61209 22.1964 2.85507 21.216 2.96532C22.2168 2.40285 23.6388 1.06193 24 0Z" fill="white"/>
</svg>
