<svg width="197" height="197" viewBox="0 0 197 197" fill="none" xmlns="http://www.w3.org/2000/svg">
<circle cx="98.5" cy="98.5" r="98.5" fill="#FB0707"/>
<path d="M98.5 46C75.1828 46 56.2778 64.6264 56.2778 87.6V92.8V97.4922C53.2499 100.337 51 103.996 51 108.4C51 114.858 55.526 119.647 61.2566 121.989C68.1232 138.16 81.8762 150 98.5 150C115.124 150 128.877 138.16 135.743 121.989C141.474 119.647 146 114.858 146 108.4C146 103.996 143.75 100.337 140.722 97.4922V92.8V87.6C140.722 64.6264 121.817 46 98.5 46ZM72.1111 87.6H124.889C127.802 87.6 130.167 89.9296 130.167 92.8V98V102.428L132.816 103.921C134.418 104.827 135.444 106.398 135.444 108.4C135.444 111.079 133.498 113.146 130.899 113.498L127.806 113.925L126.683 116.789C121.242 130.757 110.42 139.6 98.5 139.6C86.5804 139.6 75.7578 130.757 70.3175 116.789L69.1939 113.925L66.1015 113.498C63.5022 113.146 61.5556 111.079 61.5556 108.4C61.5556 106.398 62.5816 104.827 64.1841 103.921L66.8333 102.428V98V92.8C66.8333 89.9296 69.1978 87.6 72.1111 87.6Z" fill="white"/>
</svg>
